<?xml version="1.0" encoding="UTF-8"?>
<svg version="1.1" xmlns="http://www.w3.org/2000/svg" width="354" height="354">
<path d="M0 0 C2.1234578 -0.00650234 4.24690904 -0.01556986 6.37034607 -0.0269928 C12.10795769 -0.04997295 17.84489984 -0.03541501 23.58248949 -0.01252341 C29.60093095 0.00646179 35.61932947 -0.00477639 41.63778687 -0.01142883 C51.74024021 -0.01775894 61.84242685 0.00044843 71.94482422 0.03320312 C83.61024752 0.07071373 95.2751662 0.06890668 106.94061625 0.04616195 C118.1842938 0.02518771 129.42778554 0.03250006 140.6714592 0.0524807 C145.44717112 0.06044928 150.22272513 0.05849611 154.99843216 0.04845619 C160.62444608 0.03787796 166.24987413 0.05211022 171.87579536 0.08519936 C173.93566229 0.09338181 175.99558313 0.09315182 178.05544472 0.08372116 C189.99983667 0.03505653 198.58902914 0.34445822 208.46240234 7.68237305 C209.34798828 8.58729492 209.34798828 8.58729492 210.25146484 9.51049805 C210.85732422 10.1034668 211.46318359 10.69643555 212.08740234 11.30737305 C216.83188202 17.81290414 218.4714874 24.10239241 218.39112854 32.05162048 C218.39807407 32.94246906 218.4050196 33.83331764 218.4121756 34.75116163 C218.43035681 37.71278632 218.42020611 40.67360188 218.40991211 43.63525391 C218.41697506 45.76811824 218.42572165 47.90097757 218.4360199 50.03382874 C218.45848108 55.81072495 218.45558173 61.58734677 218.44669843 67.36426997 C218.44158073 72.1927906 218.44888745 77.02126002 218.4561705 81.84977537 C218.47315909 93.24315769 218.46961401 104.63640603 218.45288086 116.02978516 C218.43595835 127.77180903 218.4517985 139.51346118 218.48410374 151.25544447 C218.51081892 161.34914487 218.51807046 171.44272969 218.50958866 181.53646189 C218.5046654 187.55958308 218.50684288 193.58248063 218.52737617 199.60557365 C218.54576347 205.27008553 218.53973676 210.9340636 218.51517677 216.59854698 C218.51017873 218.67293788 218.51363236 220.74736967 218.52632523 222.82172775 C218.59765081 235.48346362 218.34665646 244.78683449 209.56396484 254.63549805 C203.37612535 260.37651324 196.56447773 262.88925581 188.2019043 262.87402344 C187.52846985 262.87416946 186.8550354 262.87431549 186.16119385 262.87446594 C183.93734506 262.8737698 181.71358024 262.86599137 179.48974609 262.8581543 C177.94703721 262.85628906 176.40432773 262.85486565 174.86161804 262.85386658 C170.80262617 262.85004974 166.74367011 262.84022656 162.68469238 262.8291626 C158.54224126 262.81893057 154.39978434 262.81436511 150.25732422 262.80932617 C142.13035466 262.79860355 134.00341421 262.78153712 125.87646484 262.76049805 C125.88534729 263.6049498 125.89422974 264.44940155 125.90338135 265.31944275 C125.98378457 273.30744904 126.04455938 281.29531792 126.08371353 289.28363705 C126.10452041 293.38978891 126.13271024 297.49560426 126.17822266 301.6015625 C126.22192893 305.56975641 126.24565375 309.53762821 126.25597382 313.50604439 C126.26332105 315.0142174 126.27766785 316.52237432 126.29938507 318.03040886 C126.46264418 329.84516038 124.99321605 338.13605331 116.81396484 346.9675293 C110.17220166 353.11383837 104.24244915 354.90905662 95.30686951 354.91439819 C94.42114748 354.91878045 93.53542544 354.9231627 92.62286335 354.92767775 C89.64286055 354.94107553 86.66288733 354.94724687 83.68286133 354.95336914 C81.5508867 354.96126945 79.41891341 354.96953835 77.28694153 354.97814941 C70.2738269 355.00438173 63.26070626 355.01968008 56.24755859 355.03393555 C53.83355264 355.03929507 51.41954672 355.04467258 49.00554085 355.0500679 C38.96275951 355.07170001 28.9199798 355.09043605 18.87718105 355.10169029 C4.48520001 355.11792414 -9.9065108 355.15108478 -24.29838997 355.20809114 C-34.41741901 355.24680534 -44.53637583 355.26632487 -54.65547699 355.27161086 C-60.69884717 355.27526276 -66.74192921 355.28726716 -72.78521919 355.31971359 C-78.47422053 355.34981919 -84.16275977 355.35609685 -89.85182381 355.34432983 C-91.93590519 355.3441093 -94.02000816 355.3523976 -96.10401535 355.36998367 C-108.65004072 355.47006067 -118.16373352 355.32165478 -127.93603516 346.57299805 C-137.36130095 336.05206398 -136.847771 325.30554376 -136.78637695 311.89575195 C-136.79479795 309.77583416 -136.80532652 307.65592385 -136.8177948 305.536026 C-136.84478572 299.79825862 -136.84015677 294.06092711 -136.82809424 288.32312441 C-136.82094825 283.52455619 -136.82947233 278.72606782 -136.83799964 273.92750585 C-136.85793418 262.60255731 -136.85240309 251.27781996 -136.83032227 239.95288086 C-136.80796559 228.28863246 -136.82555309 216.62493773 -136.86337155 204.96074164 C-136.89465156 194.92812096 -136.90250731 184.89567125 -136.8914178 174.8630079 C-136.88494459 168.8789269 -136.88686692 162.89516516 -136.91074181 156.91112137 C-136.93205896 151.28179522 -136.92393061 145.65324726 -136.89364815 140.02396965 C-136.88734308 137.96493381 -136.8911272 135.90583698 -136.90605927 133.84684563 C-136.98876085 121.43121806 -136.8037414 111.34737534 -128.18011951 101.5533123 C-121.01176454 94.43959578 -112.59837161 92.34590849 -102.7151432 92.29617691 C-100.56709069 92.307609 -98.4198164 92.33835691 -96.27197266 92.36987305 C-94.76169592 92.37734917 -93.25140936 92.38303561 -91.74111938 92.38702393 C-87.79868992 92.40217272 -83.85686589 92.44135868 -79.91467285 92.48583984 C-75.87890814 92.52702736 -71.84304398 92.54508465 -67.80712891 92.56518555 C-59.91232225 92.60786596 -52.01800438 92.67598323 -44.12353516 92.76049805 C-44.1324176 91.93079498 -44.14130005 91.10109192 -44.15045166 90.24624634 C-44.2309136 82.39099797 -44.29165915 74.53588989 -44.33078384 66.68032265 C-44.35157519 62.6425772 -44.37973588 58.60517495 -44.42529297 54.56762695 C-44.46905562 50.66426643 -44.49273568 46.76123405 -44.50304413 42.85764694 C-44.5103814 41.37541928 -44.52470816 39.89320765 -44.54645538 38.41112137 C-44.69573537 27.80676691 -43.769712 19.12148844 -37.12353516 10.51049805 C-26.28012859 -0.41619368 -14.42432286 -0.10460698 0 0 Z M-12.12353516 31.76049805 C-12.45353516 53.54049805 -12.78353516 75.32049805 -13.12353516 97.76049805 C-17.69829418 110.34108536 -20.24631241 116.20058073 -32.12353516 121.76049805 C-55.54036689 128.4510214 -80.7724575 124.39154232 -105.12353516 124.76049805 C-105.12353516 190.43049805 -105.12353516 256.10049805 -105.12353516 323.76049805 C-39.12353516 323.76049805 26.87646484 323.76049805 94.87646484 323.76049805 C94.87646484 302.64049805 94.87646484 281.52049805 94.87646484 259.76049805 C100.70816419 240.80747517 100.70816419 240.80747517 110.87646484 235.32299805 C132.67160904 225.25247383 173.14328178 231.76049805 186.87646484 231.76049805 C186.87646484 165.76049805 186.87646484 99.76049805 186.87646484 31.76049805 C121.20646484 31.76049805 55.53646484 31.76049805 -12.12353516 31.76049805 Z " fill="#A13400" transform="translate(136.12353515625,-0.760498046875)"/>
<path d="M0 0 C3.7313035 3.11389357 6.45852548 6.37557644 8 11 C8.08921886 13.07028273 8.11759651 15.14337589 8.11352539 17.21557617 C8.11344986 18.4966777 8.11337433 19.77777924 8.11329651 21.09770203 C8.10818987 22.49612466 8.10297387 23.8945469 8.09765625 25.29296875 C8.09579089 26.72357636 8.09436754 28.15418461 8.09336853 29.58479309 C8.08955267 33.34786751 8.07973032 37.11090325 8.06866455 40.8739624 C8.05843043 44.71479774 8.05386662 48.55563933 8.04882812 52.39648438 C8.03810722 59.9310072 8.02104196 67.46549818 8 75 C9.14179466 74.99333817 9.14179466 74.99333817 10.30665588 74.98654175 C17.50066228 74.94637069 24.69461383 74.91596782 31.88870335 74.89637566 C35.58673981 74.88596434 39.28468314 74.87185397 42.98266602 74.84912109 C46.55531154 74.82729761 50.1278678 74.81541145 53.70057487 74.81024551 C55.05964499 74.80656675 56.41871055 74.79938322 57.77774239 74.78853989 C74.23079858 74.66255579 74.23079858 74.66255579 79.1796875 78.83984375 C79.73914063 79.53207031 80.29859375 80.22429687 80.875 80.9375 C81.44992188 81.62714844 82.02484375 82.31679687 82.6171875 83.02734375 C85.3337739 86.90270006 85.31232689 90.39317837 85 95 C82.95682161 100.67549553 79.40252559 104.29873721 74 107 C71.71490996 107.11275577 69.42647449 107.15940693 67.13867188 107.17700195 C66.07968185 107.18685875 66.07968185 107.18685875 64.9992981 107.19691467 C62.65578098 107.21666921 60.31232826 107.22831995 57.96875 107.23828125 C57.16665604 107.24235678 56.36456207 107.2464323 55.53816223 107.25063133 C51.28618629 107.27150923 47.0342427 107.28579895 42.78222656 107.29516602 C38.40888404 107.30618581 34.03605663 107.34052872 29.6628952 107.38033772 C26.28604247 107.40661511 22.90930985 107.41486804 19.53236389 107.41844749 C17.92176364 107.42329113 16.31116795 107.43484105 14.70066833 107.45348549 C4.16482581 107.56779574 -4.27569919 106.85289478 -13.25 100.8125 C-20.44024105 93.45884438 -24.22775664 86.1230321 -24.29052734 75.72875977 C-24.29724457 75.027117 -24.30396179 74.32547424 -24.31088257 73.60256958 C-24.32977529 71.29877512 -24.33378198 68.99527321 -24.3359375 66.69140625 C-24.34237042 65.08007185 -24.34909915 63.46873861 -24.35610962 61.85740662 C-24.36805976 58.48588351 -24.37179267 55.1144627 -24.37060547 51.74291992 C-24.37040216 47.43437533 -24.39772639 43.12648942 -24.43214989 38.81810093 C-24.4544435 35.49196896 -24.4584423 32.16599508 -24.45738602 28.83979607 C-24.45973742 27.25184797 -24.46853491 25.66389522 -24.48405075 24.07602119 C-24.50376633 21.85042917 -24.49785298 19.6262522 -24.48583984 17.40063477 C-24.48868988 16.13743912 -24.49153992 14.87424347 -24.49447632 13.57276917 C-23.71255341 7.92309507 -21.53882842 4.21823917 -17 0.625 C-11.13296818 -2.55297557 -6.21983074 -2.44214213 0 0 Z " fill="#A13400" transform="translate(116,155)"/>
<path d="M0 0 C0.69813812 -0.00671722 1.39627625 -0.01343445 2.11557007 -0.02035522 C4.42062533 -0.03933039 6.72538909 -0.04325978 9.03051758 -0.04541016 C10.63991921 -0.05184075 12.24931967 -0.0585693 13.85871887 -0.06558228 C17.23380235 -0.07755548 20.6087835 -0.08126329 23.98388672 -0.08007812 C28.29005168 -0.07987546 32.59555274 -0.10712213 36.90156078 -0.14162254 C40.22777767 -0.16396542 43.55383701 -0.16791334 46.88012123 -0.16685867 C48.46641632 -0.16920566 50.05271635 -0.17797795 51.638937 -0.19352341 C60.10018074 -0.26865069 67.54728126 -0.29119791 74.98754883 4.29052734 C75.96228401 4.85799179 75.96228401 4.85799179 76.95671082 5.43692017 C83.86853147 9.62465625 87.82986562 16.68132736 89.98754883 24.29052734 C90.17559049 26.74487556 90.263452 29.20793588 90.27807617 31.66943359 C90.2847934 32.38243622 90.29151062 33.09543884 90.2984314 33.83004761 C90.31732492 36.17111301 90.32133065 38.5118906 90.32348633 40.85302734 C90.32991848 42.48917761 90.33664715 44.12532673 90.34365845 45.76147461 C90.35560825 49.18427193 90.35934146 52.60696846 90.3581543 56.02978516 C90.35795082 60.40792572 90.3852921 64.78541926 90.41969872 69.16340637 C90.44196888 72.54010977 90.44599187 75.9166572 90.44493484 79.29342651 C90.44728912 80.90732053 90.45610292 82.52121895 90.47159958 84.13504028 C90.49127032 86.39435889 90.48541952 88.65227835 90.47338867 90.91162109 C90.47623871 92.19480225 90.47908875 93.4779834 90.48202515 94.80004883 C89.73700715 100.05908593 87.30168798 103.10459689 83.42504883 106.60302734 C79.28190692 109.47135636 75.93673925 109.62606568 70.98754883 109.29052734 C65.61630359 107.4270341 62.08046757 103.9752414 58.98754883 99.29052734 C57.85940048 95.86609769 57.8668481 92.64089143 57.87402344 89.05322266 C57.87413673 87.16171478 57.87413673 87.16171478 57.87425232 85.23199463 C57.87935854 83.86088013 57.88457453 82.48976604 57.88989258 81.11865234 C57.89175855 79.71189423 57.89318161 78.30513546 57.8941803 76.89837646 C57.89799139 73.20272007 57.90780963 69.50710322 57.91888428 65.8114624 C57.92912869 62.03756241 57.93368441 58.263656 57.9387207 54.48974609 C57.94943319 47.08998852 57.96649267 39.69026348 57.98754883 32.29052734 C56.80483902 32.3005201 56.80483902 32.3005201 55.59823608 32.31071472 C48.15375473 32.37092108 40.70939207 32.41654995 33.26473045 32.44596386 C29.43769283 32.46159443 25.61085703 32.48278453 21.78393555 32.5168457 C18.08809053 32.54953296 14.39243918 32.56739998 10.69646072 32.57515907 C9.2890989 32.58068585 7.88174722 32.59147835 6.47446823 32.60771751 C4.49765177 32.6296137 2.52063886 32.63075379 0.54370117 32.63110352 C-1.14174301 32.64109627 -1.14174301 32.64109627 -2.86123657 32.65129089 C-9.01598043 31.9466714 -13.05125668 28.94514545 -16.80932617 24.24755859 C-18.808904 20.99499855 -19.33342755 18.07506278 -19.01245117 14.29052734 C-17.24065756 8.48298163 -14.41318902 4.49970354 -9.29057312 1.17196655 C-6.13424175 -0.04926492 -3.38196317 0.02044935 0 0 Z " fill="#A13400" transform="translate(172.012451171875,91.70947265625)"/>
<path d="M0 0 C9.44831499 7.99118849 16.1385736 17.60600256 18 30 C19.12802577 45.65135751 16.14657651 57.9825292 5.875 70.125 C-2.11834856 78.66274605 -12.17336849 84.75597936 -24.015625 85.46875 C-25.7601139 85.5028813 -27.5052234 85.51269221 -29.25 85.5 C-30.1687793 85.49427979 -31.08755859 85.48855957 -32.03417969 85.48266602 C-45.22186096 85.13848839 -54.77285503 80.04351515 -64.15234375 70.90234375 C-74.44966612 60.02975197 -77.64333449 48.14156372 -77.30859375 33.515625 C-76.69199153 21.24498503 -70.62664401 10.1024527 -61.8125 1.6875 C-43.64295625 -13.38672114 -19.01078128 -14.22640133 0 0 Z M-61 13 C-68.21519998 21.75883651 -70.06884061 32.92562371 -69 44 C-67.29889815 53.66792887 -62.26393825 61.48108106 -55 68 C-54.2575 68.680625 -53.515 69.36125 -52.75 70.0625 C-43.18713444 76.79997346 -33.42008559 77.81245098 -22 77 C-10.56362776 74.5169167 -1.76997987 67.3668901 5 58 C10.29695438 47.74192119 11.50968486 37.55847741 8.375 26.4375 C4.5941122 15.16116798 -1.64878444 7.61934899 -12.1875 2.1875 C-29.48498617 -6.22970193 -48.45440084 -0.67562556 -61 13 Z " fill="#000000" transform="translate(207,139)"/>
<path d="M0 0 C2.64 0 5.28 0 8 0 C8.33 7.59 8.66 15.18 9 23 C11.64 20.36 14.28 17.72 17 15 C17.66 15 18.32 15 19 15 C19 14.34 19 13.68 19 13 C20.5390625 11.484375 20.5390625 11.484375 22.625 9.75 C25.32980303 7.49442125 27.63580316 5.27141342 29.875 2.5625 C31.83741139 0.50741918 32.73255879 0.03826343 35.59375 -0.37109375 C38.0921209 -0.3746027 40.51678684 -0.26500694 43 0 C43 0.66 43 1.32 43 2 C41.671875 3.3046875 41.671875 3.3046875 39.75 4.875 C33.82166218 9.89702718 28.44825893 15.47001718 23 21 C24.71568028 24.82512325 27.11672402 28.11953848 29.5625 31.5 C29.99997559 32.11004883 30.43745117 32.72009766 30.88818359 33.34863281 C33.10903438 36.43274851 35.35905259 39.49087691 37.66015625 42.515625 C38.07515381 43.06154297 38.49015137 43.60746094 38.91772461 44.16992188 C40.06743149 45.67465452 41.224923 47.17342976 42.3828125 48.671875 C44 51 44 51 44 53 C40.33898116 54.07209879 37.64672184 54.19453205 34 53 C29.42665743 48.83293829 26.28487575 43.18538243 23 38 C21.77379265 36.18549663 20.54529545 34.37253379 19.3125 32.5625 C18.53779202 31.37752413 17.76508653 30.19121068 17 29 C13.62063742 30.18734361 11.25614677 31.18173469 9 34 C8.49945249 36.11615844 8.49945249 36.11615844 8.48828125 38.44921875 C8.45283203 39.29677734 8.41738281 40.14433594 8.38085938 41.01757812 C8.34702148 42.33918945 8.34702148 42.33918945 8.3125 43.6875 C8.27833984 44.58017578 8.24417969 45.47285156 8.20898438 46.39257812 C8.12654352 48.59492671 8.05738449 50.79687938 8 53 C5.36 53 2.72 53 0 53 C0 35.51 0 18.02 0 0 Z " fill="#000000" transform="translate(156,150)"/>
<path d="M0 0 C-21.50581317 7.16860439 -45.33088249 1 -68 1 C-68 65.35 -68 129.7 -68 196 C-3.65 196 60.7 196 127 196 C127 175.21 127 154.42 127 133 C127.33 133 127.66 133 128 133 C128 154.12 128 175.24 128 197 C62.99 197 -2.02 197 -69 197 C-69 131.99 -69 66.98 -69 0 C-4 -1 -4 -1 0 0 Z " fill="#CC2200" transform="translate(101,125)"/>
<path d="M0 0 C65.01 0 130.02 0 197 0 C197 65.01 197 130.02 197 197 C175.88 197 154.76 197 133 197 C133 196.67 133 196.34 133 196 C153.79 196 174.58 196 196 196 C196 131.65 196 67.3 196 1 C131.65 1 67.3 1 1 1 C1 22.45 1 43.9 1 66 C0.67 66 0.34 66 0 66 C0 44.22 0 22.44 0 0 Z " fill="#CC2200" transform="translate(125,32)"/>
<path d="M0 0 C1.18802719 0.00222061 2.37605438 0.00444122 3.6000824 0.00672913 C4.58053528 0.00651009 4.58053528 0.00651009 5.58079529 0.00628662 C7.75058766 0.00698569 9.92029517 0.01477774 12.09007263 0.02259827 C13.59079949 0.02446247 15.09152696 0.02588636 16.59225464 0.02688599 C20.54934865 0.03071099 24.50640616 0.04054112 28.46348572 0.05158997 C32.49851488 0.06180446 36.53354991 0.06638369 40.56858826 0.07142639 C48.49113108 0.08216341 56.41364419 0.09923962 64.33616638 0.12025452 C64.33616638 0.45025452 64.33616638 0.78025452 64.33616638 1.12025452 C60.54961996 2.00290491 57.0532064 2.24182189 53.16893005 2.23377991 C51.94804184 2.23370438 50.72715363 2.23362885 49.4692688 2.23355103 C48.16077469 2.22838974 46.85228058 2.22322845 45.50413513 2.21791077 C44.14364677 2.21604412 42.78315773 2.21462138 41.42266846 2.21362305 C37.85361351 2.20981727 34.28459969 2.20000366 30.71556091 2.18891907 C27.06891944 2.17866314 23.42227127 2.17411649 19.77561951 2.16908264 C12.62911838 2.15837955 5.48264507 2.14132655 -1.66383362 2.12025452 C-1.66161301 2.87336411 -1.6593924 3.62647369 -1.65710449 4.40240479 C-1.63704589 11.50874327 -1.62183108 18.61507191 -1.61202145 25.72143078 C-1.60680865 29.37464801 -1.59974015 33.02784179 -1.58839417 36.68104553 C-1.57750826 40.20828799 -1.5715447 43.73550792 -1.56895638 47.26276588 C-1.56621659 49.25963713 -1.55841361 51.25649935 -1.55053711 53.25335693 C-1.55046158 54.47424515 -1.55038605 55.69513336 -1.55030823 56.95301819 C-1.54808762 58.02557358 -1.545867 59.09812897 -1.5435791 60.20318604 C-1.65696794 62.9537107 -2.03998306 65.44395242 -2.66383362 68.12025452 C-2.99383362 68.12025452 -3.32383362 68.12025452 -3.66383362 68.12025452 C-3.68695973 59.40181449 -3.70475007 50.68338495 -3.71564579 41.964921 C-3.72087403 37.9169971 -3.72797061 33.86909411 -3.73927307 29.82118225 C-3.75010405 25.9178948 -3.7561109 22.01462753 -3.75871086 18.11132622 C-3.76056473 16.61891805 -3.76418462 15.12651103 -3.76956367 13.6341114 C-3.77677693 11.55077312 -3.77782444 9.4675192 -3.77735901 7.38417053 C-3.77957962 6.19614334 -3.78180023 5.00811615 -3.78408813 3.78408813 C-3.622291 0.2000177 -3.58407043 0.16179714 0 0 Z " fill="#EA0300" transform="translate(266.66383361816406,262.87974548339844)"/>
<path d="M0 0 C2 2 2 2 2.24050903 4.63223267 C2.23606781 5.74697968 2.23162659 6.86172668 2.22705078 8.01025391 C2.22689972 9.27141022 2.22674866 10.53256653 2.22659302 11.8319397 C2.21637898 13.21348222 2.20594697 14.59502315 2.1953125 15.9765625 C2.19158288 17.38617757 2.18873567 18.79579523 2.18673706 20.20541382 C2.17909655 23.91759382 2.15944461 27.62961761 2.1373291 31.34173584 C2.11687959 35.12884406 2.10773727 38.9159775 2.09765625 42.703125 C2.076199 50.13548793 2.04205816 57.56772208 2 65 C2.77007889 64.99555878 3.54015778 64.99111755 4.33357239 64.98654175 C11.58768956 64.94648241 18.84175316 64.9160245 26.09595203 64.89637566 C29.8254906 64.88593444 33.55493783 64.87176917 37.28442383 64.84912109 C40.88298631 64.82740461 44.4814609 64.81543392 48.08008385 64.81024551 C49.45362418 64.8065476 50.82715966 64.79932655 52.20066261 64.78853989 C54.12306662 64.77404171 56.04555891 64.77318322 57.96801758 64.77294922 C59.06277908 64.768508 60.15754059 64.76406677 61.28547668 64.75949097 C64 65 64 65 67 67 C34.33 66.505 34.33 66.505 1 66 C0.67 44.22 0.34 22.44 0 0 Z " fill="#942900" transform="translate(124,163)"/>
<path d="M0 0 C32.67 0.495 32.67 0.495 66 1 C66.33 22.78 66.66 44.56 67 67 C64.66238196 63.49357293 64.7561402 62.1114405 64.77294922 57.96801758 C64.77310028 56.72695755 64.77325134 55.48589752 64.77340698 54.20722961 C64.7836202 52.8529952 64.79405219 51.49876242 64.8046875 50.14453125 C64.80841833 48.75876571 64.81126497 47.37299752 64.81326294 45.98722839 C64.82089392 42.3424652 64.8405377 38.69786176 64.8626709 35.05316162 C64.88314092 31.33298911 64.89226712 27.61279074 64.90234375 23.89257812 C64.92378419 16.5949793 64.95791356 9.29751205 65 2 C64.21517242 2.00444122 63.43034485 2.00888245 62.62173462 2.01345825 C55.23486042 2.05348917 47.84803862 2.08396099 40.46108437 2.10362434 C36.66313688 2.11407321 32.86527882 2.12825236 29.06738281 2.15087891 C25.40398654 2.17256821 21.74067643 2.18456031 18.07722092 2.18975449 C16.67773456 2.19345731 15.27825305 2.20068777 13.87880325 2.21146011 C11.92266669 2.22592225 9.96644391 2.22681647 8.01025391 2.22705078 C6.33813339 2.23371262 6.33813339 2.23371262 4.63223267 2.24050903 C2 2 2 2 0 0 Z " fill="#942800" transform="translate(163,124)"/>
<path d="M0 0 C0.33 0 0.66 0 1 0 C1 22.11 1 44.22 1 67 C-21.11 67 -43.22 67 -66 67 C-66 66.67 -66 66.34 -66 66 C-44.22 66 -22.44 66 0 66 C0 44.22 0 22.44 0 0 Z " fill="#883F00" transform="translate(90,24)"/>
<path d="M0 0 C24.42 0 48.84 0 74 0 C69.86972308 2.06513846 68.14988199 2.24858019 63.65844727 2.24291992 C62.37353897 2.24599655 61.08863068 2.24907318 59.76478577 2.25224304 C58.36532411 2.24534391 56.96586423 2.23807684 55.56640625 2.23046875 C54.1267857 2.22927588 52.68716436 2.22882402 51.24754333 2.2290802 C48.23228065 2.22751742 45.21713703 2.21924474 42.2019043 2.20581055 C38.34398723 2.18883636 34.48620111 2.18499596 30.62825108 2.18575573 C27.65564228 2.18548327 24.68306189 2.17998958 21.71046257 2.17275429 C20.28835197 2.16958013 18.86623817 2.16760315 17.44412422 2.16686058 C15.45305341 2.16468285 13.46199484 2.15512547 11.47094727 2.14526367 C10.33939713 2.14145187 9.20784698 2.13764008 8.04200745 2.13371277 C5.24702369 2.01085803 2.71876103 1.63691483 0 1 C0 0.67 0 0.34 0 0 Z " fill="#E80600" transform="translate(116,263)"/>
<path d="M0 0 C2.08818778 4.17637557 2.2526019 5.99845306 2.25878906 10.55688477 C2.26404602 11.53076645 2.26404602 11.53076645 2.26940918 12.52432251 C2.27818863 14.66346021 2.27239162 16.80226538 2.265625 18.94140625 C2.26697258 20.43065962 2.26891389 21.91991256 2.27142334 23.40916443 C2.27436932 26.52696938 2.27009331 29.64465958 2.26074219 32.76245117 C2.24933797 36.75962976 2.25591645 40.75654005 2.26788712 44.75370884 C2.27511149 47.82746912 2.27281531 50.90116571 2.26763153 53.9749279 C2.26629714 55.44893361 2.26793538 56.92294509 2.27259064 58.39694405 C2.27766653 60.45562206 2.26993159 62.51386423 2.25878906 64.57250977 C2.25719788 65.74403091 2.25560669 66.91555206 2.25396729 68.12257385 C2 71 2 71 0 74 C0 49.58 0 25.16 0 0 Z " fill="#EE0600" transform="translate(263,116)"/>
<path d="M0 0 C0.33 0 0.66 0 1 0 C1 24.09 1 48.18 1 73 C0.67 73 0.34 73 0 73 C0 48.91 0 24.82 0 0 Z " fill="#893F00" transform="translate(90,165)"/>
<path d="M0 0 C24.09 0 48.18 0 73 0 C73 0.33 73 0.66 73 1 C48.91 1 24.82 1 0 1 C0 0.67 0 0.34 0 0 Z " fill="#873F00" transform="translate(165,90)"/>
<path d="M0 0 C0.33 0 0.66 0 1 0 C1 17.49 1 34.98 1 53 C0.67 53 0.34 53 0 53 C0 35.51 0 18.02 0 0 Z " fill="#000000" transform="translate(154,150)"/>
<path d="M0 0 C1.3096875 -0.00515625 2.619375 -0.0103125 3.96875 -0.015625 C7.5 0.25 7.5 0.25 11.5 2.25 C3.91 2.25 -3.68 2.25 -11.5 2.25 C-7.13056007 0.06528003 -4.81866362 -0.01897112 0 0 Z " fill="#000000" transform="translate(177.5,126.75)"/>
<path d="M0 0 C0.33 0 0.66 0 1 0 C1 7.26 1 14.52 1 22 C0.67 22 0.34 22 0 22 C-0.86286752 18.27460372 -1.13474793 14.82118675 -1.125 11 C-1.12757813 9.989375 -1.13015625 8.97875 -1.1328125 7.9375 C-1.00826727 5.18285256 -0.62110865 2.68161197 0 0 Z " fill="#000000" transform="translate(140,166)"/>
<path d="M0 0 C6.93 0 13.86 0 21 0 C21 0.33 21 0.66 21 1 C13.93186891 2.44987304 7.06813109 2.44987304 0 1 C0 0.67 0 0.34 0 0 Z " fill="#000000" transform="translate(167,225)"/>
<path d="M0 0 C0.33 0 0.66 0 1 0 C1.33 6.93 1.66 13.86 2 21 C1.34 21.33 0.68 21.66 0 22 C0 14.74 0 7.48 0 0 Z " fill="#000000" transform="translate(165,150)"/>
<path d="M0 0 C0.33 0 0.66 0 1 0 C1 6.27 1 12.54 1 19 C0.67 19 0.34 19 0 19 C-1.59843905 12.60624381 -1.28130809 6.40654045 0 0 Z " fill="#000000" transform="translate(128,167)"/>
<path d="M0 0 C0.99 0.495 0.99 0.495 2 1 C1.67 6.94 1.34 12.88 1 19 C0.67 19 0.34 19 0 19 C0 12.73 0 6.46 0 0 Z " fill="#000000" transform="translate(165,184)"/>
<path d="M0 0 C0.33 0 0.66 0 1 0 C1 5.94 1 11.88 1 18 C0.67 18 0.34 18 0 18 C0 12.06 0 6.12 0 0 Z " fill="#000000" transform="translate(226,168)"/>
<path d="M0 0 C5.61 0 11.22 0 17 0 C17 0.33 17 0.66 17 1 C11.39 1 5.78 1 0 1 C0 0.67 0 0.34 0 0 Z " fill="#000000" transform="translate(169,139)"/>
<path d="M0 0 C0.66 0.33 1.32 0.66 2 1 C0.02 2.98 -1.96 4.96 -4 7 C-4.66 6.67 -5.32 6.34 -6 6 C-4.02 4.02 -2.04 2.04 0 0 Z " fill="#000000" transform="translate(193,157)"/>
<path d="M0 0 C4.29 0 8.58 0 13 0 C13 0.33 13 0.66 13 1 C8.71 1 4.42 1 0 1 C0 0.67 0 0.34 0 0 Z " fill="#000000" transform="translate(171,214)"/>
<path d="M0 0 C1.98 1.65 3.96 3.3 6 5 C3 5 3 5 1.3125 3.625 C0 2 0 2 0 0 Z " fill="#000000" transform="translate(140,208)"/>
<path d="M0 0 C0.66 0.33 1.32 0.66 2 1 C-0.97 3.475 -0.97 3.475 -4 6 C-2.84826645 3.53199953 -1.95216435 1.95216435 0 0 Z " fill="#000000" transform="translate(152,147)"/>
<path d="M0 0 C3.3 0 6.6 0 10 0 C10 0.33 10 0.66 10 1 C6.7 1 3.4 1 0 1 C0 0.67 0 0.34 0 0 Z " fill="#000000" transform="translate(188,148)"/>
<path d="M0 0 C2.97 0 5.94 0 9 0 C9 0.33 9 0.66 9 1 C6.03 1 3.06 1 0 1 C0 0.67 0 0.34 0 0 Z " fill="#000000" transform="translate(190,204)"/>
<path d="M0 0 C0.33 0 0.66 0 1 0 C0.67 2.64 0.34 5.28 0 8 C-0.98120464 4.94736336 -0.98120464 3.05263664 0 0 Z " fill="#000000" transform="translate(214,182)"/>
<path d="M0 0 C1.98 0.99 1.98 0.99 4 2 C4 2.99 4 3.98 4 5 C2.68 3.35 1.36 1.7 0 0 Z " fill="#000000" transform="translate(202,148)"/>
<path d="M0 0 C2.64 0 5.28 0 8 0 C8 0.33 8 0.66 8 1 C5.36 1 2.72 1 0 1 C0 0.67 0 0.34 0 0 Z " fill="#000000" transform="translate(156,204)"/>
<path d="M0 0 C1.0625 1.8125 1.0625 1.8125 2 4 C1.67 4.99 1.34 5.98 1 7 C0.67 4.69 0.34 2.38 0 0 Z " fill="#000000" transform="translate(129,186)"/>
<path d="M0 0 C0.33 0 0.66 0 1 0 C1 2.64 1 5.28 1 8 C0.67 8 0.34 8 0 8 C0 5.36 0 2.72 0 0 Z " fill="#000000" transform="translate(215,173)"/>
<path d="M0 0 C2.64 0 5.28 0 8 0 C8 0.33 8 0.66 8 1 C5.36 1 2.72 1 0 1 C0 0.67 0 0.34 0 0 Z " fill="#000000" transform="translate(156,148)"/>
<path d="M0 0 C0 0.99 0 1.98 0 3 C-0.99 3 -1.98 3 -3 3 C-2.01 2.01 -1.02 1.02 0 0 Z " fill="#A72100" transform="translate(255,344)"/>
<path d="M0 0 C0.625 1.875 0.625 1.875 1 4 C0.34 4.66 -0.32 5.32 -1 6 C-0.67 4.02 -0.34 2.04 0 0 Z " fill="#9F1A00" transform="translate(262,331)"/>
<path d="M0 0 C0 0.99 0 1.98 0 3 C-0.99 3 -1.98 3 -3 3 C-2.01 2.01 -1.02 1.02 0 0 Z " fill="#A41200" transform="translate(347,252)"/>
<path d="M0 0 C0.33 0 0.66 0 1 0 C1 2.31 1 4.62 1 7 C0.67 7 0.34 7 0 7 C0 4.69 0 2.38 0 0 Z " fill="#A13900" transform="translate(202,243)"/>
<path d="M0 0 C0.99 1.485 0.99 1.485 2 3 C1.67 3.99 1.34 4.98 1 6 C0.67 4.02 0.34 2.04 0 0 Z " fill="#B01900" transform="translate(91,238)"/>
<path d="M0 0 C2.31 0 4.62 0 7 0 C7 0.33 7 0.66 7 1 C4.69 1 2.38 1 0 1 C0 0.67 0 0.34 0 0 Z " fill="#8B2100" transform="translate(243,202)"/>
<path d="M0 0 C2.97 0.495 2.97 0.495 6 1 C5.01 1.33 4.02 1.66 3 2 C2.01 1.34 1.02 0.68 0 0 Z " fill="#D52B00" transform="translate(238,91)"/>
<path d="M0 0 C0.99 0.33 1.98 0.66 3 1 C1.35 1.33 -0.3 1.66 -2 2 C-1.34 1.34 -0.68 0.68 0 0 Z " fill="#000000" transform="translate(191,211)"/>
<path d="M0 0 C0.66 0.66 1.32 1.32 2 2 C1.67 2.99 1.34 3.98 1 5 C0.67 3.35 0.34 1.7 0 0 Z " fill="#000000" transform="translate(141,188)"/>
<path d="M0 0 C0.66 0.33 1.32 0.66 2 1 C0.68 1.33 -0.64 1.66 -2 2 C-1.34 1.34 -0.68 0.68 0 0 Z " fill="#881D00" transform="translate(192,261)"/>
<path d="M0 0 C0 0.99 0 1.98 0 3 C-0.66 2.67 -1.32 2.34 -2 2 C-1.34 1.34 -0.68 0.68 0 0 Z " fill="#EE1100" transform="translate(197,257)"/>
<path d="M0 0 C1.65 0 3.3 0 5 0 C5 0.33 5 0.66 5 1 C3.35 1 1.7 1 0 1 C0 0.67 0 0.34 0 0 Z " fill="#000000" transform="translate(184,213)"/>
<path d="M0 0 C1.65 0 3.3 0 5 0 C5 0.33 5 0.66 5 1 C3.35 1 1.7 1 0 1 C0 0.67 0 0.34 0 0 Z " fill="#000000" transform="translate(166,213)"/>
<path d="M0 0 C0 0.99 0 1.98 0 3 C-0.66 2.67 -1.32 2.34 -2 2 C-1.34 1.34 -0.68 0.68 0 0 Z " fill="#7F0C00" transform="translate(259,195)"/>
<path d="M0 0 C0.33 0.99 0.66 1.98 1 3 C0.01 3.495 0.01 3.495 -1 4 C-0.67 2.68 -0.34 1.36 0 0 Z " fill="#000000" transform="translate(222,195)"/>
<path d="M0 0 C0.33 0 0.66 0 1 0 C1 1.65 1 3.3 1 5 C0.67 5 0.34 5 0 5 C0 3.35 0 1.7 0 0 Z " fill="#000000" transform="translate(214,167)"/>
<path d="M0 0 C1.32 0.33 2.64 0.66 4 1 C3.01 1.495 3.01 1.495 2 2 C1.34 1.34 0.68 0.68 0 0 Z " fill="#000000" transform="translate(195,131)"/>
<path d="M0 0 C0.66 0.33 1.32 0.66 2 1 C0.68 1.33 -0.64 1.66 -2 2 C-1.34 1.34 -0.68 0.68 0 0 Z " fill="#992800" transform="translate(104,122)"/>
<path d="M0 0 C0.33 0.99 0.66 1.98 1 3 C0.01 3.495 0.01 3.495 -1 4 C-0.67 2.68 -0.34 1.36 0 0 Z " fill="#992800" transform="translate(123,102)"/>
<path d="M0 0 C0.99 0.495 0.99 0.495 2 1 C1.67 1.99 1.34 2.98 1 4 C0.67 2.68 0.34 1.36 0 0 Z " fill="#882A00" transform="translate(352,15)"/>
<path d="M0 0 C0.99 0.33 1.98 0.66 3 1 C1.68 1.33 0.36 1.66 -1 2 C-0.67 1.34 -0.34 0.68 0 0 Z " fill="#942A00" transform="translate(109,0)"/>
<path d="M0 0 C0.99 0.495 0.99 0.495 2 1 C1.67 1.66 1.34 2.32 1 3 C0.67 2.01 0.34 1.02 0 0 Z " fill="#9F1000" transform="translate(5,343)"/>
<path d="M0 0 C4 1 4 1 4 1 Z " fill="#B02200" transform="translate(331,262)"/>
<path d="M0 0 C1 4 1 4 1 4 Z " fill="#C93500" transform="translate(229,254)"/>
<path d="M0 0 C1 4 1 4 1 4 Z " fill="#902200" transform="translate(230,250)"/>
<path d="M0 0 C4 1 4 1 4 1 Z " fill="#902200" transform="translate(250,230)"/>
<path d="M0 0 C4 1 4 1 4 1 Z " fill="#C95500" transform="translate(254,229)"/>
<path d="M0 0 C4 1 4 1 4 1 Z " fill="#000000" transform="translate(188,224)"/>
<path d="M0 0 C4 1 4 1 4 1 Z " fill="#000000" transform="translate(163,224)"/>
<path d="M0 0 C0 3 0 3 0 3 Z " fill="#000000" transform="translate(208,198)"/>
<path d="M0 0 C0.99 0.495 0.99 0.495 2 1 C1.67 1.66 1.34 2.32 1 3 C0.67 2.01 0.34 1.02 0 0 Z " fill="#CF1000" transform="translate(232,194)"/>
<path d="M0 0 C0 3 0 3 0 3 Z " fill="#000000" transform="translate(210,195)"/>
<path d="M0 0 C0.99 0.495 0.99 0.495 2 1 C1.67 1.66 1.34 2.32 1 3 C0.67 2.01 0.34 1.02 0 0 Z " fill="#000000" transform="translate(181,192)"/>
<path d="M0 0 C1 4 1 4 1 4 Z " fill="#000000" transform="translate(225,186)"/>
<path d="M0 0 C1 4 1 4 1 4 Z " fill="#000000" transform="translate(225,164)"/>
<path d="M0 0 C1 4 1 4 1 4 Z " fill="#000000" transform="translate(129,163)"/>
<path d="M0 0 C0.99 0.495 0.99 0.495 2 1 C1.67 1.66 1.34 2.32 1 3 C0.67 2.01 0.34 1.02 0 0 Z " fill="#000000" transform="translate(219,151)"/>
<path d="M0 0 C4 1 4 1 4 1 Z " fill="#B03200" transform="translate(110,152)"/>
<path d="M0 0 C4 1 4 1 4 1 Z " fill="#9F2000" transform="translate(102,152)"/>
<path d="M0 0 C0.99 0.495 0.99 0.495 2 1 C1.67 1.66 1.34 2.32 1 3 C0.67 2.01 0.34 1.02 0 0 Z " fill="#000000" transform="translate(214,144)"/>
<path d="M0 0 C0 3 0 3 0 3 Z " fill="#000000" transform="translate(139,145)"/>
<path d="M0 0 C0.66 0.33 1.32 0.66 2 1 C1.01 1 0.02 1 -1 1 C-0.67 0.67 -0.34 0.34 0 0 Z " fill="#000000" transform="translate(156,144)"/>
<path d="M0 0 C0.99 0.33 1.98 0.66 3 1 C2.01 1 1.02 1 0 1 C0 0.67 0 0.34 0 0 Z " fill="#000000" transform="translate(195,143)"/>
<path d="M0 0 C4 1 4 1 4 1 Z " fill="#000000" transform="translate(186,140)"/>
<path d="M0 0 C4 1 4 1 4 1 Z " fill="#000000" transform="translate(165,140)"/>
<path d="M0 0 C0.99 0.33 1.98 0.66 3 1 C2.01 1 1.02 1 0 1 C0 0.67 0 0.34 0 0 Z " fill="#000000" transform="translate(203,135)"/>
<path d="M0 0 C0.66 0.33 1.32 0.66 2 1 C1.01 1 0.02 1 -1 1 C-0.67 0.67 -0.34 0.34 0 0 Z " fill="#000000" transform="translate(153,133)"/>
<path d="M0 0 C4 1 4 1 4 1 Z " fill="#000000" transform="translate(189,129)"/>
<path d="M0 0 C4 1 4 1 4 1 Z " fill="#000000" transform="translate(162,129)"/>
<path d="M0 0 C0.99 0.495 0.99 0.495 2 1 C1.67 1.66 1.34 2.32 1 3 C0.67 2.01 0.34 1.02 0 0 Z " fill="#7F1000" transform="translate(155,117)"/>
<path d="M0 0 C0 3 0 3 0 3 Z " fill="#8A2500" transform="translate(118,111)"/>
<path d="M0 0 C1 4 1 4 1 4 Z " fill="#A61C00" transform="translate(152,110)"/>
<path d="M0 0 C1 4 1 4 1 4 Z " fill="#BF0000" transform="translate(151,106)"/>
<path d="M0 0 C4 1 4 1 4 1 Z " fill="#BB3700" transform="translate(20,91)"/>
<path d="M0 0 C1 4 1 4 1 4 Z " fill="#BB3700" transform="translate(91,20)"/>
<path d="M0 0 C0.99 0.495 0.99 0.495 2 1 C1.67 1.66 1.34 2.32 1 3 C0.67 2.01 0.34 1.02 0 0 Z " fill="#CA1500" transform="translate(347,8)"/>
<path d="M0 0 C0.99 0.33 1.98 0.66 3 1 C2.01 1 1.02 1 0 1 C0 0.67 0 0.34 0 0 Z " fill="#8A1500" transform="translate(343,5)"/>
<path d="M0 0 C3 1 3 1 3 1 Z " fill="#882600" transform="translate(112,262)"/>
<path d="" fill="#A33100" transform="translate(0,0)"/>
<path d="" fill="#A33100" transform="translate(0,0)"/>
<path d="M0 0 C3 1 3 1 3 1 Z " fill="#000000" transform="translate(194,222)"/>
<path d="M0 0 C3 1 3 1 3 1 Z " fill="#000000" transform="translate(158,222)"/>
<path d="M0 0 C3 1 3 1 3 1 Z " fill="#000000" transform="translate(163,212)"/>
<path d="M0 0 C3 1 3 1 3 1 Z " fill="#952A00" transform="translate(250,201)"/>
<path d="M0 0 C3 1 3 1 3 1 Z " fill="#962D00" transform="translate(240,201)"/>
<path d="" fill="#000000" transform="translate(0,0)"/>
<path d="" fill="#6A1500" transform="translate(0,0)"/>
<path d="" fill="#000000" transform="translate(0,0)"/>
<path d="" fill="#000000" transform="translate(0,0)"/>
<path d="M0 0 C0.66 0 1.32 0 2 0 C1.67 0.66 1.34 1.32 1 2 C0.67 1.34 0.34 0.68 0 0 Z " fill="#000000" transform="translate(171,179)"/>
<path d="" fill="#000000" transform="translate(0,0)"/>
<path d="" fill="#000000" transform="translate(0,0)"/>
<path d="" fill="#881100" transform="translate(0,0)"/>
<path d="" fill="#000000" transform="translate(0,0)"/>
<path d="" fill="#000000" transform="translate(0,0)"/>
<path d="" fill="#000000" transform="translate(0,0)"/>
<path d="" fill="#000000" transform="translate(0,0)"/>
<path d="M0 0 C3 1 3 1 3 1 Z " fill="#AA0000" transform="translate(106,151)"/>
<path d="M0 0 C3 1 3 1 3 1 Z " fill="#000000" transform="translate(192,142)"/>
<path d="M0 0 C3 1 3 1 3 1 Z " fill="#000000" transform="translate(162,141)"/>
<path d="M0 0 C3 1 3 1 3 1 Z " fill="#000000" transform="translate(157,131)"/>
<path d="" fill="#BF2A00" transform="translate(0,0)"/>
<path d="" fill="#CD3100" transform="translate(0,0)"/>
<path d="" fill="#AA2A00" transform="translate(0,0)"/>
<path d="" fill="#A44900" transform="translate(0,0)"/>
<path d="M0 0 C3 1 3 1 3 1 Z " fill="#BF1500" transform="translate(162,91)"/>
<path d="M0 0 C2 1 2 1 2 1 Z " fill="#B44A00" transform="translate(243,353)"/>
<path d="M0 0 C2 1 2 1 2 1 Z " fill="#954A00" transform="translate(17,353)"/>
<path d="M0 0 C2 1 2 1 2 1 Z " fill="#BF2000" transform="translate(245,352)"/>
<path d="M0 0 C2 1 2 1 2 1 Z " fill="#952A00" transform="translate(15,352)"/>
<path d="M0 0 C2 1 2 1 2 1 Z " fill="#CC1900" transform="translate(247,351)"/>
<path d="M0 0 C2 1 2 1 2 1 Z " fill="#9F2000" transform="translate(13,351)"/>
<path d="M0 0 C2 1 2 1 2 1 Z " fill="#952A00" transform="translate(9,348)"/>
<path d="" fill="#D42A00" transform="translate(0,0)"/>
<path d="" fill="#CC1900" transform="translate(0,0)"/>
<path d="" fill="#8C1900" transform="translate(0,0)"/>
<path d="" fill="#AA5500" transform="translate(0,0)"/>
<path d="" fill="#B44A00" transform="translate(0,0)"/>
<path d="M0 0 C2 1 2 1 2 1 Z " fill="#CC1900" transform="translate(335,261)"/>
<path d="M0 0 C2 1 2 1 2 1 Z " fill="#DF6000" transform="translate(110,261)"/>
<path d="M0 0 C2 1 2 1 2 1 Z " fill="#CC1900" transform="translate(337,260)"/>
<path d="M0 0 C2 1 2 1 2 1 Z " fill="#B44A00" transform="translate(108,260)"/>
<path d="M0 0 C2 1 2 1 2 1 Z " fill="#DF2000" transform="translate(106,259)"/>
<path d="M0 0 C2 1 2 1 2 1 Z " fill="#D42A00" transform="translate(340,258)"/>
<path d="M0 0 C2 1 2 1 2 1 Z " fill="#800000" transform="translate(102,256)"/>
<path d="" fill="#DF2000" transform="translate(0,0)"/>
<path d="" fill="#952A00" transform="translate(0,0)"/>
<path d="" fill="#CC1900" transform="translate(0,0)"/>
<path d="" fill="#CC1900" transform="translate(0,0)"/>
<path d="" fill="#8C1900" transform="translate(0,0)"/>
<path d="" fill="#4C1900" transform="translate(0,0)"/>
<path d="" fill="#AA5500" transform="translate(0,0)"/>
<path d="" fill="#8C1900" transform="translate(0,0)"/>
<path d="" fill="#954A00" transform="translate(0,0)"/>
<path d="" fill="#802000" transform="translate(0,0)"/>
<path d="" fill="#802000" transform="translate(0,0)"/>
<path d="" fill="#D42A00" transform="translate(0,0)"/>
<path d="M0 0 C2 1 2 1 2 1 Z " fill="#952A00" transform="translate(243,234)"/>
<path d="M0 0 C2 1 2 1 2 1 Z " fill="#CC1900" transform="translate(246,232)"/>
<path d="M0 0 C2 1 2 1 2 1 Z " fill="#BF2000" transform="translate(194,232)"/>
<path d="M0 0 C2 1 2 1 2 1 Z " fill="#CC1900" transform="translate(248,231)"/>
<path d="M0 0 C2 1 2 1 2 1 Z " fill="#CC1900" transform="translate(191,230)"/>
<path d="M0 0 C2 1 2 1 2 1 Z " fill="#000000" transform="translate(192,223)"/>
<path d="M0 0 C2 1 2 1 2 1 Z " fill="#000000" transform="translate(161,223)"/>
<path d="M0 0 C2 1 2 1 2 1 Z " fill="#000000" transform="translate(197,221)"/>
<path d="M0 0 C2 1 2 1 2 1 Z " fill="#000000" transform="translate(156,221)"/>
<path d="M0 0 C2 1 2 1 2 1 Z " fill="#000000" transform="translate(199,220)"/>
<path d="M0 0 C2 1 2 1 2 1 Z " fill="#000000" transform="translate(154,220)"/>
<path d="M0 0 C2 1 2 1 2 1 Z " fill="#000000" transform="translate(202,218)"/>
<path d="M0 0 C2 1 2 1 2 1 Z " fill="#000000" transform="translate(151,218)"/>
<path d="M0 0 C2 1 2 1 2 1 Z " fill="#000000" transform="translate(205,216)"/>
<path d="M0 0 C2 1 2 1 2 1 Z " fill="#000000" transform="translate(148,216)"/>
<path d="M0 0 C2 1 2 1 2 1 Z " fill="#000000" transform="translate(161,211)"/>
<path d="M0 0 C2 1 2 1 2 1 Z " fill="#000000" transform="translate(194,210)"/>
<path d="M0 0 C2 1 2 1 2 1 Z " fill="#000000" transform="translate(159,210)"/>
<path d="M0 0 C2 1 2 1 2 1 Z " fill="#000000" transform="translate(196,209)"/>
<path d="M0 0 C2 1 2 1 2 1 Z " fill="#000000" transform="translate(157,209)"/>
<path d="M0 0 C2 1 2 1 2 1 Z " fill="#000000" transform="translate(199,207)"/>
<path d="M0 0 C2 1 2 1 2 1 Z " fill="#000000" transform="translate(154,207)"/>
<path d="" fill="#000000" transform="translate(0,0)"/>
<path d="" fill="#000000" transform="translate(0,0)"/>
<path d="" fill="#000000" transform="translate(0,0)"/>
<path d="" fill="#000000" transform="translate(0,0)"/>
<path d="" fill="#000000" transform="translate(0,0)"/>
<path d="M0 0 C2 1 2 1 2 1 Z " fill="#CC1900" transform="translate(253,200)"/>
<path d="M0 0 C2 1 2 1 2 1 Z " fill="#9F2000" transform="translate(238,200)"/>
<path d="" fill="#000000" transform="translate(0,0)"/>
<path d="" fill="#000000" transform="translate(0,0)"/>
<path d="" fill="#000000" transform="translate(0,0)"/>
<path d="" fill="#000000" transform="translate(0,0)"/>
<path d="" fill="#000000" transform="translate(0,0)"/>
<path d="M0 0 C2 1 2 1 2 1 Z " fill="#D42A00" transform="translate(235,198)"/>
<path d="" fill="#000000" transform="translate(0,0)"/>
<path d="" fill="#000000" transform="translate(0,0)"/>
<path d="" fill="#000000" transform="translate(0,0)"/>
<path d="" fill="#000000" transform="translate(0,0)"/>
<path d="" fill="#000000" transform="translate(0,0)"/>
<path d="" fill="#000000" transform="translate(0,0)"/>
<path d="" fill="#000000" transform="translate(0,0)"/>
<path d="" fill="#8C1900" transform="translate(0,0)"/>
<path d="" fill="#000000" transform="translate(0,0)"/>
<path d="" fill="#000000" transform="translate(0,0)"/>
<path d="" fill="#000000" transform="translate(0,0)"/>
<path d="" fill="#000000" transform="translate(0,0)"/>
<path d="" fill="#000000" transform="translate(0,0)"/>
<path d="" fill="#000000" transform="translate(0,0)"/>
<path d="" fill="#000000" transform="translate(0,0)"/>
<path d="" fill="#000000" transform="translate(0,0)"/>
<path d="" fill="#000000" transform="translate(0,0)"/>
<path d="" fill="#000000" transform="translate(0,0)"/>
<path d="" fill="#000000" transform="translate(0,0)"/>
<path d="" fill="#9F2000" transform="translate(0,0)"/>
<path d="" fill="#000000" transform="translate(0,0)"/>
<path d="" fill="#000000" transform="translate(0,0)"/>
<path d="" fill="#D42A00" transform="translate(0,0)"/>
<path d="" fill="#D42A00" transform="translate(0,0)"/>
<path d="" fill="#000000" transform="translate(0,0)"/>
<path d="" fill="#000000" transform="translate(0,0)"/>
<path d="" fill="#000000" transform="translate(0,0)"/>
<path d="" fill="#000000" transform="translate(0,0)"/>
<path d="" fill="#000000" transform="translate(0,0)"/>
<path d="" fill="#000000" transform="translate(0,0)"/>
<path d="" fill="#000000" transform="translate(0,0)"/>
<path d="" fill="#000000" transform="translate(0,0)"/>
<path d="M0 0 C2 1 2 1 2 1 Z " fill="#D42A00" transform="translate(117,155)"/>
<path d="M0 0 C2 1 2 1 2 1 Z " fill="#CC1900" transform="translate(98,154)"/>
<path d="" fill="#000000" transform="translate(0,0)"/>
<path d="M0 0 C2 1 2 1 2 1 Z " fill="#CC1900" transform="translate(114,153)"/>
<path d="M0 0 C2 1 2 1 2 1 Z " fill="#AA5500" transform="translate(100,153)"/>
<path d="" fill="#000000" transform="translate(0,0)"/>
<path d="" fill="#000000" transform="translate(0,0)"/>
<path d="" fill="#000000" transform="translate(0,0)"/>
<path d="M0 0 C2 1 2 1 2 1 Z " fill="#000000" transform="translate(198,145)"/>
<path d="M0 0 C2 1 2 1 2 1 Z " fill="#000000" transform="translate(158,143)"/>
<path d="M0 0 C2 1 2 1 2 1 Z " fill="#000000" transform="translate(160,142)"/>
<path d="M0 0 C2 1 2 1 2 1 Z " fill="#000000" transform="translate(190,141)"/>
<path d="M0 0 C2 1 2 1 2 1 Z " fill="#000000" transform="translate(208,139)"/>
<path d="M0 0 C2 1 2 1 2 1 Z " fill="#000000" transform="translate(146,138)"/>
<path d="M0 0 C2 1 2 1 2 1 Z " fill="#000000" transform="translate(150,135)"/>
<path d="M0 0 C2 1 2 1 2 1 Z " fill="#000000" transform="translate(201,134)"/>
<path d="M0 0 C2 1 2 1 2 1 Z " fill="#000000" transform="translate(199,133)"/>
<path d="M0 0 C2 1 2 1 2 1 Z " fill="#000000" transform="translate(155,132)"/>
<path d="M0 0 C2 1 2 1 2 1 Z " fill="#000000" transform="translate(193,130)"/>
<path d="M0 0 C2 1 2 1 2 1 Z " fill="#000000" transform="translate(160,130)"/>
<path d="M0 0 C2 1 2 1 2 1 Z " fill="#9F2000" transform="translate(161,123)"/>
<path d="M0 0 C2 1 2 1 2 1 Z " fill="#D42A00" transform="translate(158,121)"/>
<path d="M0 0 C2 1 2 1 2 1 Z " fill="#DF2000" transform="translate(106,121)"/>
<path d="M0 0 C2 1 2 1 2 1 Z " fill="#D42A00" transform="translate(108,120)"/>
<path d="M0 0 C2 1 2 1 2 1 Z " fill="#BF2000" transform="translate(111,118)"/>
<path d="" fill="#CC1900" transform="translate(0,0)"/>
<path d="" fill="#B44A00" transform="translate(0,0)"/>
<path d="" fill="#954A00" transform="translate(0,0)"/>
<path d="" fill="#FF4000" transform="translate(0,0)"/>
<path d="" fill="#DF2000" transform="translate(0,0)"/>
<path d="" fill="#D42A00" transform="translate(0,0)"/>
<path d="" fill="#952A00" transform="translate(0,0)"/>
<path d="" fill="#BF0000" transform="translate(0,0)"/>
<path d="" fill="#AA5500" transform="translate(0,0)"/>
<path d="" fill="#DF2000" transform="translate(0,0)"/>
<path d="M0 0 C2 1 2 1 2 1 Z " fill="#952A00" transform="translate(250,97)"/>
<path d="M0 0 C2 1 2 1 2 1 Z " fill="#DF2000" transform="translate(11,96)"/>
<path d="M0 0 C2 1 2 1 2 1 Z " fill="#4C1900" transform="translate(246,94)"/>
<path d="M0 0 C2 1 2 1 2 1 Z " fill="#DF2000" transform="translate(14,94)"/>
<path d="M0 0 C2 1 2 1 2 1 Z " fill="#8C1900" transform="translate(244,93)"/>
<path d="M0 0 C2 1 2 1 2 1 Z " fill="#952A00" transform="translate(159,93)"/>
<path d="M0 0 C2 1 2 1 2 1 Z " fill="#A14400" transform="translate(16,93)"/>
<path d="M0 0 C2 1 2 1 2 1 Z " fill="#8C1900" transform="translate(18,92)"/>
<path d="" fill="#8C1900" transform="translate(0,0)"/>
<path d="" fill="#B44A00" transform="translate(0,0)"/>
<path d="" fill="#DF2000" transform="translate(0,0)"/>
<path d="" fill="#9F2000" transform="translate(0,0)"/>
<path d="" fill="#DF2000" transform="translate(0,0)"/>
<path d="M0 0 C2 1 2 1 2 1 Z " fill="#952A00" transform="translate(103,4)"/>
<path d="M0 0 C2 1 2 1 2 1 Z " fill="#CC1900" transform="translate(339,2)"/>
<path d="M0 0 C2 1 2 1 2 1 Z " fill="#AA5500" transform="translate(106,2)"/>
<path d="M0 0 C2 1 2 1 2 1 Z " fill="#9F2000" transform="translate(337,1)"/>
<path d="M0 0 C2 1 2 1 2 1 Z " fill="#B44A00" transform="translate(335,0)"/>
<path d="" fill="#AA5500" transform="translate(0,0)"/>
<path d="" fill="#BF4000" transform="translate(0,0)"/>
<path d="" fill="#993300" transform="translate(0,0)"/>
<path d="" fill="#993300" transform="translate(0,0)"/>
<path d="" fill="#993300" transform="translate(0,0)"/>
<path d="" fill="#800000" transform="translate(0,0)"/>
<path d="" fill="#FF0000" transform="translate(0,0)"/>
<path d="" fill="#993300" transform="translate(0,0)"/>
<path d="" fill="#BF4000" transform="translate(0,0)"/>
<path d="" fill="#993300" transform="translate(0,0)"/>
<path d="" fill="#804000" transform="translate(0,0)"/>
<path d="" fill="#BF4000" transform="translate(0,0)"/>
<path d="" fill="#993300" transform="translate(0,0)"/>
<path d="" fill="#BF4000" transform="translate(0,0)"/>
<path d="" fill="#BF4000" transform="translate(0,0)"/>
<path d="" fill="#993300" transform="translate(0,0)"/>
<path d="" fill="#993300" transform="translate(0,0)"/>
<path d="" fill="#993300" transform="translate(0,0)"/>
<path d="" fill="#BF4000" transform="translate(0,0)"/>
<path d="" fill="#BF4000" transform="translate(0,0)"/>
<path d="" fill="#AA5500" transform="translate(0,0)"/>
<path d="" fill="#804000" transform="translate(0,0)"/>
<path d="" fill="#804000" transform="translate(0,0)"/>
<path d="" fill="#AA5500" transform="translate(0,0)"/>
<path d="" fill="#993300" transform="translate(0,0)"/>
<path d="" fill="#993300" transform="translate(0,0)"/>
<path d="" fill="#AA5500" transform="translate(0,0)"/>
<path d="" fill="#993300" transform="translate(0,0)"/>
<path d="" fill="#804000" transform="translate(0,0)"/>
<path d="" fill="#BF4000" transform="translate(0,0)"/>
<path d="" fill="#804000" transform="translate(0,0)"/>
<path d="" fill="#993300" transform="translate(0,0)"/>
<path d="" fill="#993300" transform="translate(0,0)"/>
<path d="" fill="#BF4000" transform="translate(0,0)"/>
<path d="" fill="#804000" transform="translate(0,0)"/>
<path d="" fill="#993300" transform="translate(0,0)"/>
<path d="" fill="#993300" transform="translate(0,0)"/>
<path d="" fill="#993300" transform="translate(0,0)"/>
<path d="" fill="#BF4000" transform="translate(0,0)"/>
<path d="" fill="#800000" transform="translate(0,0)"/>
<path d="" fill="#BF4000" transform="translate(0,0)"/>
<path d="" fill="#800000" transform="translate(0,0)"/>
<path d="" fill="#BF4000" transform="translate(0,0)"/>
<path d="" fill="#000000" transform="translate(0,0)"/>
<path d="" fill="#000000" transform="translate(0,0)"/>
<path d="" fill="#000000" transform="translate(0,0)"/>
<path d="" fill="#000000" transform="translate(0,0)"/>
<path d="" fill="#000000" transform="translate(0,0)"/>
<path d="" fill="#000000" transform="translate(0,0)"/>
<path d="" fill="#000000" transform="translate(0,0)"/>
<path d="" fill="#000000" transform="translate(0,0)"/>
<path d="" fill="#000000" transform="translate(0,0)"/>
<path d="" fill="#000000" transform="translate(0,0)"/>
<path d="" fill="#000000" transform="translate(0,0)"/>
<path d="" fill="#000000" transform="translate(0,0)"/>
<path d="" fill="#000000" transform="translate(0,0)"/>
<path d="" fill="#000000" transform="translate(0,0)"/>
<path d="" fill="#000000" transform="translate(0,0)"/>
<path d="" fill="#000000" transform="translate(0,0)"/>
<path d="" fill="#000000" transform="translate(0,0)"/>
<path d="" fill="#000000" transform="translate(0,0)"/>
<path d="" fill="#000000" transform="translate(0,0)"/>
<path d="" fill="#000000" transform="translate(0,0)"/>
<path d="" fill="#000000" transform="translate(0,0)"/>
<path d="" fill="#000000" transform="translate(0,0)"/>
<path d="" fill="#000000" transform="translate(0,0)"/>
<path d="" fill="#000000" transform="translate(0,0)"/>
<path d="" fill="#000000" transform="translate(0,0)"/>
<path d="" fill="#000000" transform="translate(0,0)"/>
<path d="" fill="#000000" transform="translate(0,0)"/>
<path d="" fill="#000000" transform="translate(0,0)"/>
<path d="" fill="#000000" transform="translate(0,0)"/>
<path d="" fill="#000000" transform="translate(0,0)"/>
<path d="" fill="#000000" transform="translate(0,0)"/>
<path d="" fill="#000000" transform="translate(0,0)"/>
<path d="" fill="#000000" transform="translate(0,0)"/>
<path d="" fill="#000000" transform="translate(0,0)"/>
<path d="" fill="#000000" transform="translate(0,0)"/>
<path d="" fill="#000000" transform="translate(0,0)"/>
<path d="" fill="#000000" transform="translate(0,0)"/>
<path d="" fill="#000000" transform="translate(0,0)"/>
<path d="" fill="#000000" transform="translate(0,0)"/>
<path d="" fill="#000000" transform="translate(0,0)"/>
<path d="" fill="#000000" transform="translate(0,0)"/>
<path d="" fill="#000000" transform="translate(0,0)"/>
<path d="" fill="#000000" transform="translate(0,0)"/>
<path d="" fill="#BF4000" transform="translate(0,0)"/>
<path d="" fill="#993300" transform="translate(0,0)"/>
<path d="" fill="#804000" transform="translate(0,0)"/>
<path d="" fill="#000000" transform="translate(0,0)"/>
<path d="" fill="#800000" transform="translate(0,0)"/>
<path d="" fill="#000000" transform="translate(0,0)"/>
<path d="" fill="#000000" transform="translate(0,0)"/>
<path d="" fill="#000000" transform="translate(0,0)"/>
<path d="" fill="#000000" transform="translate(0,0)"/>
<path d="" fill="#993300" transform="translate(0,0)"/>
<path d="" fill="#AA5500" transform="translate(0,0)"/>
<path d="" fill="#BF4000" transform="translate(0,0)"/>
<path d="" fill="#000000" transform="translate(0,0)"/>
<path d="" fill="#000000" transform="translate(0,0)"/>
<path d="" fill="#000000" transform="translate(0,0)"/>
<path d="" fill="#000000" transform="translate(0,0)"/>
<path d="" fill="#000000" transform="translate(0,0)"/>
<path d="" fill="#000000" transform="translate(0,0)"/>
<path d="" fill="#000000" transform="translate(0,0)"/>
<path d="" fill="#000000" transform="translate(0,0)"/>
<path d="" fill="#000000" transform="translate(0,0)"/>
<path d="" fill="#000000" transform="translate(0,0)"/>
<path d="" fill="#000000" transform="translate(0,0)"/>
<path d="" fill="#000000" transform="translate(0,0)"/>
<path d="" fill="#000000" transform="translate(0,0)"/>
<path d="" fill="#000000" transform="translate(0,0)"/>
<path d="" fill="#000000" transform="translate(0,0)"/>
<path d="" fill="#000000" transform="translate(0,0)"/>
<path d="" fill="#000000" transform="translate(0,0)"/>
<path d="" fill="#000000" transform="translate(0,0)"/>
<path d="" fill="#000000" transform="translate(0,0)"/>
<path d="" fill="#000000" transform="translate(0,0)"/>
<path d="" fill="#000000" transform="translate(0,0)"/>
<path d="" fill="#000000" transform="translate(0,0)"/>
<path d="" fill="#000000" transform="translate(0,0)"/>
<path d="" fill="#000000" transform="translate(0,0)"/>
<path d="" fill="#000000" transform="translate(0,0)"/>
<path d="" fill="#000000" transform="translate(0,0)"/>
<path d="" fill="#000000" transform="translate(0,0)"/>
<path d="" fill="#000000" transform="translate(0,0)"/>
<path d="" fill="#000000" transform="translate(0,0)"/>
<path d="" fill="#000000" transform="translate(0,0)"/>
<path d="" fill="#000000" transform="translate(0,0)"/>
<path d="" fill="#000000" transform="translate(0,0)"/>
<path d="" fill="#000000" transform="translate(0,0)"/>
<path d="" fill="#000000" transform="translate(0,0)"/>
<path d="" fill="#000000" transform="translate(0,0)"/>
<path d="" fill="#000000" transform="translate(0,0)"/>
<path d="" fill="#BF4000" transform="translate(0,0)"/>
<path d="" fill="#000000" transform="translate(0,0)"/>
<path d="" fill="#BF4000" transform="translate(0,0)"/>
<path d="" fill="#000000" transform="translate(0,0)"/>
<path d="" fill="#000000" transform="translate(0,0)"/>
<path d="" fill="#BF4000" transform="translate(0,0)"/>
<path d="" fill="#000000" transform="translate(0,0)"/>
<path d="" fill="#800000" transform="translate(0,0)"/>
<path d="" fill="#993300" transform="translate(0,0)"/>
<path d="" fill="#000000" transform="translate(0,0)"/>
<path d="" fill="#000000" transform="translate(0,0)"/>
<path d="" fill="#000000" transform="translate(0,0)"/>
<path d="" fill="#800000" transform="translate(0,0)"/>
<path d="" fill="#BF4000" transform="translate(0,0)"/>
<path d="" fill="#000000" transform="translate(0,0)"/>
<path d="" fill="#000000" transform="translate(0,0)"/>
<path d="" fill="#AA5500" transform="translate(0,0)"/>
<path d="" fill="#000000" transform="translate(0,0)"/>
<path d="" fill="#000000" transform="translate(0,0)"/>
<path d="" fill="#000000" transform="translate(0,0)"/>
<path d="" fill="#BF4000" transform="translate(0,0)"/>
<path d="" fill="#000000" transform="translate(0,0)"/>
<path d="" fill="#000000" transform="translate(0,0)"/>
<path d="" fill="#000000" transform="translate(0,0)"/>
<path d="" fill="#000000" transform="translate(0,0)"/>
<path d="" fill="#000000" transform="translate(0,0)"/>
<path d="" fill="#000000" transform="translate(0,0)"/>
<path d="" fill="#000000" transform="translate(0,0)"/>
<path d="" fill="#000000" transform="translate(0,0)"/>
<path d="" fill="#000000" transform="translate(0,0)"/>
<path d="" fill="#000000" transform="translate(0,0)"/>
<path d="" fill="#000000" transform="translate(0,0)"/>
<path d="" fill="#000000" transform="translate(0,0)"/>
<path d="" fill="#000000" transform="translate(0,0)"/>
<path d="" fill="#000000" transform="translate(0,0)"/>
<path d="" fill="#000000" transform="translate(0,0)"/>
<path d="" fill="#000000" transform="translate(0,0)"/>
<path d="" fill="#000000" transform="translate(0,0)"/>
<path d="" fill="#000000" transform="translate(0,0)"/>
<path d="" fill="#000000" transform="translate(0,0)"/>
<path d="" fill="#000000" transform="translate(0,0)"/>
<path d="" fill="#000000" transform="translate(0,0)"/>
<path d="" fill="#000000" transform="translate(0,0)"/>
<path d="" fill="#000000" transform="translate(0,0)"/>
<path d="" fill="#000000" transform="translate(0,0)"/>
<path d="" fill="#000000" transform="translate(0,0)"/>
<path d="" fill="#000000" transform="translate(0,0)"/>
<path d="" fill="#000000" transform="translate(0,0)"/>
<path d="" fill="#000000" transform="translate(0,0)"/>
<path d="" fill="#000000" transform="translate(0,0)"/>
<path d="" fill="#000000" transform="translate(0,0)"/>
<path d="" fill="#000000" transform="translate(0,0)"/>
<path d="" fill="#000000" transform="translate(0,0)"/>
<path d="" fill="#000000" transform="translate(0,0)"/>
<path d="" fill="#993300" transform="translate(0,0)"/>
<path d="" fill="#800000" transform="translate(0,0)"/>
<path d="" fill="#993300" transform="translate(0,0)"/>
<path d="" fill="#AA5500" transform="translate(0,0)"/>
<path d="" fill="#BF4000" transform="translate(0,0)"/>
<path d="" fill="#804000" transform="translate(0,0)"/>
<path d="" fill="#BF4000" transform="translate(0,0)"/>
<path d="" fill="#AA5500" transform="translate(0,0)"/>
<path d="" fill="#993300" transform="translate(0,0)"/>
<path d="" fill="#BF4000" transform="translate(0,0)"/>
<path d="" fill="#BF4000" transform="translate(0,0)"/>
<path d="" fill="#BF4000" transform="translate(0,0)"/>
<path d="" fill="#993300" transform="translate(0,0)"/>
<path d="" fill="#993300" transform="translate(0,0)"/>
<path d="" fill="#AA5500" transform="translate(0,0)"/>
<path d="" fill="#AA5500" transform="translate(0,0)"/>
<path d="" fill="#993300" transform="translate(0,0)"/>
<path d="" fill="#804000" transform="translate(0,0)"/>
<path d="" fill="#993300" transform="translate(0,0)"/>
<path d="" fill="#804000" transform="translate(0,0)"/>
<path d="" fill="#993300" transform="translate(0,0)"/>
<path d="" fill="#AA5500" transform="translate(0,0)"/>
<path d="" fill="#BF4000" transform="translate(0,0)"/>
<path d="" fill="#AA5500" transform="translate(0,0)"/>
<path d="" fill="#AA5500" transform="translate(0,0)"/>
<path d="" fill="#993300" transform="translate(0,0)"/>
<path d="" fill="#993300" transform="translate(0,0)"/>
<path d="" fill="#804000" transform="translate(0,0)"/>
<path d="" fill="#993300" transform="translate(0,0)"/>
<path d="" fill="#993300" transform="translate(0,0)"/>
<path d="" fill="#804000" transform="translate(0,0)"/>
<path d="" fill="#993300" transform="translate(0,0)"/>
<path d="" fill="#993300" transform="translate(0,0)"/>
<path d="" fill="#BF4000" transform="translate(0,0)"/>
<path d="" fill="#993300" transform="translate(0,0)"/>
<path d="" fill="#AA5500" transform="translate(0,0)"/>
<path d="" fill="#BF4000" transform="translate(0,0)"/>
<path d="" fill="#993300" transform="translate(0,0)"/>
<path d="" fill="#FF8000" transform="translate(0,0)"/>
<path d="" fill="#993300" transform="translate(0,0)"/>
<path d="" fill="#993300" transform="translate(0,0)"/>
<path d="" fill="#804000" transform="translate(0,0)"/>
<path d="" fill="#993300" transform="translate(0,0)"/>
<path d="" fill="#804000" transform="translate(0,0)"/>
<path d="" fill="#993300" transform="translate(0,0)"/>
</svg>
