<svg version="1.1" id="Layer_1" xmlns="http://www.w3.org/2000/svg" xmlns:xlink="http://www.w3.org/1999/xlink" x="0px" y="0px"
	 width="100%" viewBox="0 0 200 72" enable-background="new 0 0 200 72" xml:space="preserve">
<path fill="#F7FAFB" opacity="1.000000" stroke="none" 
	d="
M201.000000,50.000000 
	C201.000000,57.632629 201.000000,65.265259 201.000000,73.000000 
	C175.979187,73.000000 150.958252,73.000000 125.637268,72.662781 
	C125.645729,70.863655 125.954231,69.401749 126.550140,68.128036 
	C128.930328,67.589996 131.023102,66.863762 133.115891,66.137520 
	C133.270157,65.667603 133.424423,65.197685 133.578690,64.727768 
	C132.157715,63.833992 130.736755,62.940208 129.315781,62.046432 
	C128.305603,64.009697 127.295433,65.972969 125.899422,67.985962 
	C125.256699,68.071312 124.999817,68.106926 124.374992,68.108246 
	C122.963806,67.368874 121.920555,66.663795 120.943634,65.622253 
	C120.701286,64.541191 120.392609,63.796600 119.795502,63.162590 
	C119.051666,64.154861 118.596268,65.036552 118.097603,65.589096 
	C117.730774,64.495720 117.407196,63.731491 116.869644,62.671852 
	C115.329918,62.593548 114.004166,62.810654 112.475494,63.284882 
	C112.204292,64.410202 112.136032,65.278397 112.040894,66.480576 
	C112.307945,67.561928 112.601868,68.309303 113.043381,69.330849 
	C114.729927,69.686714 116.268898,69.768402 118.098114,69.898956 
	C118.583694,69.966667 118.779022,69.985512 118.938309,70.335464 
	C119.268188,71.444389 119.634094,72.222191 120.000000,73.000000 
	C93.312439,73.000000 66.624878,73.000000 39.474983,72.619675 
	C39.745262,69.951660 40.477879,67.663979 40.903534,66.334824 
	C39.190804,64.744164 38.121670,63.751236 36.829346,62.493057 
	C35.569901,61.129864 34.533638,60.031925 33.571766,59.012802 
	C32.107281,61.179131 30.829895,63.068691 29.656267,64.621002 
	C28.706133,61.708412 26.572575,61.563015 24.180056,63.923843 
	C23.692547,63.961044 23.413437,63.975426 22.877213,63.645775 
	C20.106268,63.223583 17.591578,63.128689 14.739254,63.001232 
	C12.620292,62.968655 10.838964,62.968639 8.871651,62.727539 
	C8.113209,62.321140 7.540752,62.155827 7.020433,61.612114 
	C5.387473,61.157036 3.702374,61.080364 1.762955,61.003052 
	C1.339090,61.001614 1.169545,61.000805 1.000000,61.000000 
	C1.000000,57.638714 1.000000,54.277424 1.448424,50.566643 
	C4.460544,50.217148 7.024239,50.217148 9.891695,50.217148 
	C9.891695,47.083389 9.770743,44.621273 9.916433,42.175034 
	C10.237091,36.790981 10.692395,31.414949 11.415291,25.824944 
	C16.289448,22.429787 19.953926,23.574894 22.692387,29.517963 
	C22.633480,36.653610 22.633480,43.327118 22.633480,49.931129 
	C29.673882,50.417530 29.673882,50.417530 31.001419,47.558811 
	C31.064354,40.606606 31.143518,34.113403 30.986732,27.625902 
	C30.840624,21.580236 26.465261,17.152470 20.150213,16.681553 
	C16.808708,16.432375 13.433331,16.637453 9.869157,16.637453 
	C9.869157,14.278088 9.858280,11.799212 9.871806,9.320468 
	C9.890288,5.933656 9.428058,2.779120 6.000000,1.000000 
	C28.354227,1.000000 50.708454,1.000000 73.489639,1.467133 
	C73.916588,17.972878 73.916588,34.011486 73.916588,50.130440 
	C77.098793,50.130440 79.682961,50.130440 82.781639,50.130440 
	C82.781639,36.774788 83.025932,23.688320 82.608879,10.622961 
	C82.505363,7.380212 80.260544,4.205816 79.000000,1.000000 
	C116.354225,1.000000 153.708450,1.000000 191.592834,1.465260 
	C192.123001,17.921654 192.123001,33.912788 192.123001,50.000000 
	C195.457138,50.000000 198.228577,50.000000 201.000000,50.000000 
M40.958332,46.672623 
	C41.281780,46.846714 41.605225,47.020802 42.132313,47.624340 
	C42.355667,47.878231 42.636391,48.008400 43.373344,48.560287 
	C45.258419,49.260242 47.143497,49.960194 49.507721,50.849148 
	C49.677776,50.825489 49.847828,50.801830 50.494770,50.955368 
	C50.661900,50.926373 50.829025,50.897381 51.821693,51.039894 
	C58.007061,51.158089 62.915394,48.878437 66.714844,42.918259 
	C69.529037,37.255524 70.844200,31.559851 67.120728,25.364462 
	C67.120728,25.364462 66.968651,25.005938 67.068298,24.457684 
	C66.836533,24.186581 66.604767,23.915480 66.412445,23.599098 
	C66.412445,23.599098 66.423370,23.540051 66.248985,22.956718 
	C65.558487,22.236393 64.867981,21.516068 64.031647,20.966763 
	C64.031647,20.966763 64.203598,20.822025 63.951694,20.221725 
	C62.722485,19.380125 61.493279,18.538523 60.104565,17.682461 
	C60.104565,17.682461 60.256577,17.723694 59.803864,17.143770 
	C51.022537,13.550092 43.665249,15.529185 38.950546,22.993252 
	C38.950546,22.993252 38.782864,22.784021 38.281803,23.099190 
	C38.045021,23.636087 37.808239,24.172983 37.579933,24.923632 
	C37.579933,24.923632 37.611813,24.712179 37.093651,25.225449 
	C34.331413,31.842703 34.305050,38.191181 38.991703,44.016373 
	C38.991703,44.016373 38.915051,44.036324 39.040020,44.567154 
	C39.326504,44.771568 39.612991,44.975979 39.916466,45.081432 
	C39.916466,45.081432 39.817726,45.099655 39.986111,45.619724 
	C40.275829,45.823650 40.565548,46.027576 40.883923,46.119469 
	C40.883923,46.119469 40.770313,46.141029 40.958332,46.672623 
M153.191666,13.901986 
	C153.066345,14.239436 152.941040,14.576886 152.914963,14.945744 
	C152.914963,14.945744 152.868118,14.852789 152.305801,15.317598 
	C151.880997,17.228376 151.456207,19.139156 150.294876,20.805017 
	C149.540314,20.938463 148.785751,21.071907 147.459351,21.179943 
	C146.971634,21.454124 146.483917,21.728306 145.307968,22.070673 
	C138.976898,26.631720 137.561630,30.463696 139.654099,37.140583 
	C139.654099,37.140583 139.619110,37.216946 139.650375,37.873386 
	C140.086670,38.601006 140.522964,39.328625 141.002792,40.007160 
	C141.002792,40.007160 140.943146,40.034142 141.032913,40.675453 
	C141.963196,41.518803 142.893478,42.362152 143.920990,43.123062 
	C143.920990,43.123062 143.794266,43.136742 143.975403,43.665440 
	C144.302582,43.811646 144.629745,43.957851 145.360458,44.517876 
	C145.912399,44.660702 146.464340,44.803532 147.559235,45.393627 
	C148.708801,45.580196 149.858368,45.766766 151.013000,46.719807 
	C152.882629,54.589142 157.688187,58.838932 164.209457,58.390049 
	C171.097092,57.915951 175.268250,53.506775 176.726364,45.960629 
	C184.408722,44.266171 186.962936,41.748940 187.996002,34.209663 
	C187.695297,32.461906 187.394592,30.714153 187.022064,28.282282 
	C186.362717,27.166809 185.703354,26.051336 185.002457,24.992891 
	C185.002457,24.992891 185.069016,24.969490 184.898224,24.477392 
	C184.603882,24.312460 184.309525,24.147528 184.000000,24.000000 
	C184.000000,24.000000 184.014786,23.981882 183.735916,23.440838 
	C183.170242,23.245165 182.604584,23.049492 181.847382,22.408489 
	C181.619202,22.109665 181.328156,22.023726 180.515793,21.972303 
	C180.515793,21.972303 180.029434,21.898344 179.714691,21.390223 
	C179.139740,21.301390 178.564804,21.212557 177.427429,20.869478 
	C177.051483,20.724422 176.675537,20.579367 176.150299,19.752657 
	C175.512100,18.095570 174.873917,16.438482 174.181274,14.891826 
	C174.181274,14.891826 174.296295,14.847885 174.213211,14.230006 
	C173.827713,13.772862 173.442215,13.315719 172.871246,12.326293 
	C172.299072,11.863028 171.726898,11.399763 170.835602,10.396214 
	C170.265244,10.171587 169.694870,9.946959 169.088211,9.822057 
	C169.088211,9.822057 169.190140,9.792492 168.739044,9.220762 
	C167.794083,9.016493 166.849106,8.812224 165.706940,8.597242 
	C165.706940,8.597242 165.632080,8.780005 165.237564,8.315996 
	C164.842270,8.307017 164.446976,8.298038 163.411652,8.131675 
	C162.574295,8.299587 161.736954,8.467500 160.208267,8.654832 
	C159.414093,9.044304 158.619904,9.433776 157.948181,9.879909 
	C157.948181,9.879909 157.871872,9.768638 157.329971,9.849339 
	C157.109375,10.119699 156.888779,10.390059 156.712601,10.599609 
	C156.712601,10.599609 156.639771,10.618750 156.156143,10.728742 
	C155.826782,10.884771 155.646790,11.144311 155.567932,11.585419 
	C155.567932,11.585419 155.479095,11.608318 155.033508,11.755939 
	C154.755569,11.951526 154.610825,12.219216 154.672913,12.672530 
	C154.672913,12.672530 154.546143,12.625171 154.064590,12.803510 
	C153.922882,13.105930 153.781158,13.408351 153.753647,13.896934 
	C153.753647,13.896934 153.700211,13.685177 153.191666,13.901986 
M106.457741,69.581505 
	C106.644272,67.836609 106.830795,66.091705 107.264412,63.463432 
	C105.715912,62.296028 104.212624,61.391121 104.158844,64.508926 
	C104.133224,65.994324 104.306129,67.483131 104.411118,69.480766 
	C104.889778,69.613647 105.368439,69.746529 106.457741,69.581505 
M75.748367,66.306587 
	C75.178192,65.568565 74.608009,64.830544 73.984879,63.493473 
	C73.678658,63.007069 73.372429,62.520660 72.443954,62.021744 
	C72.237083,62.037354 72.030205,62.052963 71.177208,62.094349 
	C70.707710,62.717503 70.238213,63.340660 69.387787,63.973389 
	C69.387787,63.973389 69.006989,63.987286 68.611603,63.955360 
	C68.611603,63.955360 68.217262,63.912415 68.017754,63.451511 
	C67.766670,63.244205 67.515579,63.036900 66.776848,62.308029 
	C65.604218,62.244095 64.431595,62.180157 62.608517,62.088886 
	C62.070847,62.391430 61.533173,62.693974 60.363586,62.740353 
	C58.938839,61.749908 57.577015,60.635380 56.044159,59.858139 
	C55.670933,59.668896 54.735695,60.588032 53.446472,61.070641 
	C53.114029,61.480476 52.781590,61.890312 52.449146,62.300148 
	C52.983349,62.532104 53.517548,62.764061 54.169254,63.821163 
	C54.274891,65.820305 54.380524,67.819450 54.486156,69.818588 
	C54.883175,69.848976 55.280193,69.879356 55.677208,69.909737 
	C56.113773,68.943108 56.550339,67.976479 57.803097,67.001961 
	C59.162861,66.994003 60.522629,66.986053 62.016953,67.608688 
	C62.691792,68.325783 63.366634,69.042877 64.608902,69.907600 
	C65.703529,69.916115 66.798157,69.924629 68.661293,69.962517 
	C69.173584,69.937851 69.685867,69.913185 70.773079,69.880913 
	C71.228302,69.587143 71.683525,69.293373 72.554276,68.999687 
	C72.554276,68.999687 72.970329,68.999413 73.233826,69.423470 
	C73.453163,69.699837 73.738228,69.857033 74.810150,69.910088 
	C75.095116,68.917908 75.380081,67.925728 75.748367,66.306587 
M151.445068,63.010078 
	C151.445068,63.010078 151.010635,62.967125 150.656479,62.345364 
	C149.188934,63.175419 146.489227,64.038094 146.510147,64.828751 
	C146.553833,66.479149 148.034409,68.091522 149.450653,69.965797 
	C150.229721,69.939529 151.008804,69.913269 152.346359,69.783722 
	C152.855026,69.530334 153.363678,69.276955 154.330200,69.599838 
	C155.366516,67.850143 156.402817,66.100449 157.643967,64.004898 
	C158.045761,66.043648 158.389084,67.785767 158.732422,69.527885 
	C159.275650,69.503365 159.818878,69.478844 160.362122,69.454323 
	C160.240128,67.387009 160.872253,64.583153 159.779327,63.464161 
	C158.733109,62.392990 155.894501,63.072460 153.188629,62.997055 
	C152.752304,63.015266 152.315964,63.033474 151.445068,63.010078 
M101.269775,62.947739 
	C100.221390,63.648460 99.172997,64.349182 97.507500,65.243690 
	C97.617424,66.155663 97.727341,67.067642 97.870110,68.564262 
	C99.530418,68.440918 101.190735,68.317574 103.034454,67.394760 
	C102.686241,65.932808 102.338028,64.470856 101.269775,62.947739 
M98.552071,18.797022 
	C98.135750,18.431400 97.719429,18.065777 96.795593,17.134142 
	C94.953239,16.806131 93.110893,16.478123 91.099655,16.120045 
	C91.099655,27.811623 91.099655,38.841862 91.099655,49.892708 
	C93.945961,49.892708 96.490814,49.892708 98.656677,49.892708 
	C98.656677,39.486492 98.656677,29.421476 98.552071,18.797022 
M119.981636,36.499855 
	C121.288635,36.744057 122.727463,36.727722 123.866417,37.304028 
	C125.060982,37.908466 125.967964,39.081287 127.000626,40.005711 
	C125.820236,40.983749 124.651978,42.757030 123.456940,42.775261 
	C120.922729,42.813919 118.234612,42.291901 115.864708,41.354683 
	C112.251144,39.925629 109.041489,39.312031 106.202110,42.625626 
	C110.961456,52.111538 127.165245,54.434483 133.232040,46.118877 
	C135.018692,43.669941 134.947403,39.046211 134.215286,35.755634 
	C132.843582,29.590494 126.710083,30.376194 122.143875,29.022245 
	C119.669975,28.288698 117.204048,27.528305 114.734520,26.780020 
	C114.843811,26.211136 114.953094,25.642254 115.062378,25.073370 
	C118.349876,23.204521 121.425827,21.887297 125.517448,24.585730 
	C126.706314,25.369793 129.613007,23.549110 131.732254,22.922449 
	C131.098480,21.339104 130.921310,19.126127 129.753494,18.279182 
	C124.080353,14.164891 117.703590,15.642647 111.849396,17.509212 
	C107.891266,18.771229 105.744034,22.527950 106.105217,27.073111 
	C106.462502,31.569227 109.534958,33.697083 113.356552,34.982334 
	C115.233200,35.613476 117.231911,35.881660 119.981636,36.499855 
M97.753685,11.287780 
	C97.807953,9.111299 98.266479,6.816463 97.683853,4.826444 
	C97.495438,4.182859 94.176659,3.650607 93.014275,4.321890 
	C91.832375,5.004445 90.676460,8.340291 91.008873,8.600831 
	C92.774353,9.984587 95.011345,10.766757 97.753685,11.287780 
M52.431648,68.383270 
	C50.718372,65.966324 49.005096,63.549385 47.289314,61.134422 
	C45.693493,67.488609 46.376835,68.634941 52.431648,68.383270 
M108.605873,65.791054 
	C108.729416,67.082970 108.852951,68.374878 108.976486,69.666794 
	C109.554245,69.592064 110.132004,69.517342 110.709763,69.442612 
	C110.478020,67.179596 110.246277,64.916573 110.014534,62.653557 
	C109.478622,62.702412 108.942703,62.751263 108.406792,62.800117 
	C108.440292,63.512722 108.473801,64.225327 108.605873,65.791054 
M91.931442,66.088211 
	C91.823730,65.499344 91.716026,64.910484 91.608315,64.321617 
	C91.373596,64.386024 91.138870,64.450439 90.904144,64.514847 
	C91.088982,65.208672 91.273811,65.902504 91.931442,66.088211 
z"/>
<path fill="#325280" opacity="1.000000" stroke="none" 
	d="
M22.751293,29.055822 
	C19.953926,23.574894 16.289448,22.429787 11.032225,25.878136 
	C9.554819,27.998268 8.292912,29.808897 8.115035,31.720404 
	C7.763510,35.497974 7.704760,39.362602 8.088512,43.133888 
	C8.586644,48.029228 6.703604,49.843803 1.961643,48.694405 
	C1.631787,47.932392 1.315893,47.466198 1.000000,47.000000 
	C1.000000,42.975456 1.000000,38.950912 1.289377,34.172676 
	C1.385836,29.612654 1.192918,25.806326 1.000000,22.000000 
	C1.000000,19.629442 1.000000,17.258884 1.258270,14.231719 
	C1.344360,12.383408 1.172180,11.191704 1.000000,10.000000 
	C1.000000,9.555555 1.000000,9.111111 1.164100,8.242811 
	C1.218801,7.545971 1.109400,7.272986 1.000000,7.000000 
	C1.000000,5.095223 1.000000,3.190447 1.000000,1.000000 
	C2.328534,1.000000 3.664304,1.000000 5.500038,1.000000 
	C9.428058,2.779120 9.890288,5.933656 9.871806,9.320468 
	C9.858280,11.799212 9.869157,14.278088 9.869157,16.637453 
	C13.433331,16.637453 16.808708,16.432375 20.150213,16.681553 
	C26.465261,17.152470 30.840624,21.580236 30.986732,27.625902 
	C31.143518,34.113403 31.064354,40.606606 30.642075,47.719673 
	C24.253613,49.637657 24.173714,49.449696 23.950508,43.459991 
	C23.771280,38.650383 23.166973,33.856617 22.751293,29.055822 
z"/>
<path fill="#2F5181" opacity="1.000000" stroke="none" 
	d="
M201.000000,6.000000 
	C201.000000,6.000000 201.000000,6.500000 200.774719,6.894365 
	C200.699615,7.859153 200.849808,8.429577 201.000000,9.000000 
	C201.000000,21.687561 201.000000,34.375122 200.786743,47.639618 
	C200.302048,48.411926 200.129532,48.672745 199.613892,49.010258 
	C197.581482,48.910141 195.991165,48.798775 194.280502,48.678982 
	C194.280502,33.266285 194.280502,18.373415 194.280502,4.181777 
	C196.650726,4.823133 198.825363,5.411566 201.000000,6.000000 
z"/>
<path fill="#516A8B" opacity="1.000000" stroke="none" 
	d="
M78.583336,1.000000 
	C80.260544,4.205816 82.505363,7.380212 82.608879,10.622961 
	C83.025932,23.688320 82.781639,36.774788 82.781639,50.130440 
	C79.682961,50.130440 77.098793,50.130440 73.916588,50.130440 
	C73.916588,34.011486 73.916588,17.972878 73.958298,1.467133 
	C75.388893,1.000000 76.777779,1.000000 78.583336,1.000000 
M80.682098,6.376127 
	C79.160439,5.200594 77.638779,4.025062 75.997459,2.757083 
	C75.382889,3.911614 75.098686,4.196965 75.097427,4.483556 
	C75.037064,18.248138 74.928650,32.013729 75.100311,45.775784 
	C75.114029,46.875343 77.080605,47.950542 78.139656,49.037060 
	C79.115501,47.862152 80.923637,46.698204 80.939270,45.510654 
	C81.107361,32.743244 80.992691,19.972107 80.682098,6.376127 
z"/>
<path fill="#4A617F" opacity="1.000000" stroke="none" 
	d="
M201.000000,5.500038 
	C198.825363,5.411566 196.650726,4.823133 194.280502,4.181777 
	C194.280502,18.373415 194.280502,33.266285 194.280502,48.678982 
	C195.991165,48.798775 197.581482,48.910141 199.849548,49.012573 
	C200.527283,49.003639 201.000000,49.000000 201.000000,49.000000 
	C201.000000,49.000000 201.000000,49.500000 201.000000,49.750000 
	C198.228577,50.000000 195.457138,50.000000 192.123001,50.000000 
	C192.123001,33.912788 192.123001,17.921654 192.061493,1.465260 
	C194.888901,1.000000 197.777817,1.000000 201.000000,1.000000 
	C201.000000,2.326223 201.000000,3.663149 201.000000,5.500038 
z"/>
<path fill="#CED9E5" opacity="1.000000" stroke="none" 
	d="
M29.552509,64.958252 
	C30.829895,63.068691 32.107281,61.179131 33.571766,59.012802 
	C34.533638,60.031925 35.569901,61.129864 36.485008,62.651554 
	C35.470032,66.355209 39.909290,69.830643 36.000000,73.000000 
	C33.299988,73.000000 30.599974,73.000000 27.360519,72.618271 
	C27.731558,69.810448 28.642033,67.384346 29.552509,64.958252 
z"/>
<path fill="#F7FAFB" opacity="1.000000" stroke="none" 
	d="
M16.000000,73.000000 
	C11.500000,73.000000 6.997780,73.065140 2.503000,72.911964 
	C1.980886,72.894173 1.499999,71.666664 1.322746,70.469589 
	C1.857947,69.899551 2.070401,69.859924 2.638049,69.844658 
	C4.422263,69.282509 5.851282,68.696007 7.563809,68.090942 
	C8.222454,68.021606 8.597592,67.970840 9.008156,68.218857 
	C11.033230,68.716240 13.188322,71.781784 15.216034,68.130371 
	C15.659533,68.360725 15.845445,68.637039 16.081633,69.124496 
	C16.250559,69.612053 16.440380,69.825043 16.764820,70.316292 
	C16.771255,71.115868 16.714241,71.573753 16.498833,72.155655 
	C16.159225,72.487755 16.045746,72.727867 16.000000,73.000000 
z"/>
<path fill="#435A78" opacity="1.000000" stroke="none" 
	d="
M1.975605,48.990215 
	C6.703604,49.843803 8.586644,48.029228 8.088512,43.133888 
	C7.704760,39.362602 7.763510,35.497974 8.115035,31.720404 
	C8.292912,29.808897 9.554819,27.998268 10.709678,26.088837 
	C10.692395,31.414949 10.237091,36.790981 9.916433,42.175034 
	C9.770743,44.621273 9.891695,47.083389 9.891695,50.217148 
	C7.024239,50.217148 4.460544,50.217148 1.448424,50.108574 
	C1.000000,50.000000 1.000000,49.500000 1.243913,49.248772 
	C1.487827,48.997547 1.975605,48.990215 1.975605,48.990215 
z"/>
<path fill="#3C5171" opacity="1.000000" stroke="none" 
	d="
M16.657227,72.031647 
	C16.714241,71.573753 16.771255,71.115868 16.810186,70.075562 
	C16.624537,69.187027 16.370956,68.993759 16.031357,68.913345 
	C15.845445,68.637039 15.659533,68.360725 15.185064,67.701477 
	C14.956635,65.890289 15.016762,64.462044 15.076887,63.033798 
	C17.591578,63.128689 20.106268,63.223583 22.851574,64.058838 
	C23.466831,67.391457 22.607389,69.049393 19.954826,69.996223 
	C19.059853,70.315689 18.638054,71.960762 18.000002,73.000000 
	C18.000000,73.000000 17.500000,73.000000 17.176346,72.753647 
	C16.787537,72.348747 16.722382,72.190193 16.657227,72.031647 
z"/>
<path fill="#566B87" opacity="1.000000" stroke="none" 
	d="
M29.656269,64.621002 
	C28.642033,67.384346 27.731558,69.810448 26.910542,72.618271 
	C26.555555,73.000000 26.111111,73.000000 25.205181,72.560913 
	C24.625570,69.387131 24.507444,66.652443 24.389317,63.917755 
	C26.572575,61.563015 28.706133,61.708412 29.656269,64.621002 
z"/>
<path fill="#DFEAF2" opacity="1.000000" stroke="none" 
	d="
M24.180054,63.923843 
	C24.507444,66.652443 24.625570,69.387131 24.871849,72.560913 
	C22.958334,73.000000 20.916666,73.000000 18.437502,73.000000 
	C18.638054,71.960762 19.059853,70.315689 19.954826,69.996223 
	C22.607389,69.049393 23.466831,67.391457 23.107828,64.386139 
	C23.413437,63.975426 23.692547,63.961044 24.180054,63.923843 
z"/>
<path fill="#4F617E" opacity="1.000000" stroke="none" 
	d="
M36.375000,73.000000 
	C39.909290,69.830643 35.470032,66.355209 36.708199,62.916801 
	C38.121670,63.751236 39.190804,64.744164 40.903534,66.334824 
	C40.477879,67.663979 39.745262,69.951660 39.006325,72.619675 
	C38.250000,73.000000 37.500000,73.000000 36.375000,73.000000 
z"/>
<path fill="#DCE8EE" opacity="1.000000" stroke="none" 
	d="
M2.282856,69.820305 
	C2.070401,69.859924 1.857947,69.899551 1.322746,69.969589 
	C1.000000,68.285812 1.000000,66.571625 1.239538,64.428337 
	C1.479076,63.999233 1.958077,64.007713 2.209585,64.264191 
	C3.425399,65.361542 4.389705,66.202400 4.704908,66.477257 
	C3.601680,67.999992 2.942268,68.910149 2.282856,69.820305 
z"/>
<path fill="#3A5887" opacity="1.000000" stroke="none" 
	d="
M1.000000,22.460636 
	C1.192918,25.806326 1.385836,29.612654 1.289377,33.709488 
	C1.000000,30.307091 1.000000,26.614182 1.000000,22.460636 
z"/>
<path fill="#D0E4F2" opacity="1.000000" stroke="none" 
	d="
M124.742928,68.142548 
	C124.999817,68.106926 125.256699,68.071312 125.858185,68.023354 
	C126.202782,68.011017 126.262741,67.939842 126.262741,67.939842 
	C125.954231,69.401749 125.645729,70.863655 125.168610,72.662781 
	C125.000000,73.000000 124.500000,73.000000 124.257919,72.625504 
	C122.997505,71.497383 121.979156,70.743759 121.299667,69.966614 
	C122.673325,69.342903 123.708130,68.742729 124.742928,68.142548 
z"/>
<path fill="#3A5471" opacity="1.000000" stroke="none" 
	d="
M120.960808,69.990135 
	C121.979156,70.743759 122.997505,71.497383 124.007919,72.625504 
	C122.933327,73.000000 121.866661,73.000000 120.399994,73.000000 
	C119.634094,72.222191 119.268188,71.444389 119.123596,70.297081 
	C119.344902,69.927582 119.716599,69.857437 120.025650,69.909302 
	C120.543411,69.970825 120.752106,69.980484 120.960808,69.990135 
z"/>
<path fill="#3A5887" opacity="1.000000" stroke="none" 
	d="
M1.000000,10.399996 
	C1.172180,11.191704 1.344360,12.383408 1.258270,13.787556 
	C1.000000,12.933331 1.000000,11.866661 1.000000,10.399996 
z"/>
<path fill="#C7DBF0" opacity="1.000000" stroke="none" 
	d="
M1.958077,64.007713 
	C1.958077,64.007713 1.479076,63.999233 1.239538,63.999619 
	C1.000000,63.250000 1.000000,62.500000 1.000000,61.375000 
	C1.169545,61.000805 1.339090,61.001614 1.760738,61.251873 
	C2.012841,61.501328 2.047288,61.997707 1.966214,62.326485 
	C1.909452,63.106079 1.933765,63.556896 1.958077,64.007713 
z"/>
<path fill="#3C5A8B" opacity="1.000000" stroke="none" 
	d="
M201.000000,8.666667 
	C200.849808,8.429577 200.699615,7.859153 200.774719,7.144365 
	C201.000000,7.444445 201.000000,7.888889 201.000000,8.666667 
z"/>
<path fill="#3A5887" opacity="1.000000" stroke="none" 
	d="
M1.961643,48.694405 
	C1.975605,48.990215 1.487827,48.997547 1.243913,48.998772 
	C1.000000,48.555553 1.000000,48.111111 1.000000,47.333332 
	C1.315893,47.466198 1.631787,47.932392 1.961643,48.694405 
z"/>
<path fill="#EDF3F7" opacity="1.000000" stroke="none" 
	d="
M16.498833,72.155655 
	C16.722382,72.190193 16.787537,72.348747 16.926346,72.753647 
	C17.000000,73.000000 16.500000,73.000000 16.250000,73.000000 
	C16.045746,72.727867 16.159225,72.487755 16.498833,72.155655 
z"/>
<path fill="#3A5887" opacity="1.000000" stroke="none" 
	d="
M1.000000,7.250000 
	C1.109400,7.272986 1.218801,7.545971 1.164100,7.909479 
	C1.000000,8.000000 1.000000,7.500000 1.000000,7.250000 
z"/>
<path fill="#3C5A8B" opacity="1.000000" stroke="none" 
	d="
M201.000000,48.750000 
	C201.000000,49.000000 200.527283,49.003639 200.291626,49.001324 
	C200.129532,48.672745 200.302048,48.411926 200.786743,48.108276 
	C201.000000,48.000000 201.000000,48.500000 201.000000,48.750000 
z"/>
<path fill="#365480" opacity="1.000000" stroke="none" 
	d="
M119.578506,36.406979 
	C117.231911,35.881660 115.233200,35.613476 113.356552,34.982334 
	C109.534958,33.697083 106.462502,31.569227 106.105217,27.073111 
	C105.744034,22.527950 107.891266,18.771229 111.849396,17.509212 
	C117.703590,15.642647 124.080353,14.164891 129.753494,18.279182 
	C130.921310,19.126127 131.098480,21.339104 131.732254,22.922449 
	C129.613007,23.549110 126.706314,25.369793 125.517448,24.585730 
	C121.425827,21.887297 118.349876,23.204521 115.062378,25.073370 
	C114.953094,25.642254 114.843811,26.211136 114.734520,26.780020 
	C117.204048,27.528305 119.669975,28.288698 122.143875,29.022245 
	C126.710083,30.376194 132.843582,29.590494 134.215286,35.755634 
	C134.947403,39.046211 135.018692,43.669941 133.232040,46.118877 
	C127.165245,54.434483 110.961456,52.111538 106.202110,42.625626 
	C109.041489,39.312031 112.251144,39.925629 115.864708,41.354683 
	C118.234612,42.291901 120.922729,42.813919 123.456940,42.775261 
	C124.651978,42.757030 125.820236,40.983749 127.000626,40.005707 
	C125.967964,39.081287 125.060982,37.908466 123.866417,37.304028 
	C122.727463,36.727722 121.288635,36.744057 119.578506,36.406979 
z"/>
<path fill="#2F5183" opacity="1.000000" stroke="none" 
	d="
M42.974487,48.014843 
	C42.636391,48.008400 42.355667,47.878231 41.930119,47.147015 
	C41.408718,46.493469 41.089516,46.317249 40.770313,46.141029 
	C40.770313,46.141029 40.883923,46.119469 40.804688,45.903183 
	C40.422878,45.491150 40.120300,45.295403 39.817726,45.099655 
	C39.817726,45.099655 39.916466,45.081432 39.835693,44.871990 
	C39.474964,44.453808 39.195007,44.245068 38.915051,44.036324 
	C38.915051,44.036324 38.991703,44.016373 38.980530,43.642891 
	C38.516846,37.083668 38.064327,30.897924 37.611813,24.712179 
	C37.611813,24.712179 37.579933,24.923632 37.908028,24.756054 
	C38.418369,23.986992 38.600616,23.385508 38.782864,22.784021 
	C38.782864,22.784021 38.950546,22.993252 39.229897,22.919407 
	C45.708256,19.615654 51.620472,15.250558 59.298725,17.876005 
	C59.569042,17.968437 59.935127,17.780800 60.256577,17.723694 
	C60.256577,17.723694 60.104565,17.682461 60.142155,18.074608 
	C61.521030,19.251846 62.862312,20.036936 64.203598,20.822025 
	C64.203598,20.822025 64.031647,20.966763 64.061394,21.273174 
	C64.868553,22.233072 65.645958,22.886562 66.423370,23.540051 
	C66.423370,23.540051 66.412445,23.599098 66.353989,23.895180 
	C66.519905,24.462818 66.744278,24.734377 66.968651,25.005938 
	C66.968651,25.005938 67.120728,25.364462 67.070511,25.871504 
	C67.002068,26.587643 66.983849,26.796741 66.599052,27.009382 
	C64.816010,27.344357 63.399540,27.675787 61.691521,27.865402 
	C60.457726,27.287834 59.515484,26.852081 58.743652,26.412897 
	C58.914062,26.409468 58.575306,26.388922 58.580910,26.102377 
	C58.264809,25.668230 57.943104,25.520626 57.793957,25.182371 
	C57.854923,25.121498 57.743324,25.251278 57.612030,25.097980 
	C57.260063,24.749510 56.927795,24.684120 56.590878,24.571072 
	C56.586231,24.523413 56.500973,24.567038 56.464676,24.171419 
	C55.426514,23.586813 54.424641,23.397827 53.184361,23.283165 
	C52.604343,23.357981 52.285660,23.272762 51.959038,22.800083 
	C51.540779,22.145021 51.153393,21.791710 50.766003,21.438396 
	C50.501553,21.939987 50.237103,22.441576 49.664215,23.000641 
	C48.996166,23.499691 48.636551,23.941267 48.242569,24.329386 
	C48.208199,24.275930 48.332939,24.300289 48.044334,24.321434 
	C47.535217,24.640684 47.314705,24.938789 47.006065,25.467829 
	C46.723774,25.982105 46.462975,26.175697 45.950142,25.997549 
	C45.313313,25.626987 44.679947,25.302025 44.439285,25.487263 
	C42.526375,26.959646 41.246372,37.309875 42.877369,38.978119 
	C43.369141,39.481125 44.606148,39.255535 45.510754,39.420547 
	C45.519726,39.477390 45.578808,39.576168 45.510246,39.863548 
	C45.758308,40.325077 46.074928,40.499222 46.322929,40.720390 
	C46.254311,40.767410 46.323277,40.616013 46.350796,40.912704 
	C46.724655,41.333241 47.070995,41.457081 47.442360,41.567249 
	C47.467381,41.553574 47.524414,41.553806 47.401966,41.890461 
	C48.285709,42.894825 49.364944,43.476227 50.280483,44.251053 
	C51.560238,45.334129 52.717869,46.561508 53.927757,47.727142 
	C52.948586,48.489864 51.969414,49.252583 50.791256,50.090740 
	C50.332287,50.305855 50.140823,50.509853 50.017883,50.778175 
	C49.847828,50.801830 49.677776,50.825489 49.174080,50.425148 
	C46.885120,49.339050 44.929806,48.676945 42.974487,48.014843 
z"/>
<path fill="#53B360" opacity="1.000000" stroke="none" 
	d="
M175.957397,45.971760 
	C175.268250,53.506775 171.097092,57.915951 164.209457,58.390049 
	C157.688187,58.838932 152.882629,54.589142 150.983246,46.353195 
	C150.953491,45.986588 150.959229,46.050705 151.338730,45.962318 
	C153.929794,45.316582 156.141342,44.759228 158.352905,44.201874 
	C158.050568,44.563118 157.748215,44.924358 157.445877,45.285603 
	C159.498184,47.120674 161.724518,50.572857 163.558090,50.375519 
	C165.777161,50.136688 167.663895,46.810184 170.063705,44.457909 
	C171.296783,44.784718 173.667038,45.412922 176.016327,46.024940 
	C175.995346,46.008751 175.957397,45.971760 175.957397,45.971760 
z"/>
<path fill="#54B361" opacity="1.000000" stroke="none" 
	d="
M160.899597,8.635412 
	C161.736954,8.467500 162.574295,8.299587 163.953171,8.394873 
	C164.873825,8.698716 165.252945,8.739361 165.632080,8.780005 
	C165.632080,8.780005 165.706940,8.597242 165.999161,8.939319 
	C167.257629,9.451760 168.223892,9.622126 169.190140,9.792492 
	C169.190140,9.792492 169.088211,9.822057 169.224167,10.081303 
	C169.958328,10.539199 170.556519,10.737848 171.154724,10.936499 
	C171.726898,11.399763 172.299072,11.863028 172.971802,12.921166 
	C173.480331,13.959988 173.888321,14.403934 174.296295,14.847883 
	C174.296295,14.847885 174.181274,14.891826 174.132324,15.262806 
	C174.054977,17.333080 174.026566,19.032375 173.673492,20.863323 
	C171.842560,21.502384 170.336288,22.009794 168.814316,22.522491 
	C167.844849,15.624657 164.525223,14.121024 158.834839,18.243824 
	C153.958267,21.285919 153.273941,20.852322 152.868118,14.852789 
	C152.868118,14.852789 152.914963,14.945744 153.129211,14.825380 
	C153.462387,14.365069 153.581299,14.025122 153.700211,13.685175 
	C153.700211,13.685177 153.753647,13.896934 153.992462,13.776655 
	C154.336227,13.312641 154.441177,12.968904 154.546143,12.625170 
	C154.546143,12.625171 154.672913,12.672530 154.933167,12.644486 
	C155.288651,12.280401 155.383881,11.944360 155.479095,11.608318 
	C155.479095,11.608318 155.567932,11.585419 155.886093,11.595766 
	C156.349426,11.276991 156.494598,10.947869 156.639771,10.618749 
	C156.639771,10.618750 156.712601,10.599609 156.979584,10.633198 
	C157.454987,10.367405 157.663437,10.068025 157.871887,9.768641 
	C157.871872,9.768638 157.948181,9.879909 158.259338,9.904838 
	C159.346878,9.498315 160.123230,9.066864 160.899597,8.635412 
z"/>
<path fill="#4BB459" opacity="1.000000" stroke="none" 
	d="
M147.016281,44.946358 
	C146.464340,44.803532 145.912399,44.660702 145.042923,44.068649 
	C144.415009,43.458530 144.104645,43.297638 143.794266,43.136742 
	C143.794266,43.136742 143.920990,43.123062 143.898239,42.805527 
	C142.898041,41.670044 141.920593,40.852093 140.943146,40.034142 
	C140.943146,40.034142 141.002792,40.007160 140.998947,39.674248 
	C140.536438,38.633205 140.077774,37.925076 139.619110,37.216946 
	C139.619110,37.216946 139.654099,37.140583 139.782043,36.725342 
	C139.496460,31.752827 140.747772,27.912943 144.444626,24.937975 
	C145.236465,24.300760 145.493042,22.998417 145.996185,22.002485 
	C146.483917,21.728306 146.971634,21.454124 147.949142,21.422516 
	C149.385880,22.408943 150.332825,23.152796 151.492584,24.160362 
	C152.074539,25.506987 152.443680,26.589899 152.812820,27.672810 
	C152.367981,27.415319 151.923157,27.157829 151.478317,26.900339 
	C149.690048,29.219622 147.901794,31.538904 146.063019,34.215645 
	C146.447342,35.314133 146.882156,36.055168 147.259369,36.816795 
	C147.201736,36.837383 147.233856,36.719288 147.315369,37.022438 
	C147.770691,37.471516 148.144470,37.617447 148.773071,37.791355 
	C149.340729,37.954357 149.653610,38.089386 150.003418,38.516296 
	C150.650162,39.537418 151.259933,40.266651 151.851807,41.277878 
	C151.625183,42.070656 151.416473,42.581448 150.883942,43.186798 
	C149.378845,43.836361 148.197556,44.391357 147.016281,44.946358 
z"/>
<path fill="#54B361" opacity="1.000000" stroke="none" 
	d="
M177.989853,21.123724 
	C178.564804,21.212557 179.139740,21.301390 179.928650,21.818031 
	C180.419815,22.214117 180.697037,22.182394 180.974258,22.150671 
	C181.328156,22.023726 181.619202,22.109665 182.087128,22.901991 
	C182.889511,23.590956 183.452148,23.786419 184.014786,23.981882 
	C184.014786,23.981882 184.000000,24.000000 184.121124,24.214640 
	C184.517853,24.609350 184.793427,24.789421 185.069016,24.969490 
	C185.069016,24.969490 185.002457,24.992891 185.011078,25.349672 
	C185.711105,26.793100 186.402496,27.879747 187.093887,28.966396 
	C187.394592,30.714153 187.695297,32.461906 187.595459,34.667049 
	C184.289856,37.832275 181.384796,40.540115 178.479736,43.247952 
	C178.245987,42.964901 178.012238,42.681850 177.778488,42.398800 
	C178.085281,40.842426 178.392075,39.286057 178.723846,37.741592 
	C178.748825,37.753498 178.783264,37.795776 179.176971,37.852230 
	C183.609528,35.682648 183.983139,32.811680 180.748444,30.268307 
	C180.937378,30.226723 180.570724,30.350264 180.677231,29.960173 
	C179.067337,28.167973 177.350937,26.765863 175.553741,25.126549 
	C175.601288,24.585903 175.729614,24.282461 176.125793,23.839512 
	C176.925705,22.841242 177.457779,21.982483 177.989853,21.123724 
z"/>
<path fill="#3C567D" opacity="1.000000" stroke="none" 
	d="
M50.990242,50.015305 
	C51.969414,49.252583 52.948586,48.489864 53.927757,47.727142 
	C52.717869,46.561508 51.560238,45.334129 50.280483,44.251053 
	C49.364944,43.476227 48.285709,42.894825 47.738724,42.041840 
	C51.061115,41.869560 53.924305,41.882553 57.056244,42.072372 
	C57.423443,44.046078 57.521889,45.842960 57.620338,47.639847 
	C59.545296,46.472660 61.470257,45.305470 63.632553,43.994373 
	C61.473759,42.069904 60.175972,40.912987 58.904827,39.544495 
	C58.931469,39.332916 59.212933,39.012486 59.484970,38.983089 
	C60.171547,38.633801 60.586086,38.313908 61.274452,38.197250 
	C63.027317,39.272949 64.506363,40.145412 65.998238,41.418587 
	C66.050873,42.352669 66.090675,42.886040 66.130478,43.419407 
	C62.915394,48.878437 58.007061,51.158089 51.408562,50.740868 
	C50.995426,50.441841 50.990242,50.015301 50.990242,50.015305 
z"/>
<path fill="#30496D" opacity="1.000000" stroke="none" 
	d="
M98.656677,19.356461 
	C98.656677,29.421476 98.656677,39.486492 98.656677,49.892708 
	C96.490814,49.892708 93.945961,49.892708 91.099655,49.892708 
	C91.099655,38.841862 91.099655,27.811623 91.099655,16.120045 
	C93.110893,16.478123 94.953239,16.806131 96.965332,17.500774 
	C97.135078,17.867409 96.966789,18.034399 96.537682,18.023552 
	C92.717087,17.505280 91.869629,19.159496 91.945564,22.302469 
	C92.121864,29.600241 91.975281,36.905338 92.016075,44.207150 
	C92.028419,46.415043 91.312332,49.098442 95.152763,49.003929 
	C98.680397,48.917114 97.965088,46.426571 97.976357,44.401505 
	C98.021622,36.269951 97.992462,28.137983 98.161407,19.847979 
	C98.332008,19.689787 98.656677,19.356461 98.656677,19.356461 
z"/>
<path fill="#51B25F" opacity="1.000000" stroke="none" 
	d="
M178.698868,37.729687 
	C178.392075,39.286057 178.085281,40.842426 177.778488,42.398800 
	C178.012238,42.681850 178.245987,42.964901 178.479736,43.247952 
	C181.384796,40.540115 184.289856,37.832275 187.519180,35.064461 
	C186.962936,41.748940 184.408722,44.266171 176.341888,45.966194 
	C175.957397,45.971760 175.995346,46.008751 175.987732,45.630173 
	C175.457230,43.014385 174.934341,40.777184 174.381775,38.413025 
	C175.766937,38.193771 177.232895,37.961727 178.698868,37.729687 
z"/>
<path fill="#3E597E" opacity="1.000000" stroke="none" 
	d="
M97.419365,11.522524 
	C95.011345,10.766757 92.774353,9.984587 91.008873,8.600831 
	C90.676460,8.340291 91.832375,5.004445 93.014275,4.321890 
	C94.176659,3.650607 97.495438,4.182859 97.683853,4.826444 
	C98.266479,6.816463 97.807953,9.111299 97.419365,11.522524 
z"/>
<path fill="#425A7D" opacity="1.000000" stroke="none" 
	d="
M60.030220,17.433731 
	C59.935127,17.780800 59.569042,17.968437 59.298725,17.876005 
	C51.620472,15.250558 45.708256,19.615654 39.134605,22.825047 
	C43.665249,15.529185 51.022537,13.550092 60.030220,17.433731 
z"/>
<path fill="#61748A" opacity="1.000000" stroke="none" 
	d="
M56.986900,67.009842 
	C56.550339,67.976479 56.113773,68.943108 55.677208,69.909737 
	C55.280193,69.879356 54.883175,69.848976 54.486156,69.818588 
	C54.380524,67.819450 54.274891,65.820305 54.202705,63.078285 
	C54.177059,61.889450 54.117962,61.443497 54.058868,60.997536 
	C54.735695,60.588032 55.670933,59.668896 56.044159,59.858139 
	C57.577015,60.635380 58.938839,61.749908 60.704025,63.240799 
	C59.691944,64.830780 58.339424,65.920311 56.986900,67.009842 
z"/>
<path fill="#576A7E" opacity="1.000000" stroke="none" 
	d="
M153.843689,62.982498 
	C155.894501,63.072460 158.733109,62.392990 159.779327,63.464161 
	C160.872253,64.583153 160.240128,67.387009 160.362122,69.454323 
	C159.818878,69.478844 159.275650,69.503365 158.732422,69.527885 
	C158.389084,67.785767 158.045761,66.043648 157.643967,64.004898 
	C156.402817,66.100449 155.366516,67.850143 154.144714,68.881897 
	C153.920715,66.436806 153.882202,64.709656 153.843689,62.982498 
z"/>
<path fill="#EDF3F7" opacity="1.000000" stroke="none" 
	d="
M14.739254,63.001236 
	C15.016762,64.462044 14.956635,65.890289 14.927479,67.747429 
	C13.188322,71.781784 11.033230,68.716240 9.001716,67.812363 
	C8.969187,65.742851 8.978524,64.378616 9.005096,63.002884 
	C9.022330,62.991386 9.057635,62.968624 9.057635,62.968624 
	C10.838964,62.968639 12.620292,62.968655 14.739254,63.001236 
z"/>
<path fill="#607590" opacity="1.000000" stroke="none" 
	d="
M126.244019,67.973625 
	C127.295433,65.972969 128.305603,64.009697 129.315781,62.046432 
	C130.736755,62.940208 132.157715,63.833992 133.578690,64.727768 
	C133.424423,65.197685 133.270157,65.667603 133.115891,66.137520 
	C131.023102,66.863762 128.930328,67.589996 126.550140,68.128036 
	C126.262741,67.939842 126.202782,68.011017 126.244019,67.973625 
z"/>
<path fill="#465B7B" opacity="1.000000" stroke="none" 
	d="
M37.352730,24.968815 
	C38.064327,30.897924 38.516846,37.083668 38.957718,43.675266 
	C34.305050,38.191181 34.331413,31.842703 37.352730,24.968815 
z"/>
<path fill="#3B5171" opacity="1.000000" stroke="none" 
	d="
M66.422661,43.168831 
	C66.090675,42.886040 66.050873,42.352669 66.167961,41.036442 
	C66.538445,35.837669 66.752037,31.421753 66.965622,27.005838 
	C66.983849,26.796741 67.002068,26.587643 67.056137,26.065695 
	C70.844200,31.559851 69.529037,37.255524 66.422661,43.168831 
z"/>
<path fill="#2B4367" opacity="1.000000" stroke="none" 
	d="
M22.692387,29.517963 
	C23.166973,33.856617 23.771280,38.650383 23.950508,43.459991 
	C24.173714,49.449696 24.253613,49.637657 30.555336,48.181168 
	C29.673882,50.417530 29.673882,50.417530 22.633480,49.931129 
	C22.633480,43.327118 22.633480,36.653610 22.692387,29.517963 
z"/>
<path fill="#5EAD69" opacity="1.000000" stroke="none" 
	d="
M145.652069,22.036579 
	C145.493042,22.998417 145.236465,24.300760 144.444626,24.937975 
	C140.747772,27.912943 139.496460,31.752827 139.818176,36.746773 
	C137.561630,30.463696 138.976898,26.631720 145.652069,22.036579 
z"/>
<path fill="#DFEAF6" opacity="1.000000" stroke="none" 
	d="
M52.148918,68.597794 
	C46.376835,68.634941 45.693493,67.488609 47.290565,61.133430 
	C49.005096,63.549385 50.718372,65.966324 52.148918,68.597794 
z"/>
<path fill="#506480" opacity="1.000000" stroke="none" 
	d="
M102.851044,68.194229 
	C101.190735,68.317574 99.530418,68.440918 98.196381,68.225586 
	C98.980690,67.812645 99.438736,67.738380 99.896782,67.664124 
	C99.612427,67.310623 99.301056,66.975136 99.050369,66.599190 
	C98.717026,66.099274 98.430977,65.567810 98.124611,65.049904 
	C99.172997,64.349182 100.221390,63.648460 101.739754,63.346359 
	C102.423500,65.228065 102.637268,66.711151 102.851044,68.194229 
z"/>
<path fill="#EEFBFF" opacity="1.000000" stroke="none" 
	d="
M57.394997,67.005905 
	C58.339424,65.920311 59.691944,64.830780 61.019981,63.368881 
	C61.533173,62.693974 62.070847,62.391430 62.862682,62.461502 
	C64.058861,63.255367 65.000870,63.676617 65.894608,64.371780 
	C65.336037,64.850822 64.825760,65.055954 64.010773,65.298477 
	C63.098175,65.883270 62.490284,66.430687 61.882393,66.978096 
	C60.522629,66.986053 59.162861,66.994003 57.394997,67.005905 
z"/>
<path fill="#5EAD69" opacity="1.000000" stroke="none" 
	d="
M152.586960,15.085194 
	C153.273941,20.852322 153.958267,21.285919 158.786438,18.624168 
	C158.905197,20.054546 158.749191,21.289396 158.633453,22.205441 
	C155.957687,21.772127 153.453873,21.366659 150.971588,20.982281 
	C150.993118,21.003372 151.031403,21.049934 151.031403,21.049934 
	C151.456207,19.139156 151.880997,17.228376 152.586960,15.085194 
z"/>
<path fill="#4D617B" opacity="1.000000" stroke="none" 
	d="
M117.083618,62.967258 
	C117.407196,63.731491 117.730774,64.495720 118.019196,65.977417 
	C117.925316,67.746620 117.866592,68.798355 117.807861,69.850090 
	C116.268898,69.768402 114.729927,69.686714 113.278053,69.211166 
	C113.577759,68.543381 113.790375,68.269447 114.308121,68.036598 
	C115.011131,67.738739 115.409012,67.399796 115.806885,67.060852 
	C115.357765,66.771675 114.908638,66.482506 114.076500,66.142075 
	C113.439430,66.048157 113.185371,66.005493 113.126099,65.719864 
	C114.181709,65.031128 115.042549,64.585365 116.028900,63.880043 
	C116.464149,63.402744 116.773888,63.185001 117.083618,62.967258 
z"/>
<path fill="#4D5E76" opacity="1.000000" stroke="none" 
	d="
M148.924683,69.719513 
	C148.034409,68.091522 146.553833,66.479149 146.510147,64.828751 
	C146.489227,64.038094 149.188934,63.175419 150.722916,62.911461 
	C150.535568,64.327293 150.281784,65.177032 150.154144,66.123688 
	C150.280289,66.220612 150.140518,66.506424 149.873505,66.347656 
	C149.180191,66.473686 148.753906,66.758476 148.327606,67.043259 
	C148.578598,67.337227 148.829575,67.631195 149.077271,67.963623 
	C149.074005,68.002075 148.997360,68.011200 148.982086,68.438400 
	C148.952774,69.150238 148.938736,69.434875 148.924683,69.719513 
z"/>
<path fill="#E0EEF8" opacity="1.000000" stroke="none" 
	d="
M153.516159,62.989777 
	C153.882202,64.709656 153.920715,66.436806 153.915787,68.593765 
	C153.363678,69.276955 152.855026,69.530334 152.155731,69.468414 
	C150.975845,68.772476 149.986603,68.391838 148.997360,68.011200 
	C148.997360,68.011200 149.074005,68.002075 149.092133,67.727280 
	C149.453674,67.137131 149.797089,66.821777 150.140518,66.506424 
	C150.140518,66.506424 150.280289,66.220612 150.573212,66.238708 
	C151.203964,65.188431 151.541809,64.120056 151.879639,63.051685 
	C152.315964,63.033474 152.752304,63.015266 153.516159,62.989777 
z"/>
<path fill="#4E6179" opacity="1.000000" stroke="none" 
	d="
M64.315475,65.261093 
	C64.825760,65.055954 65.336037,64.850822 66.036957,64.089622 
	C66.573227,63.298904 66.918861,63.064251 67.264488,62.829597 
	C67.515579,63.036900 67.766670,63.244205 68.072403,64.068520 
	C68.187309,65.456261 68.247566,66.226997 68.280579,67.369316 
	C68.133148,68.471649 68.012962,69.202393 67.892784,69.933144 
	C66.798157,69.924629 65.703529,69.916115 64.427444,69.635620 
	C64.497276,68.995392 64.748581,68.627136 65.283562,68.126816 
	C65.402199,67.367661 65.237160,66.740562 64.891678,65.892639 
	C64.579308,65.534897 64.447388,65.397995 64.315475,65.261093 
z"/>
<path fill="#4C5E75" opacity="1.000000" stroke="none" 
	d="
M69.768723,63.963818 
	C70.238213,63.340660 70.707710,62.717503 71.546143,62.509895 
	C71.989639,64.950165 72.064194,66.974884 72.138748,68.999603 
	C71.683525,69.293373 71.228302,69.587143 70.412079,69.467522 
	C69.956963,67.357361 69.862839,65.660591 69.768723,63.963818 
z"/>
<path fill="#495A71" opacity="1.000000" stroke="none" 
	d="
M104.389114,68.970398 
	C104.306129,67.483131 104.133224,65.994324 104.158844,64.508926 
	C104.212624,61.391121 105.715912,62.296028 106.853378,64.196335 
	C106.274544,66.283928 106.106750,67.638603 105.680580,68.995438 
	C105.077843,68.988525 104.733482,68.979462 104.389114,68.970398 
z"/>
<path fill="#495A71" opacity="1.000000" stroke="none" 
	d="
M108.556587,65.364494 
	C108.473801,64.225327 108.440292,63.512722 108.406792,62.800117 
	C108.942703,62.751263 109.478622,62.702412 110.014534,62.653557 
	C110.246277,64.916573 110.478020,67.179596 110.709763,69.442612 
	C110.132004,69.517342 109.554245,69.592064 108.976486,69.666794 
	C108.852951,68.374878 108.729416,67.082970 108.556587,65.364494 
z"/>
<path fill="#E2F0F6" opacity="1.000000" stroke="none" 
	d="
M6.968295,61.990517 
	C7.540752,62.155827 8.113209,62.321140 8.871651,62.727539 
	C9.057635,62.968624 9.022330,62.991386 8.755552,63.160812 
	C8.060476,64.184891 7.632180,65.039536 7.031227,65.608429 
	C5.898366,64.212288 4.938162,63.101891 4.347937,61.922470 
	C5.468041,61.899132 6.218168,61.944824 6.968295,61.990517 
z"/>
<path fill="#C4D9EB" opacity="1.000000" stroke="none" 
	d="
M118.098114,69.898956 
	C117.866592,68.798355 117.925316,67.746620 118.062454,66.306564 
	C118.596268,65.036552 119.051666,64.154861 119.694748,63.524475 
	C119.960655,64.503075 120.038864,65.230370 120.092041,66.349594 
	C119.950211,67.780159 119.833405,68.818794 119.716599,69.857437 
	C119.716599,69.857437 119.344902,69.927582 119.159622,69.965973 
	C118.779022,69.985512 118.583694,69.966667 118.098114,69.898956 
z"/>
<path fill="#5EAD69" opacity="1.000000" stroke="none" 
	d="
M173.998138,20.731670 
	C174.026566,19.032375 174.054977,17.333080 174.159561,15.207590 
	C174.873917,16.438482 175.512100,18.095570 176.151581,20.244839 
	C176.152847,20.737019 175.988373,21.010656 175.656052,20.963505 
	C174.881866,20.854794 174.440002,20.793232 173.998138,20.731670 
z"/>
<path fill="#4C617F" opacity="1.000000" stroke="none" 
	d="
M120.025650,69.909302 
	C119.833405,68.818794 119.950211,67.780159 120.282066,66.357445 
	C120.497124,65.973373 120.877296,65.958725 120.877296,65.958725 
	C121.920555,66.663795 122.963806,67.368874 124.374992,68.108246 
	C123.708130,68.742729 122.673325,69.342903 121.299667,69.966614 
	C120.752106,69.980484 120.543411,69.970825 120.025650,69.909302 
z"/>
<path fill="#465B7B" opacity="1.000000" stroke="none" 
	d="
M43.173916,48.287567 
	C44.929806,48.676945 46.885120,49.339050 48.934505,50.330650 
	C47.143497,49.960194 45.258419,49.260242 43.173916,48.287567 
z"/>
<path fill="#DFF2FF" opacity="1.000000" stroke="none" 
	d="
M69.578255,63.968605 
	C69.862839,65.660591 69.956963,67.357361 70.124619,69.471329 
	C69.685867,69.913185 69.173584,69.937851 68.277039,69.947830 
	C68.012962,69.202393 68.133148,68.471649 68.477829,67.120361 
	C68.803879,65.662308 68.905434,64.824799 69.006989,63.987286 
	C69.006989,63.987286 69.387787,63.973389 69.578255,63.968605 
z"/>
<path fill="#66B372" opacity="1.000000" stroke="none" 
	d="
M147.287750,45.169991 
	C148.197556,44.391357 149.378845,43.836361 150.905090,43.559307 
	C151.153122,44.575069 151.056168,45.312885 150.959229,46.050705 
	C150.959229,46.050705 150.953491,45.986588 150.980713,45.969963 
	C149.858368,45.766766 148.708801,45.580196 147.287750,45.169991 
z"/>
<path fill="#4D5D73" opacity="1.000000" stroke="none" 
	d="
M7.020434,61.612114 
	C6.218168,61.944824 5.468041,61.899132 4.026148,61.925430 
	C2.905350,61.997513 2.476319,61.997612 2.047288,61.997707 
	C2.047288,61.997707 2.012841,61.501328 2.015058,61.252510 
	C3.702374,61.080364 5.387473,61.157036 7.020434,61.612114 
z"/>
<path fill="#BECFE6" opacity="1.000000" stroke="none" 
	d="
M73.066208,62.034252 
	C73.372429,62.520660 73.678658,63.007069 74.000748,64.196152 
	C74.036736,66.240494 74.056854,67.582146 74.050018,69.166992 
	C74.023048,69.410179 74.089020,69.895065 74.089020,69.895065 
	C73.738228,69.857033 73.453163,69.699837 73.112015,68.774803 
	C73.015541,66.095505 73.040878,64.064880 73.066208,62.034252 
z"/>
<path fill="#425A7D" opacity="1.000000" stroke="none" 
	d="
M64.077644,20.521875 
	C62.862312,20.036936 61.521030,19.251846 60.221909,18.081841 
	C61.493279,18.538523 62.722485,19.380125 64.077644,20.521875 
z"/>
<path fill="#4F5E7A" opacity="1.000000" stroke="none" 
	d="
M64.999886,68.258888 
	C64.748581,68.627136 64.497276,68.995392 64.143723,69.561813 
	C63.366634,69.042877 62.691792,68.325783 61.949673,67.293396 
	C62.490284,66.430687 63.098175,65.883270 64.010773,65.298477 
	C64.447388,65.397995 64.579308,65.534897 64.768295,66.136520 
	C64.883530,67.153778 64.941711,67.706337 64.999886,68.258888 
z"/>
<path fill="#51B25F" opacity="1.000000" stroke="none" 
	d="
M187.057983,28.624338 
	C186.402496,27.879747 185.711105,26.793100 185.031845,25.321159 
	C185.703354,26.051336 186.362717,27.166809 187.057983,28.624338 
z"/>
<path fill="#5EAD69" opacity="1.000000" stroke="none" 
	d="
M140.988037,40.354797 
	C141.920593,40.852093 142.898041,41.670044 143.849640,42.846748 
	C142.893478,42.362152 141.963196,41.518803 140.988037,40.354797 
z"/>
<path fill="#2C365C" opacity="1.000000" stroke="none" 
	d="
M151.662354,63.030884 
	C151.541809,64.120056 151.203964,65.188431 150.447067,66.141785 
	C150.281784,65.177032 150.535568,64.327293 150.899994,63.222343 
	C151.010635,62.967125 151.445068,63.010078 151.662354,63.030884 
z"/>
<path fill="#EAFCFF" opacity="1.000000" stroke="none" 
	d="
M72.755081,62.028000 
	C73.040878,64.064880 73.015541,66.095505 72.980270,68.562775 
	C72.970329,68.999413 72.554276,68.999687 72.346512,68.999649 
	C72.064194,66.974884 71.989639,64.950165 71.869202,62.497009 
	C72.030205,62.052963 72.237083,62.037354 72.755081,62.028000 
z"/>
<path fill="#2A3C55" opacity="1.000000" stroke="none" 
	d="
M74.076981,68.923805 
	C74.056854,67.582146 74.036736,66.240494 74.027222,64.495682 
	C74.608009,64.830544 75.178192,65.568565 75.508163,66.803909 
	C74.870964,67.842094 74.473969,68.382950 74.076981,68.923805 
z"/>
<path fill="#647281" opacity="1.000000" stroke="none" 
	d="
M116.869644,62.671852 
	C116.773888,63.185001 116.464149,63.402744 115.673180,63.800339 
	C114.354103,63.662712 113.516258,63.345238 112.678421,63.027763 
	C114.004166,62.810654 115.329918,62.593548 116.869644,62.671852 
z"/>
<path fill="#6A7380" opacity="1.000000" stroke="none" 
	d="
M67.020668,62.568813 
	C66.918861,63.064251 66.573227,63.298904 66.085243,63.815712 
	C65.000870,63.676617 64.058861,63.255367 63.187908,62.475166 
	C64.431595,62.180157 65.604218,62.244095 67.020668,62.568813 
z"/>
<path fill="#C3D1DF" opacity="1.000000" stroke="none" 
	d="
M105.938950,68.993286 
	C106.106750,67.638603 106.274544,66.283928 106.729828,64.638031 
	C106.830795,66.091705 106.644272,67.836609 106.195877,69.511093 
	C105.934021,69.440674 105.938950,68.993286 105.938950,68.993286 
z"/>
<path fill="#D7E6F0" opacity="1.000000" stroke="none" 
	d="
M112.475494,63.284882 
	C113.516258,63.345238 114.354103,63.662712 115.547661,64.059898 
	C115.042549,64.585365 114.181709,65.031128 112.907684,65.753998 
	C112.494492,66.031097 112.067764,66.146599 112.067764,66.146599 
	C112.136032,65.278397 112.204292,64.410202 112.475494,63.284882 
z"/>
<path fill="#646F82" opacity="1.000000" stroke="none" 
	d="
M148.982086,68.438400 
	C149.986603,68.391838 150.975845,68.772476 151.876480,69.520058 
	C151.008804,69.913269 150.229721,69.939529 149.187668,69.842651 
	C148.938736,69.434875 148.952774,69.150238 148.982086,68.438400 
z"/>
<path fill="#394E66" opacity="1.000000" stroke="none" 
	d="
M112.040894,66.480576 
	C112.067764,66.146599 112.494492,66.031097 112.712906,65.996964 
	C113.185371,66.005493 113.439430,66.048157 113.964951,66.436478 
	C114.158607,67.186607 114.080803,67.591057 114.002991,67.995514 
	C113.790375,68.269447 113.577759,68.543381 113.130463,68.936996 
	C112.601868,68.309303 112.307945,67.561928 112.040894,66.480576 
z"/>
<path fill="#B2CAE0" opacity="1.000000" stroke="none" 
	d="
M97.816055,65.146797 
	C98.430977,65.567810 98.717026,66.099274 99.050369,66.599190 
	C99.301056,66.975136 99.612427,67.310623 99.896782,67.664124 
	C99.438736,67.738380 98.980690,67.812645 98.179955,67.933258 
	C97.727341,67.067642 97.617424,66.155663 97.816055,65.146797 
z"/>
<path fill="#C4D3DF" opacity="1.000000" stroke="none" 
	d="
M102.942749,67.794495 
	C102.637268,66.711151 102.423500,65.228065 102.099777,63.376945 
	C102.338028,64.470856 102.686241,65.932808 102.942749,67.794495 
z"/>
<path fill="#425A7D" opacity="1.000000" stroke="none" 
	d="
M66.336182,23.248386 
	C65.645958,22.886562 64.868553,22.233072 64.134308,21.187664 
	C64.867981,21.516068 65.558487,22.236393 66.336182,23.248386 
z"/>
<path fill="#5EAD69" opacity="1.000000" stroke="none" 
	d="
M151.279770,23.896648 
	C150.332825,23.152796 149.385880,22.408943 148.235062,21.435223 
	C148.785751,21.071907 149.540314,20.938463 150.663147,20.927475 
	C151.031403,21.049934 150.993118,21.003372 151.064789,21.341290 
	C151.184235,22.418354 151.232010,23.157501 151.279770,23.896648 
z"/>
<path fill="#DFEAF6" opacity="1.000000" stroke="none" 
	d="
M53.752670,61.034088 
	C54.117962,61.443497 54.177059,61.889450 54.143951,62.665710 
	C53.517548,62.764061 52.983349,62.532104 52.449146,62.300148 
	C52.781590,61.890312 53.114029,61.480476 53.752670,61.034088 
z"/>
<path fill="#5EAD69" opacity="1.000000" stroke="none" 
	d="
M177.708649,20.996601 
	C177.457779,21.982483 176.925705,22.841242 176.109955,23.468113 
	C175.880310,22.494366 175.934341,21.752510 175.988373,21.010656 
	C175.988373,21.010656 176.152847,20.737019 176.226227,20.585665 
	C176.675537,20.579367 177.051483,20.724422 177.708649,20.996601 
z"/>
<path fill="#6E7B8E" opacity="1.000000" stroke="none" 
	d="
M74.050011,69.166992 
	C74.473969,68.382950 74.870964,67.842094 75.466499,67.117393 
	C75.380081,67.925728 75.095116,68.917908 74.449585,69.902573 
	C74.089020,69.895065 74.023048,69.410179 74.050011,69.166992 
z"/>
<path fill="#223658" opacity="1.000000" stroke="none" 
	d="
M120.943634,65.622253 
	C120.877296,65.958725 120.497124,65.973373 120.307098,65.965523 
	C120.038864,65.230370 119.960655,64.503075 119.983185,63.413895 
	C120.392609,63.796600 120.701286,64.541191 120.943634,65.622253 
z"/>
<path fill="#5EAD69" opacity="1.000000" stroke="none" 
	d="
M160.553925,8.645123 
	C160.123230,9.066864 159.346878,9.498315 158.198120,9.876508 
	C158.619904,9.433776 159.414093,9.044304 160.553925,8.645123 
z"/>
<path fill="#5EAD69" opacity="1.000000" stroke="none" 
	d="
M139.634735,37.545166 
	C140.077774,37.925076 140.536438,38.633205 140.977173,39.698792 
	C140.522964,39.328625 140.086670,38.601006 139.634735,37.545166 
z"/>
<path fill="#3F4E69" opacity="1.000000" stroke="none" 
	d="
M91.695045,66.342270 
	C91.273811,65.902504 91.088982,65.208672 90.904144,64.514847 
	C91.138870,64.450439 91.373596,64.386024 91.608315,64.321617 
	C91.716026,64.910484 91.823730,65.499344 91.695045,66.342270 
z"/>
<path fill="#BFD1E9" opacity="1.000000" stroke="none" 
	d="
M68.809296,63.971321 
	C68.905434,64.824799 68.803879,65.662308 68.505074,66.748779 
	C68.247566,66.226997 68.187309,65.456261 68.172157,64.298965 
	C68.217262,63.912415 68.611603,63.955360 68.809296,63.971321 
z"/>
<path fill="#5EAD69" opacity="1.000000" stroke="none" 
	d="
M168.964600,9.506626 
	C168.223892,9.622126 167.257629,9.451760 166.097763,8.944675 
	C166.849106,8.812224 167.794083,9.016493 168.964600,9.506626 
z"/>
<path fill="#30496D" opacity="1.000000" stroke="none" 
	d="
M97.219093,17.783781 
	C97.719429,18.065777 98.135750,18.431400 98.604370,19.076740 
	C98.656677,19.356461 98.332008,19.689787 97.919449,19.681816 
	C97.326851,19.127365 97.146820,18.580883 96.966789,18.034399 
	C96.966789,18.034399 97.135078,17.867409 97.219093,17.783781 
z"/>
<path fill="#5EAD69" opacity="1.000000" stroke="none" 
	d="
M174.254761,14.538944 
	C173.888321,14.403934 173.480331,13.959988 173.064545,13.187307 
	C173.442215,13.315719 173.827713,13.772862 174.254761,14.538944 
z"/>
<path fill="#51B25F" opacity="1.000000" stroke="none" 
	d="
M183.875351,23.711361 
	C183.452148,23.786419 182.889511,23.590956 182.182892,23.124657 
	C182.604584,23.049492 183.170242,23.245165 183.875351,23.711361 
z"/>
<path fill="#465B7B" opacity="1.000000" stroke="none" 
	d="
M38.532333,22.941605 
	C38.600616,23.385508 38.418369,23.986992 37.903790,24.649179 
	C37.808239,24.172983 38.045021,23.636087 38.532333,22.941605 
z"/>
<path fill="#5EAD69" opacity="1.000000" stroke="none" 
	d="
M170.995163,10.666356 
	C170.556519,10.737848 169.958328,10.539199 169.242310,10.031441 
	C169.694870,9.946959 170.265244,10.171587 170.995163,10.666356 
z"/>
<path fill="#53637A" opacity="1.000000" stroke="none" 
	d="
M105.680580,68.995438 
	C105.938950,68.993286 105.934021,69.440674 105.890564,69.660042 
	C105.368439,69.746529 104.889778,69.613647 104.400116,69.225586 
	C104.733482,68.979462 105.077843,68.988525 105.680580,68.995438 
z"/>
<path fill="#3B5171" opacity="1.000000" stroke="none" 
	d="
M67.018478,24.731812 
	C66.744278,24.734377 66.519905,24.462818 66.334267,23.917818 
	C66.604767,23.915480 66.836533,24.186581 67.018478,24.731812 
z"/>
<path fill="#5EAD69" opacity="1.000000" stroke="none" 
	d="
M165.434814,8.548000 
	C165.252945,8.739361 164.873825,8.698716 164.273193,8.473566 
	C164.446976,8.298038 164.842270,8.307017 165.434814,8.548000 
z"/>
<path fill="#5EAD69" opacity="1.000000" stroke="none" 
	d="
M157.600922,9.808992 
	C157.663437,10.068025 157.454987,10.367405 156.957367,10.663601 
	C156.888779,10.390059 157.109375,10.119699 157.600922,9.808992 
z"/>
<path fill="#5EAD69" opacity="1.000000" stroke="none" 
	d="
M156.397949,10.673744 
	C156.494598,10.947869 156.349426,11.276991 155.910187,11.556736 
	C155.646790,11.144311 155.826782,10.884771 156.397949,10.673744 
z"/>
<path fill="#5EAD69" opacity="1.000000" stroke="none" 
	d="
M155.256302,11.682129 
	C155.383881,11.944360 155.288651,12.280401 154.896332,12.587729 
	C154.610825,12.219216 154.755569,11.951526 155.256302,11.682129 
z"/>
<path fill="#5EAD69" opacity="1.000000" stroke="none" 
	d="
M154.305359,12.714338 
	C154.441177,12.968904 154.336227,13.312641 153.935349,13.683575 
	C153.781158,13.408351 153.922882,13.105930 154.305359,12.714338 
z"/>
<path fill="#5EAD69" opacity="1.000000" stroke="none" 
	d="
M153.445938,13.793580 
	C153.581299,14.025122 153.462387,14.365069 153.079590,14.809676 
	C152.941040,14.576886 153.066345,14.239436 153.445938,13.793580 
z"/>
<path fill="#51B25F" opacity="1.000000" stroke="none" 
	d="
M180.745026,22.061487 
	C180.697037,22.182394 180.419815,22.214117 180.086014,22.072092 
	C180.029434,21.898344 180.515793,21.972303 180.745026,22.061487 
z"/>
<path fill="#465B7B" opacity="1.000000" stroke="none" 
	d="
M50.791256,50.090736 
	C50.990242,50.015301 50.995426,50.441841 50.995789,50.655113 
	C50.829025,50.897381 50.661900,50.926373 50.256325,50.866772 
	C50.140823,50.509853 50.332287,50.305855 50.791256,50.090736 
z"/>
<path fill="#51B25F" opacity="1.000000" stroke="none" 
	d="
M184.983612,24.723442 
	C184.793427,24.789421 184.517853,24.609350 184.128723,24.205938 
	C184.309525,24.147528 184.603882,24.312460 184.983612,24.723442 
z"/>
<path fill="#5EAD69" opacity="1.000000" stroke="none" 
	d="
M143.884827,43.401093 
	C144.104645,43.297638 144.415009,43.458530 144.841156,43.861740 
	C144.629745,43.957851 144.302582,43.811646 143.884827,43.401093 
z"/>
<path fill="#465B7B" opacity="1.000000" stroke="none" 
	d="
M38.977535,44.301739 
	C39.195007,44.245068 39.474964,44.453808 39.827202,44.921471 
	C39.612991,44.975979 39.326504,44.771568 38.977535,44.301739 
z"/>
<path fill="#465B7B" opacity="1.000000" stroke="none" 
	d="
M39.901917,45.359688 
	C40.120300,45.295403 40.422878,45.491150 40.790359,45.959198 
	C40.565548,46.027576 40.275829,45.823650 39.901917,45.359688 
z"/>
<path fill="#465B7B" opacity="1.000000" stroke="none" 
	d="
M40.864323,46.406826 
	C41.089516,46.317249 41.408718,46.493469 41.828300,46.932289 
	C41.605225,47.020802 41.281780,46.846714 40.864323,46.406826 
z"/>
<path fill="#33517D" opacity="1.000000" stroke="none" 
	d="
M80.818771,6.789059 
	C80.992691,19.972107 81.107361,32.743244 80.939270,45.510654 
	C80.923637,46.698204 79.115501,47.862152 78.139656,49.037060 
	C77.080605,47.950542 75.114029,46.875343 75.100311,45.775784 
	C74.928650,32.013729 75.037064,18.248138 75.097427,4.483556 
	C75.098686,4.196965 75.382889,3.911614 75.997459,2.757083 
	C77.638779,4.025062 79.160439,5.200594 80.818771,6.789059 
z"/>
<path fill="#4E5F7A" opacity="1.000000" stroke="none" 
	d="
M1.966214,62.326485 
	C2.476319,61.997612 2.905350,61.997513 3.656170,61.994457 
	C4.938162,63.101891 5.898366,64.212288 7.028945,65.978218 
	C7.226315,67.125671 7.253308,67.617592 7.280302,68.109505 
	C5.851282,68.696007 4.422263,69.282509 2.638050,69.844658 
	C2.942268,68.910149 3.601680,67.999992 4.704908,66.477257 
	C4.389705,66.202400 3.425399,65.361542 2.209585,64.264191 
	C1.933765,63.556896 1.909452,63.106079 1.966214,62.326485 
z"/>
<path fill="#C0CADE" opacity="1.000000" stroke="none" 
	d="
M7.563809,68.090942 
	C7.253308,67.617592 7.226315,67.125671 7.201603,66.263977 
	C7.632180,65.039536 8.060476,64.184891 8.738317,63.172314 
	C8.978524,64.378616 8.969187,65.742851 8.966290,67.513573 
	C8.597592,67.970840 8.222454,68.021606 7.563809,68.090942 
z"/>
<path fill="#EDF3F7" opacity="1.000000" stroke="none" 
	d="
M16.081633,69.124496 
	C16.370956,68.993759 16.624537,69.187027 16.746735,69.733887 
	C16.440380,69.825043 16.250559,69.612053 16.081633,69.124496 
z"/>
<path fill="#F5F9FB" opacity="1.000000" stroke="none" 
	d="
M59.212929,39.012486 
	C59.212933,39.012486 58.931469,39.332916 58.644157,39.699379 
	C57.833729,40.675747 57.310612,41.285648 56.787495,41.895546 
	C53.924305,41.882553 51.061115,41.869560 47.861168,41.705185 
	C47.524414,41.553806 47.467381,41.553574 47.331718,41.336342 
	C46.905128,40.951412 46.614201,40.783710 46.323277,40.616013 
	C46.323277,40.616013 46.254311,40.767410 46.256111,40.491978 
	C46.111126,39.918663 45.884758,39.705204 45.578808,39.576168 
	C45.578808,39.576168 45.519726,39.477390 45.380405,39.075386 
	C43.172016,34.371262 43.949486,30.274569 46.135551,26.279537 
	C46.462975,26.175697 46.723774,25.982105 47.268875,25.392113 
	C47.857517,24.823738 48.095230,24.562014 48.332939,24.300289 
	C48.332939,24.300289 48.208199,24.275930 48.577446,24.257317 
	C49.775055,23.879539 50.603416,23.520376 51.580002,23.228086 
	C51.728230,23.294962 51.989906,23.101831 51.989906,23.101831 
	C52.285660,23.272762 52.604343,23.357981 53.437080,23.519501 
	C54.785797,23.976690 55.643387,24.271864 56.500973,24.567038 
	C56.500973,24.567038 56.586231,24.523413 56.713284,24.757694 
	C57.057285,25.216938 57.321079,25.346634 57.631721,25.381060 
	C57.743324,25.251278 57.854923,25.121498 57.874039,25.415985 
	C57.965614,26.139656 58.230198,26.322546 58.575306,26.388922 
	C58.575306,26.388922 58.914062,26.409468 58.823711,26.699797 
	C59.248055,28.072559 59.762753,29.154991 60.292442,30.614574 
	C60.261936,32.992126 60.216438,34.992535 60.025948,37.235153 
	C59.658279,37.989071 59.435604,38.500778 59.212929,39.012486 
z"/>
<path fill="#2E5187" opacity="1.000000" stroke="none" 
	d="
M66.599060,27.009382 
	C66.752037,31.421753 66.538445,35.837669 66.155128,40.635727 
	C64.506363,40.145412 63.027317,39.272949 61.280502,37.949928 
	C61.012733,37.499374 61.030975,37.004704 61.280144,36.825462 
	C64.116020,34.588367 63.216587,32.298199 61.976791,29.655426 
	C61.981281,28.886236 61.982174,28.446728 61.983067,28.007217 
	C63.399540,27.675787 64.816010,27.344357 66.599060,27.009382 
z"/>
<path fill="#3C567D" opacity="1.000000" stroke="none" 
	d="
M45.950142,25.997549 
	C43.949486,30.274569 43.172016,34.371262 45.371433,39.018543 
	C44.606148,39.255535 43.369141,39.481125 42.877369,38.978119 
	C41.246372,37.309875 42.526375,26.959646 44.439285,25.487263 
	C44.679947,25.302025 45.313313,25.626987 45.950142,25.997549 
z"/>
<path fill="#445E80" opacity="1.000000" stroke="none" 
	d="
M61.691521,27.865402 
	C61.982174,28.446728 61.981281,28.886236 61.551884,29.710901 
	C60.841400,30.143179 60.559425,30.190302 60.277447,30.237425 
	C59.762753,29.154991 59.248055,28.072559 58.653297,26.703226 
	C59.515484,26.852081 60.457726,27.287834 61.691521,27.865402 
z"/>
<path fill="#3C567D" opacity="1.000000" stroke="none" 
	d="
M51.959038,22.800083 
	C51.989906,23.101831 51.728230,23.294962 51.215691,23.166435 
	C50.459652,23.006329 50.216152,22.974747 49.972649,22.943165 
	C50.237103,22.441576 50.501553,21.939987 50.766003,21.438396 
	C51.153393,21.791710 51.540779,22.145021 51.959038,22.800083 
z"/>
<path fill="#445E80" opacity="1.000000" stroke="none" 
	d="
M49.664215,23.000641 
	C50.216152,22.974747 50.459652,23.006329 51.067467,23.099560 
	C50.603416,23.520376 49.775055,23.879539 48.611816,24.310772 
	C48.636551,23.941267 48.996166,23.499691 49.664215,23.000641 
z"/>
<path fill="#445E80" opacity="1.000000" stroke="none" 
	d="
M56.464676,24.171419 
	C55.643387,24.271864 54.785797,23.976690 53.675491,23.445179 
	C54.424641,23.397827 55.426514,23.586813 56.464676,24.171419 
z"/>
<path fill="#445E80" opacity="1.000000" stroke="none" 
	d="
M48.044334,24.321434 
	C48.095230,24.562014 47.857517,24.823738 47.356998,25.161179 
	C47.314705,24.938789 47.535217,24.640684 48.044334,24.321434 
z"/>
<path fill="#445E80" opacity="1.000000" stroke="none" 
	d="
M57.612030,25.097980 
	C57.321079,25.346634 57.057285,25.216938 56.717930,24.805351 
	C56.927795,24.684120 57.260063,24.749510 57.612030,25.097980 
z"/>
<path fill="#445E80" opacity="1.000000" stroke="none" 
	d="
M58.580910,26.102377 
	C58.230198,26.322546 57.965614,26.139656 57.701477,25.606640 
	C57.943104,25.520626 58.264809,25.668230 58.580910,26.102377 
z"/>
<path fill="#3C567D" opacity="1.000000" stroke="none" 
	d="
M45.510246,39.863548 
	C45.884758,39.705204 46.111126,39.918663 46.324730,40.444958 
	C46.074928,40.499222 45.758308,40.325077 45.510246,39.863548 
z"/>
<path fill="#3C567D" opacity="1.000000" stroke="none" 
	d="
M46.350796,40.912704 
	C46.614201,40.783710 46.905128,40.951412 47.306694,41.350021 
	C47.070995,41.457081 46.724655,41.333241 46.350796,40.912704 
z"/>
<path fill="#F4FCF4" opacity="1.000000" stroke="none" 
	d="
M175.656052,20.963505 
	C175.934341,21.752510 175.880310,22.494366 175.842102,23.607620 
	C175.729614,24.282461 175.601288,24.585903 175.290283,25.377176 
	C174.783661,26.707016 174.459702,27.549026 174.180466,28.274794 
	C176.483627,29.022829 178.527176,29.686546 180.570724,30.350264 
	C180.570724,30.350264 180.937378,30.226723 180.763596,30.637291 
	C179.987625,33.297165 179.385452,35.546471 178.783264,37.795776 
	C178.783264,37.795776 178.748825,37.753498 178.723846,37.741592 
	C177.232895,37.961727 175.766937,38.193771 174.381775,38.413025 
	C174.934341,40.777184 175.457230,43.014385 176.008713,45.646358 
	C173.667038,45.412922 171.296783,44.784718 170.063705,44.457909 
	C167.663895,46.810184 165.777161,50.136688 163.558090,50.375519 
	C161.724518,50.572857 159.498184,47.120674 157.445877,45.285603 
	C157.748215,44.924358 158.050568,44.563118 158.352905,44.201874 
	C156.141342,44.759228 153.929794,45.316582 151.338715,45.962318 
	C151.056168,45.312885 151.153122,44.575069 151.228928,43.464745 
	C151.416473,42.581448 151.625183,42.070656 152.075348,40.993568 
	C153.956970,37.107140 151.392288,38.273335 149.966476,38.224415 
	C149.653610,38.089386 149.340729,37.954357 148.623993,37.544956 
	C147.891373,37.086819 147.562607,36.903053 147.233856,36.719288 
	C147.233856,36.719288 147.201736,36.837383 147.199707,36.499634 
	C146.836288,35.393986 146.474899,34.626083 146.113525,33.858185 
	C147.901794,31.538904 149.690048,29.219622 151.478317,26.900339 
	C151.923157,27.157829 152.367981,27.415319 152.812820,27.672810 
	C152.443680,26.589899 152.074539,25.506987 151.492584,24.160362 
	C151.232010,23.157501 151.184235,22.418354 151.043243,21.320198 
	C153.453873,21.366659 155.957687,21.772127 158.633453,22.205441 
	C158.749191,21.289396 158.905197,20.054546 159.109589,18.439352 
	C164.525223,14.121024 167.844849,15.624657 168.814316,22.522491 
	C170.336288,22.009794 171.842560,21.502384 173.673492,20.863323 
	C174.440002,20.793232 174.881866,20.854794 175.656052,20.963505 
z"/>
<path fill="#66B372" opacity="1.000000" stroke="none" 
	d="
M150.003418,38.516296 
	C151.392288,38.273335 153.956970,37.107140 152.093262,40.711582 
	C151.259933,40.266651 150.650162,39.537418 150.003418,38.516296 
z"/>
<path fill="#66B372" opacity="1.000000" stroke="none" 
	d="
M146.063019,34.215641 
	C146.474899,34.626083 146.836288,35.393986 147.257324,36.479042 
	C146.882156,36.055168 146.447342,35.314133 146.063019,34.215641 
z"/>
<path fill="#66B372" opacity="1.000000" stroke="none" 
	d="
M147.315369,37.022438 
	C147.562607,36.903053 147.891373,37.086819 148.369202,37.516983 
	C148.144470,37.617447 147.770691,37.471516 147.315369,37.022438 
z"/>
<path fill="#51B25F" opacity="1.000000" stroke="none" 
	d="
M179.176971,37.852230 
	C179.385452,35.546471 179.987625,33.297165 180.574677,30.678875 
	C183.983139,32.811680 183.609528,35.682648 179.176971,37.852230 
z"/>
<path fill="#51B25F" opacity="1.000000" stroke="none" 
	d="
M180.677231,29.960173 
	C178.527176,29.686546 176.483627,29.022829 174.180466,28.274794 
	C174.459702,27.549026 174.783661,26.707016 175.371078,25.614380 
	C177.350937,26.765863 179.067337,28.167973 180.677231,29.960173 
z"/>
<path fill="#2E5187" opacity="1.000000" stroke="none" 
	d="
M57.056244,42.072372 
	C57.310612,41.285648 57.833729,40.675747 58.617516,39.910957 
	C60.175972,40.912987 61.473759,42.069904 63.632553,43.994373 
	C61.470257,45.305470 59.545296,46.472660 57.620338,47.639847 
	C57.521889,45.842960 57.423443,44.046078 57.056244,42.072372 
z"/>
<path fill="#445E80" opacity="1.000000" stroke="none" 
	d="
M61.030975,37.004704 
	C61.030975,37.004704 61.012733,37.499374 61.006683,37.746696 
	C60.586086,38.313908 60.171547,38.633801 59.484966,38.983089 
	C59.435604,38.500778 59.658279,37.989071 60.240967,37.236969 
	C60.600983,36.996571 61.030975,37.004704 61.030975,37.004704 
z"/>
<path fill="#2F5182" opacity="1.000000" stroke="none" 
	d="
M96.537682,18.023552 
	C97.146820,18.580883 97.326851,19.127365 97.748848,19.840008 
	C97.992462,28.137983 98.021622,36.269951 97.976357,44.401505 
	C97.965088,46.426571 98.680397,48.917114 95.152763,49.003929 
	C91.312332,49.098442 92.028419,46.415043 92.016075,44.207150 
	C91.975281,36.905338 92.121864,29.600241 91.945564,22.302469 
	C91.869629,19.159496 92.717087,17.505280 96.537682,18.023552 
z"/>
<path fill="#C6E0F4" opacity="1.000000" stroke="none" 
	d="
M114.308121,68.036598 
	C114.080803,67.591057 114.158607,67.186607 114.347961,66.487747 
	C114.908638,66.482506 115.357765,66.771675 115.806885,67.060852 
	C115.409012,67.399796 115.011131,67.738739 114.308121,68.036598 
z"/>
<path fill="#889DBF" opacity="1.000000" stroke="none" 
	d="
M149.873505,66.347656 
	C149.797089,66.821777 149.453674,67.137131 149.095398,67.688828 
	C148.829575,67.631195 148.578598,67.337227 148.327606,67.043259 
	C148.753906,66.758476 149.180191,66.473686 149.873505,66.347656 
z"/>
<path fill="#C8DFF5" opacity="1.000000" stroke="none" 
	d="
M65.283562,68.126816 
	C64.941711,67.706337 64.883530,67.153778 64.948730,66.357346 
	C65.237160,66.740562 65.402199,67.367661 65.283562,68.126816 
z"/>
<path fill="#3C567D" opacity="1.000000" stroke="none" 
	d="
M61.280144,36.825462 
	C61.030975,37.004704 60.600983,36.996571 60.385963,36.994755 
	C60.216438,34.992535 60.261936,32.992126 60.292442,30.614574 
	C60.559425,30.190302 60.841400,30.143179 61.548286,30.040581 
	C63.216587,32.298199 64.116020,34.588367 61.280144,36.825462 
z"/>
</svg>