<?xml version="1.0" encoding="UTF-8" standalone="no"?>
<!-- Created with Inkscape (http://www.inkscape.org/) -->

<svg
   version="1.1"
   id="svg2"
   xml:space="preserve"
   width="101.33333"
   height="78.666664"
   viewBox="0 0 101.33333 78.666664"
   sodipodi:docname="red-tape-seeklogo.com.eps"
   xmlns:inkscape="http://www.inkscape.org/namespaces/inkscape"
   xmlns:sodipodi="http://sodipodi.sourceforge.net/DTD/sodipodi-0.dtd"
   xmlns="http://www.w3.org/2000/svg"
   xmlns:svg="http://www.w3.org/2000/svg"><defs
     id="defs6" /><sodipodi:namedview
     id="namedview4"
     pagecolor="#ffffff"
     bordercolor="#666666"
     borderopacity="1.0"
     inkscape:pageshadow="2"
     inkscape:pageopacity="0.0"
     inkscape:pagecheckerboard="0" /><g
     id="g8"
     inkscape:groupmode="layer"
     inkscape:label="ink_ext_XXXXXX"
     transform="matrix(1.3333333,0,0,-1.3333333,0,78.666667)"><g
       id="g10"
       transform="scale(0.1)"><path
         d="m 622.871,270.465 h 88.723 v -14.758 h -69.828 v -40.492 h 69.828 v -14.758 h -88.723 v 2.883 11.875 40.492 z m 26.094,-27.899 h 56.867 v -14.753 h -56.867 z m -122.41,-42.847 h 21.617 v 56.039 h 48.031 v -14.414 h -45.23 l 12.609,-14.207 h 39.625 c 7.844,0 13.012,6.789 13.012,15.211 v 13.41 c 0,9.465 -7.156,15.008 -13.41,15.008 h -75.653 z m -113.477,0.601 h 25.817 l 28.218,53.633 15.813,-26.219 h -24.215 l -8.606,-15.609 h 39.625 l 6.766,-11.715 h 25.258 l -40.43,71.957 h -28.82 z m -70.301,71.942 h 89.797 v -16.196 h -35.09 v -56.418 h -19.613 v 56.418 h -35.094 z m -101.859,-1.438 h 75.945 c 6.926,0 12.594,-5.672 12.594,-12.597 v -45.172 c 0,-6.926 -5.668,-12.598 -12.594,-12.598 h -75.945 z m 19.707,-14.398 h 49.129 v -41.571 h -49.129 z m -114.723,14.039 h 88.719 v -14.758 h -69.828 v -40.492 h 69.828 v -14.758 h -88.719 v 2.883 11.875 40.492 z m 26.09,-27.899 h 56.867 V 227.813 H 171.992 Z M 46.0234,199.195 h 21.0547 v 56.871 H 115.125 V 242.211 H 69.418 l 41.57,-43.016 h 28.254 l -27.715,29.696 h 15.297 c 4.395,2.015 7.848,5.601 9.356,12.418 v 19.078 c -2.614,8.047 -7.817,11.504 -14.754,11.875 H 46.5625 l -0.5391,-73.067"
         style="fill:#ed1c24;fill-opacity:1;fill-rule:evenodd;stroke:none"
         id="path12" /><path
         d="m 305.457,350.668 h 41.004 c -0.438,-4.734 -2.137,-9.191 -2.027,-13.922 l -23.965,-0.492 c -7.215,3.223 -11.535,8.516 -15.012,14.414 z m -19.613,20.211 h 66.019 c -0.695,-5.652 -2.41,-9.867 -2.027,-13.922 l -48.981,-0.488 c -7.214,3.222 -11.535,8.515 -15.011,14.41 z m -19.012,20.016 h 89.461 c -1.91,-4.434 -3.332,-8.954 -2.031,-13.922 l -72.418,-0.493 c -7.219,3.223 -11.539,8.516 -15.012,14.415 z m 98.668,-70.649 9.605,49.031 c 0.899,4.594 4.247,6.344 9.606,6.407 l 89.059,1 c 6.738,3.39 12.171,8.339 17.011,14.007 H 372.105 c -5.093,0 -9.89,-4.336 -11.21,-10.007 l -9.004,-38.625 c -1.157,-4.946 -0.86,-9.379 2.199,-12.008 z m 16.156,50.043 h 89.258 c -4.254,-5.555 -9.105,-10.121 -14.496,-13.785 H 395.02 l -4.977,-23.024 c -0.48,-2.23 0.312,-4.117 4.191,-3.937 l 14.571,0.668 -10.047,-9.395 h -23.875 c -2.813,0 -3.012,5.129 -2.324,8.258 z m 71.25,-19.426 h -52.609 l -2.774,-13.918 40.375,-0.488 c 7.219,3.223 11.536,8.516 15.008,14.406"
         style="fill:#ed1c24;fill-opacity:1;fill-rule:evenodd;stroke:none"
         id="path14" /></g></g></svg>
