<svg version="1.1" id="Layer_1" xmlns="http://www.w3.org/2000/svg" xmlns:xlink="http://www.w3.org/1999/xlink" x="0px" y="0px"
	 width="100%" viewBox="0 0 200 200" enable-background="new 0 0 200 200" xml:space="preserve">
<path fill="#FCFCFB" opacity="1.000000" stroke="none" 
	d="
M201.000000,78.000000 
	C201.000000,108.354225 201.000000,138.708450 200.660522,169.582336 
	C196.656754,175.265289 192.741730,180.274719 189.436890,185.658691 
	C187.851898,188.240799 190.271408,189.621185 192.581497,189.862671 
	C195.362061,190.153381 198.191635,189.975189 201.000000,190.000000 
	C201.000000,193.663940 201.000000,197.327866 201.000000,200.993866 
	C134.385696,200.995911 67.771385,200.995911 1.078541,200.995911 
	C1.078541,134.435410 1.078541,67.870689 1.078541,1.000000 
	C59.687206,1.000000 118.374947,1.000000 177.526337,1.372716 
	C175.848511,6.994728 175.194366,13.732440 166.805191,12.665277 
	C166.052109,12.569477 165.183121,13.384848 163.119995,14.377501 
	C167.950470,17.673513 171.768326,20.680233 175.956635,23.025333 
	C180.286835,25.449898 181.837204,28.849478 179.767883,33.988312 
	C179.328491,33.987503 179.152740,33.990204 178.742676,33.992813 
	C178.508362,33.992722 178.039749,33.990368 177.633774,33.981014 
	C174.927979,34.507259 172.628159,35.042862 170.328339,35.578461 
	C170.467972,35.954937 170.607620,36.331413 170.747253,36.707886 
	C171.494064,36.493488 172.240860,36.279091 172.989471,36.457985 
	C171.945786,38.707539 170.900284,40.563797 169.559921,42.323982 
	C168.470245,41.589111 167.675446,40.950310 166.886475,39.941330 
	C165.728592,36.898567 164.159424,35.144566 160.742386,36.981018 
	C160.126450,36.936180 159.776627,36.884388 159.168335,36.559937 
	C154.283447,35.150833 149.657013,34.014397 144.764587,32.699291 
	C143.654877,32.452625 142.811188,32.384628 141.514343,32.194725 
	C125.191093,32.072819 109.320984,32.072819 93.136299,32.072819 
	C93.273460,34.434875 93.377708,36.230011 93.383743,38.479675 
	C93.353607,43.620483 93.421684,48.306763 93.376160,53.420361 
	C93.326912,55.906456 93.391266,57.965225 93.367798,60.344643 
	C93.338158,61.100773 93.396355,61.536255 93.348412,62.402969 
	C93.315544,64.895538 93.388809,66.956879 93.368660,69.408119 
	C93.337158,70.859543 93.399078,71.921059 93.352600,73.326324 
	C94.180260,74.316078 95.116295,74.962082 96.509811,75.693237 
	C103.298752,75.721397 109.630234,75.664406 116.391479,75.707352 
	C118.413437,75.807274 120.005638,75.807274 121.956802,75.807274 
	C121.956802,70.169167 121.956802,65.084381 121.992332,59.983978 
	C122.027863,59.968353 122.000290,59.895782 122.361374,59.890625 
	C125.468079,61.270370 128.213699,62.655273 130.979355,64.020088 
	C130.999390,64.000000 130.963394,64.043098 131.131546,64.290146 
	C131.843353,64.758110 132.386993,64.979019 133.069839,65.416748 
	C133.530060,65.737106 133.851089,65.840660 134.340683,66.160202 
	C135.000916,66.571327 135.492599,66.766464 136.070374,67.080292 
	C136.156479,67.198990 136.449478,67.186424 136.624954,67.442680 
	C137.187927,67.818008 137.575409,67.937080 137.970734,68.024261 
	C137.978577,67.992371 137.938690,68.045212 138.107269,68.293350 
	C138.822510,68.760521 139.369171,68.979546 139.916245,69.152092 
	C139.916672,69.105606 139.832153,69.144363 139.990982,69.402245 
	C140.705536,69.883453 141.261276,70.106781 141.831665,70.264030 
	C141.846344,70.197952 141.718567,70.242683 141.850281,70.479454 
	C142.321304,70.812653 142.660629,70.909073 142.999969,71.002441 
	C143.000000,70.999390 142.992844,71.002113 143.167908,71.241699 
	C143.883240,71.690086 144.423477,71.898880 144.967560,72.066254 
	C144.971405,72.024841 144.902176,72.070953 145.080200,72.350159 
	C146.830612,73.429199 148.403000,74.229019 149.987396,75.014267 
	C149.999390,74.999695 149.971954,75.027351 150.140549,75.272217 
	C150.852203,75.730339 151.395279,75.943596 151.940399,76.111427 
	C151.942444,76.065994 151.862946,76.110176 152.048798,76.394753 
	C153.891632,77.651894 155.678360,78.463058 157.159805,79.653976 
	C158.141083,80.442841 158.684814,81.776001 159.293106,82.846466 
	C159.161789,82.827454 159.010162,83.045235 158.689606,83.081299 
	C157.138962,83.937019 155.908859,84.756683 154.839813,85.712570 
	C155.000870,85.848801 154.704269,85.548752 154.378006,85.621887 
	C153.513092,86.065659 152.974442,86.436295 152.298828,86.799988 
	C152.161865,86.793060 152.013443,87.023689 151.700195,87.056778 
	C150.556061,87.700363 149.725189,88.310860 148.932465,88.954788 
	C148.970596,88.988220 148.935791,88.892937 148.589905,88.937271 
	C146.132355,90.299332 144.020676,91.617058 141.942474,92.965607 
	C141.975952,92.996445 141.946915,92.910172 141.613220,92.956802 
	C139.809799,93.968079 138.340088,94.932716 136.910400,95.926971 
	C136.950439,95.956596 136.931519,95.858803 136.665741,95.885429 
	C136.144318,96.140434 135.888657,96.368813 135.766998,96.629707 
	C135.900986,96.662216 135.654175,96.539207 135.365921,96.594650 
	C134.625656,96.995453 134.173645,97.340820 133.838074,97.767563 
	C133.954529,97.848946 133.754517,97.647141 133.420502,97.717308 
	C131.390091,98.858574 129.693680,99.929672 127.998634,101.000534 
	C128.000000,101.000305 128.001480,100.998444 127.670929,101.040413 
	C125.881531,102.017090 124.422676,102.951805 122.773117,103.876297 
	C122.582405,103.866089 122.201515,103.894821 122.147629,103.437241 
	C122.093735,98.017021 122.093735,93.054382 122.093735,87.899872 
	C112.283447,87.899872 102.903633,87.899872 93.465500,87.899872 
	C93.465500,99.489014 93.465500,110.754234 93.373116,122.383072 
	C93.339470,123.489487 93.398216,124.232292 93.347839,125.373901 
	C92.626938,129.009720 94.213989,129.618973 97.139351,129.587875 
	C110.055061,129.450531 122.985748,129.863968 135.884659,129.378204 
	C142.032852,129.146667 148.122177,127.352112 154.181274,126.250290 
	C154.124390,126.235039 154.167740,126.344582 154.504944,126.328407 
	C155.629105,125.943138 156.416061,125.574036 157.149673,125.181198 
	C157.096344,125.157471 157.137360,125.266769 157.486145,125.246140 
	C159.251022,124.506165 160.667130,123.786819 162.051880,123.032104 
	C162.020523,122.996750 162.056381,123.084099 162.374802,123.065483 
	C163.551498,122.462006 164.409775,121.877144 165.193420,121.233513 
	C165.118774,121.174744 165.212448,121.340042 165.503738,121.279434 
	C166.219879,120.827660 166.644714,120.436493 167.040131,120.022568 
	C167.010696,119.999809 167.038971,120.068642 167.332275,120.011246 
	C168.201645,119.429115 168.777710,118.904373 169.256134,118.272987 
	C169.158463,118.166336 169.303513,118.416557 169.591492,118.343620 
	C170.289276,117.872849 170.699081,117.475014 171.064117,117.048859 
	C171.019333,117.020546 171.073135,117.111816 171.389481,117.012756 
	C173.182495,115.301483 174.659164,113.689285 176.360168,111.980148 
	C176.861679,111.668274 177.005219,111.385498 177.289673,110.885658 
	C178.093246,109.859322 178.622284,108.982208 179.103333,108.080086 
	C179.055328,108.055069 179.098038,108.154556 179.340286,108.047173 
	C179.700867,107.620857 179.819199,107.301926 180.054337,106.894409 
	C180.171143,106.805824 180.167862,106.512642 180.428513,106.343712 
	C180.817490,105.791489 180.945801,105.408203 181.038239,105.022324 
	C181.002365,105.019730 181.050568,105.073143 181.304535,104.879440 
	C181.868500,103.901054 182.178482,103.116371 182.419449,102.180222 
	C182.350433,102.028763 182.442017,102.348808 182.649033,102.182770 
	C182.915207,101.674301 182.974350,101.331886 183.138016,100.908203 
	C183.242538,100.826942 183.187393,100.567955 183.469696,100.307281 
	C184.859131,96.364799 185.966263,92.683006 187.370575,88.959137 
	C187.549103,87.629974 187.430481,86.342888 187.248459,84.608788 
	C187.228302,81.755470 187.271545,79.349167 187.529587,76.713402 
	C188.388168,74.514595 192.399551,72.028305 186.809326,70.896469 
	C186.715805,70.791428 186.853195,70.545967 186.847900,70.263382 
	C186.653580,69.666199 186.464569,69.351601 186.155518,68.689590 
	C185.919632,67.617180 185.803772,66.892181 185.985687,65.971497 
	C185.783646,64.896713 185.283813,64.017601 184.835022,63.098351 
	C184.886078,63.058220 184.843460,63.180882 184.876404,62.863766 
	C184.605438,62.031021 184.301529,61.515392 183.887421,60.921677 
	C183.777237,60.843586 183.844345,60.581936 183.822784,60.276299 
	C183.563278,59.652126 183.325317,59.333588 182.917511,58.827927 
	C182.707916,58.477077 182.668182,58.313358 182.917633,57.987740 
	C182.457489,56.892002 181.708130,55.958160 180.982239,55.017006 
	C181.005692,55.009689 180.970352,55.044724 180.981689,54.613014 
	C180.725754,52.404568 181.841858,49.522949 177.869049,50.377838 
	C177.088501,49.526630 176.520493,48.833553 175.967178,47.744385 
	C176.316544,45.900467 176.651199,44.452637 177.305176,42.986946 
	C179.420456,42.647442 181.216400,42.325798 183.411133,42.003365 
	C187.285492,43.952129 190.829697,45.796631 194.158112,47.971405 
	C194.624695,48.276268 194.418030,50.976868 193.869354,51.248608 
	C190.306122,53.013248 190.362473,56.330307 191.148499,58.994999 
	C192.606049,63.936150 194.787109,68.693413 197.009125,73.364449 
	C197.854004,75.140541 199.641907,76.468040 201.000000,78.000000 
M152.010834,165.487732 
	C151.675079,165.655838 151.339340,165.823959 150.742630,166.589645 
	C151.501816,167.722794 152.261017,168.855942 153.666122,169.723099 
	C153.762207,168.824097 153.858292,167.925110 153.797058,166.389206 
	C153.198929,166.245483 152.600800,166.101746 151.996506,166.004013 
	C151.996506,166.004013 152.040421,165.989014 152.010834,165.487732 
M33.980667,168.439667 
	C34.369953,168.309647 34.759243,168.179626 35.894386,168.033096 
	C39.823559,168.678802 43.752735,169.324509 48.085613,170.558884 
	C49.116066,170.380417 50.146519,170.201965 51.671509,169.987808 
	C51.671509,169.987808 52.162537,169.919006 52.734856,169.945816 
	C53.228119,169.734634 53.721386,169.523453 54.812824,169.258408 
	C55.474270,169.156784 56.135715,169.055145 56.797157,168.953537 
	C55.921162,168.544815 55.045166,168.136093 54.199200,167.082047 
	C53.413055,167.040009 52.626907,166.997971 51.149994,166.555664 
	C47.176826,166.023026 43.214436,165.276047 39.224575,165.075500 
	C37.852375,165.006531 36.411602,166.301743 34.451031,166.715576 
	C33.865490,167.020508 33.279949,167.325439 32.233952,167.704651 
	C31.919998,167.715057 31.606955,167.737930 31.094643,167.154922 
	C31.026512,167.003036 30.988497,166.823105 30.881104,166.707748 
	C30.788706,166.608505 30.617155,166.582962 30.480602,166.524826 
	C30.286966,167.378052 30.093330,168.231293 29.899693,169.084534 
	C30.384335,169.138107 30.868977,169.191696 31.913757,169.188660 
	C32.397011,168.931229 32.880260,168.673798 33.980667,168.439667 
M28.006645,83.997635 
	C28.006645,83.997635 28.047874,83.927757 28.069824,84.539543 
	C28.726780,84.642014 29.383736,84.744484 30.723997,84.858055 
	C31.177729,84.897064 31.631462,84.936066 32.750195,84.912674 
	C34.056274,83.961197 35.362354,83.009720 36.922001,82.668289 
	C36.975395,83.103577 37.028790,83.538864 36.516960,84.424194 
	C38.057705,87.910645 39.598450,91.397095 41.065819,94.838280 
	C41.065819,94.838280 41.151730,94.846794 41.162312,95.604988 
	C42.489014,96.012062 43.815716,96.419136 45.184700,96.873093 
	C45.184700,96.873093 45.171928,96.810249 45.012348,97.491875 
	C44.011688,98.318443 43.011032,99.145012 41.366589,100.067116 
	C40.932755,100.067314 40.498920,100.067513 39.314068,100.000092 
	C37.864246,101.286499 36.414425,102.572914 34.382370,104.207626 
	C32.248600,106.137070 30.114828,108.066513 27.389988,109.676872 
	C26.883190,108.724937 26.376392,107.772995 26.071722,106.305473 
	C26.431032,105.886528 26.790342,105.467590 27.814117,104.910080 
	C28.125746,104.152763 28.437372,103.395447 28.893591,102.127335 
	C29.228355,101.729095 29.563118,101.330856 30.426737,100.715408 
	C30.548374,100.369926 30.670012,100.024437 30.878620,99.318550 
	C30.878620,99.318550 31.110432,99.029213 31.685999,98.953377 
	C31.977400,98.615440 32.268799,98.277504 32.560204,97.939575 
	C32.072105,97.618347 31.584007,97.297119 30.628958,96.848106 
	C30.315683,96.732498 30.062725,96.538315 29.594629,95.599686 
	C27.772663,95.043152 25.950697,94.486618 24.060301,93.970985 
	C24.060301,93.970985 24.044712,93.892807 23.946905,93.208740 
	C22.047922,89.805367 20.084425,90.974808 18.072906,93.041168 
	C18.072906,93.041168 18.118784,93.132919 17.522820,93.101128 
	C17.355391,93.735359 17.187963,94.369591 16.914278,95.572205 
	C16.608393,96.051460 16.302509,96.530724 15.279291,97.122643 
	C14.610495,98.873100 13.941698,100.623550 13.146347,103.011703 
	C12.441588,104.343040 11.736830,105.674385 10.534043,107.343330 
	C10.462773,107.723434 10.391502,108.103539 10.277468,108.795952 
	C10.277468,108.795952 10.055346,109.019630 9.352749,109.100243 
	C6.149514,113.722473 6.120589,113.868301 8.429637,116.202644 
	C8.700446,116.403427 8.898001,116.660507 9.065640,117.678749 
	C12.116596,119.406731 15.167553,121.134712 18.632866,122.931297 
	C18.632866,122.931297 18.984449,123.161057 19.284639,123.600121 
	C19.620443,123.674049 19.956247,123.747986 20.668242,123.866196 
	C20.668242,123.866196 20.979380,124.082237 21.133900,124.809868 
	C22.243853,125.095230 23.353804,125.380592 24.779173,125.695374 
	C24.779173,125.695374 25.020617,125.900459 25.375879,126.464096 
	C26.003736,126.584488 26.631596,126.704880 27.655399,126.858917 
	C27.655399,126.858917 28.000708,127.055565 28.388826,127.581482 
	C29.227919,127.733406 30.067011,127.885330 31.463301,128.072586 
	C31.637096,128.139145 31.810890,128.205704 32.301689,128.667786 
	C32.625820,128.723938 32.949947,128.780090 33.963799,128.860947 
	C34.638199,128.998199 35.312599,129.135468 36.397259,129.856277 
	C41.397625,132.746780 46.649769,132.545303 52.796150,131.021942 
	C53.863247,131.052078 54.930340,131.082230 56.553226,131.612411 
	C58.723633,131.169449 60.894035,130.726501 63.690708,130.078949 
	C64.127960,130.054459 64.565208,130.029984 65.458214,130.510849 
	C67.070572,130.314789 68.934799,130.569763 70.247307,129.836777 
	C73.949715,127.769157 77.425575,125.295853 81.254715,122.542419 
	C81.548637,122.378448 81.842560,122.214470 82.555595,121.899956 
	C82.816689,121.722839 82.973228,121.478683 83.413101,120.671631 
	C84.290817,119.786064 85.168533,118.900497 86.513840,117.807343 
	C86.652687,117.507652 86.791534,117.207970 86.982338,117.000504 
	C86.982338,117.000504 86.905205,116.927933 87.644165,116.862175 
	C88.035805,115.815353 88.427444,114.768524 88.888672,113.345200 
	C88.888672,113.345200 89.110443,113.033081 89.836754,112.851906 
	C90.234322,110.923958 90.631889,108.996017 90.991150,107.022949 
	C90.991150,107.022949 91.045357,106.999199 91.470726,106.728226 
	C91.409279,106.152161 91.347832,105.576088 91.237663,104.213898 
	C91.375008,103.443878 91.512360,102.673866 91.897331,101.596001 
	C91.829369,101.103188 91.761414,100.610374 91.476479,99.310127 
	C91.430214,98.198151 91.383949,97.086174 91.748993,95.380203 
	C91.156502,93.592842 90.564018,91.805481 89.758598,89.745331 
	C89.758598,89.745331 89.721191,89.401314 89.880486,88.586105 
	C88.784065,81.698692 83.729820,78.533539 77.930077,75.297371 
	C77.611847,74.201553 77.293625,73.105736 77.509277,71.639626 
	C78.007767,70.449043 78.506256,69.258469 79.455978,67.808441 
	C79.618309,67.511978 79.780647,67.215523 80.001076,66.994957 
	C80.001076,66.994957 79.929268,66.932259 80.676796,66.873993 
	C81.058365,65.803116 81.439934,64.732231 81.900658,63.008289 
	C82.356842,62.020195 82.813026,61.032104 83.985649,59.903770 
	C84.584297,58.133095 85.182945,56.362419 85.772446,54.253231 
	C85.772446,54.253231 85.980598,53.986122 86.695961,53.886696 
	C87.730171,51.127838 88.764374,48.368977 89.828491,45.262978 
	C89.828491,45.262978 90.071556,45.013344 90.741783,44.906357 
	C90.855286,43.612358 90.968788,42.318359 90.687897,40.673977 
	C90.455597,40.410526 90.223289,40.147072 89.772011,39.453297 
	C89.546127,39.191959 89.260437,39.060997 88.998093,39.012581 
	C88.998093,39.012581 88.936516,39.086182 88.862038,38.357067 
	C87.586639,37.896172 86.311241,37.435276 85.005066,37.003666 
	C85.005066,37.003666 85.020050,36.964893 84.906425,36.259567 
	C79.422493,32.837303 73.729034,30.135529 66.321777,31.093466 
	C65.891289,30.997850 65.460793,30.902235 64.822319,30.078573 
	C64.456902,29.766209 64.137169,29.274080 63.719357,29.167927 
	C54.666912,26.867916 45.717918,28.268709 36.884525,30.331406 
	C34.446556,30.900700 32.320076,32.803940 29.697935,34.528591 
	C29.176085,34.705341 28.654236,34.882088 27.665060,35.108921 
	C27.351402,35.223457 27.132223,35.435593 26.666498,36.030323 
	C26.666498,36.030323 26.233397,36.130039 25.459366,36.047863 
	C24.735523,36.799557 24.011681,37.551250 23.007355,38.125721 
	C23.007355,38.125721 23.287647,38.291378 22.555525,38.182194 
	C22.091473,38.889431 21.627420,39.596672 20.887712,40.828449 
	C20.209436,41.544052 19.531160,42.259655 18.129848,42.982445 
	C16.094688,45.874599 12.954006,48.533844 12.284098,51.713627 
	C11.285276,56.454624 11.618840,61.612709 12.212778,66.492638 
	C12.490108,68.771248 14.706084,70.813904 16.000757,73.000587 
	C16.000757,73.000587 16.040039,72.961334 15.987231,73.688103 
	C16.691277,74.440407 17.395321,75.192719 18.542425,76.177879 
	C18.685598,76.473190 18.828772,76.768509 18.966871,77.802330 
	C19.760479,81.762772 22.586412,82.863388 26.625433,83.008614 
	C26.625433,83.008614 27.005398,83.295448 27.251926,83.665009 
	C27.483250,83.881500 27.756804,83.976616 28.006645,83.997635 
M118.010414,168.541412 
	C119.012566,169.020676 120.014717,169.499939 121.726639,169.799301 
	C121.644783,168.623886 121.562935,167.448471 121.481079,166.273056 
	C120.986397,166.513748 120.491714,166.754440 119.419838,167.024170 
	C118.937531,167.295273 118.455223,167.566391 118.010414,168.541412 
M131.497253,170.154465 
	C132.431793,169.782898 133.366348,169.411331 134.551727,169.093475 
	C134.551727,169.093475 134.808243,169.091415 135.463104,168.937637 
	C135.766403,167.471359 138.467056,165.227951 133.503738,165.090393 
	C132.738022,165.047729 131.972305,165.005051 130.879593,164.606964 
	C130.515152,164.728302 130.150711,164.849655 129.363922,164.735275 
	C128.951416,164.485153 128.538910,164.235016 127.763672,163.690598 
	C127.431686,164.121643 127.099693,164.552704 126.064507,165.026703 
	C125.602928,165.109940 125.141350,165.193192 124.314659,165.843597 
	C124.554230,167.329666 124.793800,168.815750 125.470879,170.699326 
	C126.049744,170.760712 126.628609,170.822098 127.609680,170.720810 
	C127.816895,170.515396 127.989197,170.283981 128.566147,169.797546 
	C128.988281,169.540054 129.410431,169.282562 130.018631,169.500702 
	C130.307632,169.636963 130.596619,169.773224 131.497253,170.154465 
M110.703644,169.563324 
	C110.718361,168.845413 110.733086,168.127518 110.747803,167.409607 
	C110.427391,167.597946 110.106979,167.786285 109.084145,167.987198 
	C108.231232,168.544128 107.378319,169.101059 106.525398,169.657990 
	C107.748451,169.734177 108.971497,169.810364 110.703644,169.563324 
M87.837242,169.482056 
	C87.837242,169.482056 87.797249,169.487473 87.757339,170.274048 
	C88.782211,170.054153 89.807091,169.834244 90.831963,169.614334 
	C90.772942,169.240891 90.713928,168.867432 90.654907,168.493988 
	C89.179169,168.105789 87.703423,167.717606 86.227684,167.329407 
	C86.060181,167.635101 85.892670,167.940781 85.725166,168.246475 
	C86.413330,168.658646 87.101494,169.070816 87.837242,169.482056 
M146.912933,147.475128 
	C146.925537,147.642883 146.938141,147.810623 146.446259,148.486542 
	C146.113129,149.859451 145.780014,151.232361 145.446884,152.605270 
	C144.892319,152.725311 144.337753,152.845367 143.783188,152.965408 
	C142.831177,149.850037 141.879181,146.734665 140.791656,143.175812 
	C136.598480,146.259888 137.700272,150.324600 138.716934,153.608109 
	C139.109940,154.877396 142.652176,155.443634 144.845428,155.795105 
	C146.517273,156.063004 148.324371,155.486877 150.707428,155.171951 
	C151.129410,155.084885 151.551376,154.997833 152.326950,155.444168 
	C154.864426,155.313217 157.401901,155.182251 160.792145,154.947021 
	C161.361145,151.196793 161.930145,147.446564 162.499146,143.696350 
	C161.930588,143.609756 161.362030,143.523163 160.793457,143.436584 
	C160.483505,144.266281 160.173553,145.095978 159.056244,145.947830 
	C156.706024,146.301270 154.355820,146.654724 151.354935,146.828491 
	C150.237091,146.222244 149.119263,145.615997 147.497192,145.321014 
	C147.320663,145.871826 147.144135,146.422653 146.912933,147.475128 
M115.842880,145.541321 
	C115.662903,145.255203 115.414879,145.052231 114.524826,144.599396 
	C112.184731,144.445831 109.844643,144.292282 107.504547,144.138718 
	C107.688736,146.727631 107.872925,149.316544 108.175041,153.562973 
	C111.662979,151.565002 113.868507,150.301620 116.636162,149.093872 
	C117.860962,151.255249 119.085762,153.416626 121.121696,157.009399 
	C122.338104,153.376053 123.210602,150.769958 124.690285,148.610001 
	C125.272346,155.315903 125.761322,155.749542 129.741547,154.590317 
	C129.470444,152.377014 129.231262,150.374741 128.976669,148.374435 
	C128.895935,147.740112 128.954041,146.999191 128.642212,146.497482 
	C126.438835,142.952347 124.963860,146.830643 122.389511,147.089630 
	C120.259766,146.724518 118.130028,146.359406 116.000610,145.999390 
	C116.000610,145.999390 116.005348,146.001282 115.842880,145.541321 
M64.451393,145.254501 
	C61.576775,145.137436 58.520763,144.422348 55.920860,145.210968 
	C54.942795,145.507645 54.282932,149.479492 54.782688,151.443985 
	C55.666748,154.919098 58.712330,155.560333 62.933304,154.945770 
	C66.953636,154.805206 70.973961,154.664642 75.548271,154.945786 
	C76.673531,153.988052 78.433937,153.221878 78.792519,152.032898 
	C79.551315,149.516861 80.310646,149.398727 81.910393,151.950439 
	C82.223099,153.781738 82.535805,155.613037 82.888016,157.675674 
	C87.430824,159.658051 90.215019,157.836716 91.562714,153.126221 
	C94.593300,154.544312 97.506363,157.091797 100.879028,152.614990 
	C100.312378,150.732208 100.252892,147.811279 99.052856,147.225037 
	C97.493835,146.463425 95.027832,147.558426 92.198524,147.945862 
	C88.918907,145.484009 85.480736,145.811844 81.423973,146.806335 
	C79.117844,146.645767 76.199593,144.156509 74.356255,148.214722 
	C71.578758,147.833542 68.801254,147.452347 65.766144,146.554596 
	C65.449028,146.345993 65.131912,146.137390 64.451393,145.254501 
M37.624744,149.879364 
	C36.578251,149.106354 35.531757,148.333328 34.359539,147.467453 
	C35.162846,146.759506 35.940678,146.074020 36.718510,145.388519 
	C36.597408,144.900925 36.476307,144.413315 36.355206,143.925720 
	C34.156025,144.383301 31.475662,144.264069 29.953829,145.533615 
	C29.152403,146.202179 30.374598,149.296509 30.831795,152.259369 
	C30.969942,152.040604 30.380527,152.973984 29.791115,153.907349 
	C30.037910,154.414917 30.284704,154.922501 30.531500,155.430069 
	C32.767693,154.827377 35.003887,154.224686 37.943680,153.391632 
	C38.440994,153.715027 38.954330,154.338623 39.433010,154.313080 
	C42.526184,154.147934 45.836399,154.403320 48.589130,153.303558 
	C49.687466,152.864761 50.343964,149.099625 49.807377,147.254059 
	C48.711250,143.483963 45.093628,143.819656 41.915817,143.858932 
	C37.633770,143.911880 39.762997,147.483337 38.833645,149.376785 
	C38.626575,149.798676 38.243919,150.134369 37.624744,149.879364 
M33.481323,170.630646 
	C33.481323,170.630646 33.632690,170.317429 33.632690,170.317429 
	C33.632690,170.317429 33.332272,170.378662 33.481323,170.630646 
z"/>
<path fill="#F8F8FA" opacity="1.000000" stroke="none" 
	d="
M169.854782,42.420052 
	C170.900284,40.563797 171.945786,38.707539 173.386932,36.441193 
	C175.201630,35.350861 176.620682,34.670612 178.039749,33.990364 
	C178.039749,33.990368 178.508362,33.992722 178.837128,34.167984 
	C179.454437,34.226105 179.742981,34.108963 180.031525,33.991817 
	C181.837204,28.849478 180.286835,25.449898 175.956635,23.025333 
	C171.768326,20.680233 167.950470,17.673513 163.119995,14.377501 
	C165.183121,13.384848 166.052109,12.569477 166.805191,12.665277 
	C175.194366,13.732440 175.848511,6.994728 177.994995,1.372716 
	C181.030594,1.000000 184.061188,1.000000 187.546494,1.393694 
	C188.906189,4.528480 189.811172,7.269570 190.911102,10.601137 
	C186.663208,11.983084 182.399857,13.370064 176.510986,15.285869 
	C181.907364,20.317360 185.906418,25.748310 191.278183,28.465033 
	C194.950974,30.322523 196.594193,31.674112 197.247452,35.503967 
	C197.531219,37.167599 199.691833,38.511097 201.000000,40.000000 
	C201.000000,52.354229 201.000000,64.708458 201.000000,77.531342 
	C199.641907,76.468040 197.854004,75.140541 197.009125,73.364449 
	C194.787109,68.693413 192.606049,63.936150 191.148499,58.994999 
	C190.362473,56.330307 190.306122,53.013248 193.869354,51.248608 
	C194.418030,50.976868 194.624695,48.276268 194.158112,47.971405 
	C190.829697,45.796631 187.285492,43.952129 183.411560,41.673084 
	C183.011887,40.903328 183.010590,40.463055 183.083801,39.730240 
	C182.811783,38.673912 182.465256,37.910126 181.918060,36.884125 
	C176.800186,36.273647 178.800949,41.053539 176.985855,43.004807 
	C176.651199,44.452637 176.316544,45.900467 175.669983,47.599365 
	C173.523651,46.040310 171.689209,44.230183 169.854782,42.420052 
z"/>
<path fill="#F5F7F7" opacity="1.000000" stroke="none" 
	d="
M201.000000,39.531342 
	C199.691833,38.511097 197.531219,37.167599 197.247452,35.503967 
	C196.594193,31.674112 194.950974,30.322523 191.278183,28.465033 
	C185.906418,25.748310 181.907364,20.317360 176.510986,15.285869 
	C182.399857,13.370064 186.663208,11.983084 190.911102,10.601137 
	C189.811172,7.269570 188.906189,4.528480 188.000610,1.393694 
	C192.296539,1.000000 196.593063,1.000000 201.000000,1.000000 
	C201.000000,13.687384 201.000000,26.375034 201.000000,39.531342 
z"/>
<path fill="#F9F9F9" opacity="1.000000" stroke="none" 
	d="
M201.000000,189.531586 
	C198.191635,189.975189 195.362061,190.153381 192.581497,189.862671 
	C190.271408,189.621185 187.851898,188.240799 189.436890,185.658691 
	C192.741730,180.274719 196.656754,175.265289 200.660522,170.050995 
	C201.000000,176.354401 201.000000,182.708786 201.000000,189.531586 
z"/>
<path fill="#323C90" opacity="1.000000" stroke="none" 
	d="
M169.559921,42.323986 
	C171.689209,44.230183 173.523651,46.040310 175.655273,47.995457 
	C176.520493,48.833553 177.088501,49.526630 177.926605,50.700790 
	C179.121262,52.469490 180.045807,53.757107 180.970352,55.044724 
	C180.970352,55.044724 181.005692,55.009689 181.012817,55.318947 
	C181.556122,56.468685 182.092270,57.309162 182.628418,58.149639 
	C182.668182,58.313358 182.707916,58.477077 182.925964,59.137543 
	C183.350967,59.950169 183.597656,60.266052 183.844345,60.581936 
	C183.844345,60.581936 183.777237,60.843586 183.883667,61.231796 
	C184.274567,62.140297 184.559006,62.660587 184.843460,63.180882 
	C184.843460,63.180882 184.886078,63.058220 184.842377,63.451897 
	C184.875717,64.546753 184.952759,65.247925 185.005859,66.401619 
	C187.003235,78.231506 185.557480,89.424332 183.187393,100.567955 
	C183.187393,100.567955 183.242538,100.826942 182.908112,101.064133 
	C182.529800,101.650490 182.485916,101.999649 182.442017,102.348808 
	C182.442017,102.348808 182.350433,102.028763 182.062515,102.233414 
	C181.533249,103.316422 181.291901,104.194778 181.050568,105.073143 
	C181.050568,105.073143 181.002365,105.019730 180.778809,105.191956 
	C180.426132,105.747002 180.296997,106.129822 180.167862,106.512642 
	C180.167862,106.512642 180.171143,106.805824 179.836487,107.026337 
	C179.367233,107.549423 179.232635,107.851990 179.098038,108.154556 
	C179.098038,108.154556 179.055328,108.055069 178.744537,108.097694 
	C177.960892,109.105179 177.488007,110.070030 177.015137,111.034889 
	C177.005219,111.385498 176.861679,111.668274 176.005798,111.988297 
	C173.975769,113.766205 172.524445,115.439011 171.073135,117.111816 
	C171.073135,117.111816 171.019333,117.020546 170.734131,117.053810 
	C170.067108,117.530235 169.685318,117.973396 169.303513,118.416557 
	C169.303513,118.416557 169.158463,118.166336 168.907776,118.192184 
	C168.117722,118.834900 167.578354,119.451775 167.038971,120.068642 
	C167.038971,120.068642 167.010696,119.999809 166.717560,120.032913 
	C166.020447,120.490692 165.616455,120.915367 165.212448,121.340042 
	C165.212448,121.340042 165.118774,121.174744 164.819702,121.150192 
	C163.699203,121.778465 162.877792,122.431282 162.056381,123.084099 
	C162.056381,123.084099 162.020523,122.996750 161.668320,123.004150 
	C159.923203,123.763290 158.530289,124.515030 157.137360,125.266769 
	C157.137360,125.266769 157.096344,125.157471 156.781708,125.116486 
	C155.700638,125.498528 154.934189,125.921547 154.167740,126.344574 
	C154.167740,126.344582 154.124390,126.235039 153.747131,126.162415 
	C145.677261,126.730804 137.994827,127.681038 130.289459,127.935059 
	C120.519455,128.257111 110.725929,127.839340 100.952972,128.113007 
	C97.735420,128.203110 95.357391,127.460892 93.456955,124.975090 
	C93.398216,124.232292 93.339470,123.489487 93.724411,122.235687 
	C94.441216,119.657066 94.928970,117.591637 94.950104,115.521439 
	C95.038689,106.844322 94.987480,98.165779 94.987480,88.990929 
	C100.707878,88.990929 105.642540,88.990265 110.577209,88.991074 
	C120.799141,88.992760 119.913826,88.124138 120.112503,98.284492 
	C120.149323,100.167496 121.472198,102.025352 122.201515,103.894821 
	C122.201515,103.894821 122.582405,103.866089 122.971085,104.150131 
	C126.509697,105.454193 127.374504,103.386971 128.001480,100.998444 
	C128.001480,100.998444 128.000000,101.000305 128.378235,101.008881 
	C130.422485,99.894012 132.088501,98.770584 133.754517,97.647141 
	C133.754517,97.647141 133.954529,97.848946 134.179840,97.834808 
	C134.821503,97.393509 135.237839,96.966362 135.654175,96.539215 
	C135.654175,96.539207 135.900986,96.662216 136.050476,96.661125 
	C136.443832,96.392960 136.687683,96.125885 136.931519,95.858810 
	C136.931519,95.858803 136.950439,95.956596 137.288605,95.958710 
	C139.066818,94.943932 140.506866,93.927055 141.946915,92.910172 
	C141.946915,92.910172 141.975952,92.996445 142.334366,92.991074 
	C144.773788,91.621445 146.854782,90.257187 148.935791,88.892929 
	C148.935791,88.892937 148.970596,88.988220 149.292328,88.982330 
	C150.413864,88.325523 151.213654,87.674606 152.013443,87.023697 
	C152.013443,87.023689 152.161865,86.793060 152.678131,86.830811 
	C153.697678,86.428627 154.200974,85.988693 154.704269,85.548752 
	C154.704269,85.548752 155.000870,85.848801 155.212601,85.835800 
	C156.619614,84.896950 157.814896,83.971092 159.010162,83.045242 
	C159.010162,83.045235 159.161789,82.827454 159.645859,82.755875 
	C160.015808,81.568901 160.278183,79.758438 159.722839,79.457619 
	C157.229904,78.107292 154.504486,77.186157 151.862946,76.110176 
	C151.862946,76.110176 151.942444,76.065994 151.805191,75.832428 
	C151.102615,75.408363 150.537277,75.217857 149.971954,75.027351 
	C149.971954,75.027351 149.999390,74.999695 149.938446,74.660889 
	C148.219055,73.571701 146.560608,72.821327 144.902176,72.070953 
	C144.902176,72.070953 144.971405,72.024841 144.823853,71.795883 
	C144.115158,71.378654 143.554001,71.190384 142.992844,71.002113 
	C142.992844,71.002113 143.000000,70.999390 142.858047,70.773209 
	C142.383591,70.445587 142.051071,70.344131 141.718567,70.242683 
	C141.718567,70.242683 141.846344,70.197952 141.736816,69.946274 
	C141.028915,69.511185 140.430527,69.327774 139.832153,69.144363 
	C139.832153,69.144363 139.916672,69.105606 139.787155,68.864372 
	C139.084656,68.430496 138.511673,68.237854 137.938690,68.045212 
	C137.938690,68.045212 137.978577,67.992371 137.798035,67.765129 
	C137.228149,67.420731 136.838821,67.303574 136.449478,67.186424 
	C136.449478,67.186424 136.156479,67.198990 135.925873,66.844940 
	C135.187546,66.308662 134.679840,66.126434 134.172119,65.944206 
	C133.851089,65.840660 133.530060,65.737106 132.939209,65.132645 
	C132.100739,64.435532 131.532059,64.239319 130.963394,64.043098 
	C130.963394,64.043098 130.999390,64.000000 130.953247,63.663162 
	C128.627258,60.393745 126.141083,57.996784 122.000290,59.895782 
	C122.000290,59.895782 122.027863,59.968353 121.669899,60.165028 
	C120.928406,61.555042 119.942368,62.949043 120.261833,63.908257 
	C121.979744,69.066513 121.227905,73.110725 115.961708,75.607422 
	C109.630234,75.664406 103.298752,75.721397 96.458389,75.410767 
	C95.119995,74.356285 94.290489,73.669434 93.460991,72.982574 
	C93.399078,71.921059 93.337158,70.859543 93.696884,69.284554 
	C93.897202,66.504631 93.675873,64.238182 93.454544,61.971737 
	C93.396355,61.536255 93.338158,61.100773 93.695663,60.220161 
	C93.904160,57.514370 93.696960,55.253704 93.489761,52.993038 
	C93.421684,48.306763 93.353607,43.620483 93.685074,38.384373 
	C94.440239,36.370781 94.795853,34.907028 95.259163,33.000004 
	C108.433197,33.000004 121.541115,33.034416 134.648544,32.969173 
	C137.089203,32.957027 139.527893,32.544418 141.967484,32.316628 
	C142.811188,32.384628 143.654877,32.452625 144.987198,32.998829 
	C150.126144,34.595554 154.776474,35.714077 159.426804,36.832596 
	C159.776627,36.884388 160.126450,36.936180 160.952728,37.243202 
	C163.246338,38.436123 165.063477,39.373814 166.880630,40.311501 
	C167.675446,40.950310 168.470245,41.589111 169.559921,42.323986 
z"/>
<path fill="#F37B26" opacity="1.000000" stroke="none" 
	d="
M65.002457,130.005508 
	C64.565208,130.029984 64.127960,130.054459 62.986092,130.095673 
	C60.186798,130.445740 58.092117,130.779068 55.997437,131.112381 
	C54.930340,131.082230 53.863247,131.052078 51.976021,130.973877 
	C46.099594,130.374786 41.043297,129.823761 35.987000,129.272736 
	C35.312599,129.135468 34.638199,128.998199 33.469070,128.633392 
	C32.644459,128.361313 32.314571,128.316803 31.984686,128.272278 
	C31.810890,128.205704 31.637096,128.139145 30.970322,127.814598 
	C29.651798,127.389595 28.826254,127.222580 28.000708,127.055565 
	C28.000708,127.055565 27.655399,126.858917 27.256264,126.591049 
	C26.244959,126.182266 25.632788,126.041367 25.020617,125.900459 
	C25.020617,125.900459 24.779173,125.695374 24.400311,125.432480 
	C23.007425,124.807137 21.993402,124.444687 20.979378,124.082245 
	C20.979380,124.082237 20.668242,123.866196 20.328051,123.625160 
	C19.653389,123.309769 19.318920,123.235413 18.984449,123.161057 
	C18.984449,123.161057 18.632866,122.931297 18.230579,122.617500 
	C14.892961,120.527100 11.957629,118.750496 9.022299,116.973892 
	C8.898001,116.660507 8.700446,116.403427 8.240499,115.730469 
	C8.719357,113.178741 9.387350,111.099182 10.055346,109.019630 
	C10.055346,109.019630 10.277468,108.795952 10.523144,108.454269 
	C10.856571,107.743629 10.944323,107.374672 11.032073,107.005722 
	C11.736830,105.674385 12.441588,104.343040 13.474354,102.475281 
	C14.533781,100.295898 15.265202,98.652939 15.996624,97.009979 
	C16.302509,96.530724 16.608393,96.051460 17.223461,95.148056 
	C17.728025,94.193581 17.923405,93.663254 18.118784,93.132919 
	C18.118784,93.132919 18.072906,93.041168 18.469566,93.036545 
	C20.592386,93.318886 22.318548,93.605850 24.044712,93.892807 
	C24.044712,93.892807 24.060301,93.970985 24.298168,94.226364 
	C26.314053,95.076355 28.092068,95.670959 29.870083,96.265556 
	C30.062725,96.538315 30.315683,96.732498 30.854511,97.254776 
	C31.090185,98.117363 31.100307,98.573288 31.110432,99.029213 
	C31.110432,99.029213 30.878620,99.318550 30.596844,99.633858 
	C30.176008,100.276985 30.036945,100.604797 29.897882,100.932617 
	C29.563118,101.330856 29.228355,101.729095 28.542721,102.520538 
	C27.844454,103.625381 27.497053,104.337013 27.149654,105.048645 
	C26.790342,105.467590 26.431032,105.886528 25.679621,106.710098 
	C24.589733,108.156197 23.891947,109.197670 23.194160,110.239143 
	C23.401188,110.661705 23.608217,111.084267 23.815245,111.506828 
	C25.203848,111.003204 26.592451,110.499580 27.981054,109.995956 
	C30.114828,108.066513 32.248600,106.137070 34.999695,104.008469 
	C37.099709,102.562111 38.582397,101.314911 40.065086,100.067703 
	C40.498920,100.067513 40.932755,100.067314 41.984238,100.253815 
	C45.832474,100.969215 49.063061,101.497902 52.293652,102.026588 
	C52.490265,101.316948 52.686878,100.607307 52.883492,99.897675 
	C50.312969,98.868530 47.742447,97.839394 45.171928,96.810249 
	C45.171928,96.810249 45.184700,96.873093 44.968620,96.589752 
	C43.552273,95.819870 42.352001,95.333328 41.151730,94.846794 
	C41.151730,94.846794 41.065819,94.838280 41.061935,94.487732 
	C39.732761,90.749512 38.407471,87.361832 37.082184,83.974152 
	C37.028790,83.538864 36.975395,83.103577 36.839165,82.007919 
	C35.618118,80.130806 34.479916,78.914070 33.341709,77.697327 
	C32.922871,77.942055 32.504032,78.186783 32.085194,78.431511 
	C32.085194,80.612701 32.085194,82.793884 32.085194,84.975075 
	C31.631462,84.936066 31.177729,84.897064 30.212387,84.615471 
	C29.149811,84.224510 28.598843,84.076134 28.047874,83.927757 
	C28.047874,83.927757 28.006645,83.997635 27.940022,83.761314 
	C27.630627,83.272400 27.341293,83.195885 27.005398,83.295448 
	C27.005398,83.295448 26.625433,83.008614 26.220991,82.672096 
	C23.535013,80.578323 21.253479,78.821075 18.971945,77.063820 
	C18.828772,76.768509 18.685598,76.473190 18.272305,75.750450 
	C17.348135,74.535789 16.694086,73.748566 16.040039,72.961334 
	C16.040039,72.961334 16.000757,73.000587 15.997404,72.592728 
	C11.890652,61.953445 12.941836,52.226528 18.852884,42.975258 
	C19.531160,42.259655 20.209436,41.544052 21.317060,40.468773 
	C22.260155,39.503193 22.773901,38.897285 23.287647,38.291378 
	C23.287647,38.291378 23.007355,38.125721 23.450163,38.145897 
	C24.673113,37.487396 25.453253,36.808716 26.233395,36.130035 
	C26.233397,36.130039 26.666498,36.030323 27.079746,35.888100 
	C27.830511,35.632660 28.043640,35.403648 28.132385,35.058834 
	C28.654236,34.882088 29.176085,34.705341 30.261436,34.292786 
	C41.902035,29.556614 53.405380,29.541903 65.030304,30.806622 
	C65.460793,30.902235 65.891289,30.997850 66.933167,31.309011 
	C73.369720,33.338001 79.194885,35.151447 85.020050,36.964893 
	C85.020050,36.964893 85.005066,37.003666 85.184021,37.271957 
	C86.554153,38.055561 87.745338,38.570873 88.936516,39.086182 
	C88.936516,39.086182 88.998093,39.012581 89.049301,39.270714 
	C89.397331,39.647106 89.694160,39.765362 89.990990,39.883621 
	C90.223289,40.147072 90.455597,40.410526 90.810165,41.186420 
	C90.645470,42.803692 90.358513,43.908516 90.071556,45.013344 
	C90.071556,45.013344 89.828491,45.262978 89.533859,45.660419 
	C88.153015,48.700615 87.066811,51.343369 85.980606,53.986122 
	C85.980598,53.986122 85.772446,54.253231 85.508766,54.642162 
	C84.586456,56.702065 83.927834,58.373039 83.269211,60.044010 
	C82.813026,61.032104 82.356842,62.020195 81.603790,63.532639 
	C80.847702,65.015419 80.388489,65.973839 79.929276,66.932259 
	C79.929268,66.932259 80.001076,66.994957 79.639404,66.890076 
	C78.191307,66.500229 77.104881,66.215263 75.915604,65.825607 
	C75.812737,65.720917 75.519501,65.734138 75.290298,65.480042 
	C74.019478,64.821037 72.977867,64.416145 71.714012,63.781677 
	C70.687302,63.338619 69.882828,63.125126 69.036316,62.943066 
	C68.994270,62.974499 69.074257,62.900684 69.037392,62.568993 
	C68.891968,61.805397 68.783401,61.373493 68.821884,60.770912 
	C68.968925,60.600235 69.098602,60.168732 69.343414,60.062569 
	C69.727539,59.642086 69.866859,59.327759 70.226357,58.868118 
	C70.709389,58.272827 70.972237,57.822849 71.517838,57.237831 
	C72.210831,56.410343 72.621071,55.717892 73.015656,55.012722 
	C73.000000,55.000000 73.028572,55.028645 73.321526,54.886215 
	C74.622543,53.358971 75.630608,51.974159 76.638672,50.589348 
	C76.229424,50.033745 75.820175,49.478142 75.410934,48.922543 
	C73.585724,49.932571 71.760521,50.942604 69.711594,52.034443 
	C69.205467,52.292709 69.014557,52.539860 68.596146,52.920509 
	C67.175438,53.980556 66.073753,54.977783 64.986191,55.987503 
	C65.000305,56.000000 64.977165,55.970078 64.668961,56.016270 
	C63.812889,56.649956 63.265022,57.237450 62.521179,57.900261 
	C62.325195,57.975582 62.019073,58.263012 61.785629,58.267227 
	C61.232048,58.411514 61.062592,58.656055 60.710938,59.072098 
	C59.948940,59.281120 59.519825,59.423103 58.708042,59.391514 
	C54.688652,58.601326 51.051929,57.984711 47.415207,57.368095 
	C47.251930,57.999622 47.088650,58.631153 46.925373,59.262680 
	C50.901527,61.580956 54.877682,63.899231 58.839775,66.595161 
	C59.588955,69.304405 60.352192,71.635994 61.076584,74.345695 
	C61.753971,76.841400 62.327480,79.025871 63.270096,81.037384 
	C63.567638,81.672340 64.853104,81.844353 65.686432,82.228241 
	C65.895607,81.439156 66.104782,80.650070 66.408432,79.569748 
	C66.434731,78.880524 66.366554,78.482536 66.482208,77.707680 
	C67.450500,75.862854 68.234962,74.394897 69.202530,73.029694 
	C69.385643,73.132454 69.805443,73.143692 69.973961,73.364960 
	C70.489136,73.704178 70.835793,73.822113 71.392044,74.166321 
	C72.395950,74.570198 73.190254,74.747810 74.242928,75.091766 
	C75.255768,75.547234 76.010246,75.836365 76.974762,76.393753 
	C81.363602,80.908447 85.542397,85.154877 89.721191,89.401314 
	C89.721191,89.401314 89.758598,89.745331 89.850357,90.265839 
	C90.407303,92.515633 90.872490,94.244911 91.337677,95.974197 
	C91.383949,97.086174 91.430214,98.198151 91.421906,99.993759 
	C91.461456,101.086212 91.555580,101.495033 91.649704,101.903847 
	C91.512360,102.673866 91.375008,103.443878 91.122246,104.922623 
	C91.019669,106.087296 91.032509,106.543251 91.045357,106.999199 
	C91.045357,106.999199 90.991150,107.022949 90.791748,107.312767 
	C90.098373,109.412750 89.604416,111.222916 89.110443,113.033081 
	C89.110443,113.033081 88.888672,113.345200 88.584763,113.714035 
	C87.822304,115.031219 87.363754,115.979576 86.905205,116.927933 
	C86.905205,116.927933 86.982338,117.000504 86.713348,117.047333 
	C86.311661,117.401085 86.178947,117.708008 86.046242,118.014931 
	C85.168533,118.900497 84.290817,119.786064 82.985260,120.961227 
	C82.243385,121.425896 82.103073,121.692451 82.136482,122.050491 
	C81.842560,122.214470 81.548637,122.378448 80.773956,122.820496 
	C75.196289,125.400894 70.099373,127.703201 65.002457,130.005508 
z"/>
<path fill="#FDFDF8" opacity="1.000000" stroke="none" 
	d="
M75.519501,65.734146 
	C75.519501,65.734138 75.812737,65.720917 75.958832,66.176048 
	C77.071533,67.110085 78.038139,67.588989 79.004745,68.067894 
	C78.506256,69.258469 78.007767,70.449043 76.864502,71.826553 
	C74.081627,72.390221 71.943535,72.766953 69.805443,73.143692 
	C69.805443,73.143692 69.385643,73.132454 69.135071,72.686554 
	C67.848320,72.165993 66.812141,72.091316 65.775970,72.016647 
	C65.950104,74.039284 66.124245,76.061913 66.298386,78.084549 
	C66.366554,78.482536 66.434731,78.880524 66.085083,79.584564 
	C64.149979,77.916267 62.632702,75.941925 61.115425,73.967583 
	C60.352192,71.635994 59.588955,69.304405 58.906273,66.229050 
	C59.021454,63.511879 59.056084,61.538483 59.090710,59.565086 
	C59.519825,59.423103 59.948940,59.281120 60.924061,59.026157 
	C61.749325,58.777737 61.932327,58.561016 62.019073,58.263012 
	C62.019073,58.263012 62.325195,57.975582 62.868916,57.922169 
	C63.934147,57.235863 64.455658,56.602970 64.977165,55.970078 
	C64.977165,55.970078 65.000305,56.000000 65.356735,56.002007 
	C66.780502,54.955238 67.847832,53.906467 68.915161,52.857697 
	C69.014557,52.539860 69.205467,52.292709 70.091461,52.065334 
	C71.472885,53.019161 72.250732,54.023903 73.028572,55.028645 
	C73.028572,55.028645 73.000000,55.000000 72.666000,55.057999 
	C71.966354,55.868286 71.600723,56.620579 71.235092,57.372871 
	C70.972237,57.822849 70.709389,58.272827 69.980804,58.973392 
	C69.376244,59.538895 69.237427,59.853813 69.098602,60.168732 
	C69.098602,60.168732 68.968925,60.600235 68.547356,60.830200 
	C68.441948,61.673672 68.758102,62.287178 69.074257,62.900684 
	C69.074257,62.900684 68.994270,62.974499 69.157608,63.208725 
	C69.841309,63.686642 70.361679,63.930328 71.017822,64.533600 
	C72.608910,65.173508 74.064201,65.453827 75.519501,65.734146 
z"/>
<path fill="#434B89" opacity="1.000000" stroke="none" 
	d="
M122.147629,103.437241 
	C121.472198,102.025352 120.149323,100.167496 120.112503,98.284492 
	C119.913826,88.124138 120.799141,88.992760 110.577209,88.991074 
	C105.642540,88.990265 100.707878,88.990929 94.987480,88.990929 
	C94.987480,98.165779 95.038689,106.844322 94.950104,115.521439 
	C94.928970,117.591637 94.441216,119.657066 93.816788,121.872070 
	C93.465500,110.754234 93.465500,99.489014 93.465500,87.899872 
	C102.903633,87.899872 112.283447,87.899872 122.093735,87.899872 
	C122.093735,93.054382 122.093735,98.017021 122.147629,103.437241 
z"/>
<path fill="#DD985D" opacity="1.000000" stroke="none" 
	d="
M100.392853,153.201981 
	C97.506363,157.091797 94.593300,154.544312 91.562714,153.126221 
	C90.215019,157.836716 87.430824,159.658051 82.888016,157.675674 
	C82.535805,155.613037 82.223099,153.781738 81.942833,151.204956 
	C81.974495,149.427887 81.973717,148.396286 81.972939,147.364685 
	C85.480736,145.811844 88.918907,145.484009 92.588516,148.245239 
	C92.978508,149.350555 92.978508,150.156494 92.978508,151.555817 
	C94.480904,150.388229 95.548813,149.558304 96.721344,148.647064 
	C97.994286,150.226288 99.193573,151.714142 100.392853,153.201981 
z"/>
<path fill="#434B89" opacity="1.000000" stroke="none" 
	d="
M93.347839,125.373901 
	C95.357391,127.460892 97.735420,128.203110 100.952972,128.113007 
	C110.725929,127.839340 120.519455,128.257111 130.289459,127.935059 
	C137.994827,127.681038 145.677261,126.730804 153.804016,126.177673 
	C148.122177,127.352112 142.032852,129.146667 135.884659,129.378204 
	C122.985748,129.863968 110.055061,129.450531 97.139351,129.587875 
	C94.213989,129.618973 92.626938,129.009720 93.347839,125.373901 
z"/>
<path fill="#DB9258" opacity="1.000000" stroke="none" 
	d="
M37.942108,150.509750 
	C38.243919,150.134369 38.626575,149.798676 38.833645,149.376785 
	C39.762997,147.483337 37.633770,143.911880 41.915817,143.858932 
	C45.093628,143.819656 48.711250,143.483963 49.807377,147.254059 
	C50.343964,149.099625 49.687466,152.864761 48.589130,153.303558 
	C45.836399,154.403320 42.526184,154.147934 39.433010,154.313080 
	C38.954330,154.338623 38.440994,153.715027 37.588779,153.174591 
	C37.469955,152.141602 37.706032,151.325684 37.942108,150.509750 
M42.586536,147.350922 
	C42.790531,149.019531 42.994526,150.688141 43.198517,152.356766 
	C44.096874,152.227570 45.430035,152.411880 45.798603,151.900696 
	C46.464626,150.976944 47.185608,149.116211 46.747276,148.585770 
	C45.951004,147.622162 44.322250,147.346481 42.586536,147.350922 
z"/>
<path fill="#DC9D68" opacity="1.000000" stroke="none" 
	d="
M74.994293,154.524078 
	C70.973961,154.664642 66.953636,154.805206 62.576675,154.668289 
	C62.136108,153.688034 62.052166,152.985245 62.337254,152.174149 
	C64.802788,151.230484 66.899300,150.395142 68.554771,149.735519 
	C67.783714,148.923843 66.903740,147.997498 66.023758,147.071152 
	C68.801254,147.452347 71.578758,147.833542 74.685196,148.713470 
	C75.007523,150.982849 75.000908,152.753464 74.994293,154.524078 
z"/>
<path fill="#FBE7CE" opacity="1.000000" stroke="none" 
	d="
M150.071289,155.286255 
	C148.324371,155.486877 146.517273,156.063004 144.845428,155.795105 
	C142.652176,155.443634 139.109940,154.877396 138.716934,153.608109 
	C137.700272,150.324600 136.598480,146.259888 140.791656,143.175812 
	C141.879181,146.734665 142.831177,149.850037 143.783188,152.965408 
	C144.337753,152.845367 144.892319,152.725311 145.446884,152.605270 
	C145.780014,151.232361 146.113129,149.859451 146.997787,148.468597 
	C148.389969,150.729172 149.230621,153.007721 150.071289,155.286255 
z"/>
<path fill="#D88B4F" opacity="1.000000" stroke="none" 
	d="
M37.783428,150.194550 
	C37.706032,151.325684 37.469955,152.141602 37.236980,153.289764 
	C35.003887,154.224686 32.767693,154.827377 30.531500,155.430069 
	C30.284704,154.922501 30.037910,154.414917 29.791115,153.907349 
	C30.380527,152.973984 30.969942,152.040604 30.831795,152.259369 
	C30.374598,149.296509 29.152403,146.202179 29.953829,145.533615 
	C31.475662,144.264069 34.156025,144.383301 36.355206,143.925720 
	C36.476307,144.413315 36.597408,144.900925 36.718510,145.388519 
	C35.940678,146.074020 35.162846,146.759506 34.359539,147.467453 
	C35.531757,148.333328 36.578251,149.106354 37.783428,150.194550 
z"/>
<path fill="#FDEED9" opacity="1.000000" stroke="none" 
	d="
M18.491367,42.978851 
	C12.941836,52.226528 11.890652,61.953445 16.018709,72.574181 
	C14.706084,70.813904 12.490108,68.771248 12.212778,66.492638 
	C11.618840,61.612709 11.285276,56.454624 12.284098,51.713627 
	C12.954006,48.533844 16.094688,45.874599 18.491367,42.978851 
z"/>
<path fill="#FBE7CE" opacity="1.000000" stroke="none" 
	d="
M152.005600,147.008179 
	C154.355820,146.654724 156.706024,146.301270 159.342438,146.248383 
	C158.428787,148.040634 157.228943,149.532318 155.730804,151.084442 
	C154.841888,151.520615 154.251282,151.896362 153.660690,152.272110 
	C153.932587,152.530090 154.204483,152.788055 154.476395,153.046036 
	C154.975113,152.354050 155.473831,151.662064 156.294952,151.057678 
	C157.724701,152.447281 158.832047,153.749283 159.939377,155.051300 
	C157.401901,155.182251 154.864426,155.313217 151.966599,154.865631 
	C148.441940,151.679886 149.658783,149.313034 152.005600,147.008179 
z"/>
<path fill="#FDEED9" opacity="1.000000" stroke="none" 
	d="
M64.926315,30.442596 
	C53.405380,29.541903 41.902035,29.556614 30.437805,34.076054 
	C32.320076,32.803940 34.446556,30.900700 36.884525,30.331406 
	C45.717918,28.268709 54.666912,26.867916 63.719357,29.167927 
	C64.137169,29.274080 64.456902,29.766209 64.926315,30.442596 
z"/>
<path fill="#D2A984" opacity="1.000000" stroke="none" 
	d="
M116.074036,149.038239 
	C113.868507,150.301620 111.662979,151.565002 108.175041,153.562973 
	C107.872925,149.316544 107.688736,146.727631 107.504547,144.138718 
	C109.844643,144.292282 112.184731,144.445831 114.882263,145.004120 
	C115.406075,145.721130 115.661293,145.918610 116.005348,146.001282 
	C116.005348,146.001282 116.000610,145.999390 116.008003,146.377533 
	C116.034943,147.516525 116.054489,148.277374 116.074036,149.038239 
z"/>
<path fill="#EBEEF5" opacity="1.000000" stroke="none" 
	d="
M47.681908,169.970215 
	C43.752735,169.324509 39.823559,168.678802 35.488258,167.771820 
	C35.055473,167.331619 35.028816,167.152695 35.002159,166.973755 
	C36.411602,166.301743 37.852375,165.006531 39.224575,165.075500 
	C43.214436,165.276047 47.176826,166.023026 51.537270,167.126801 
	C52.003876,168.438293 52.083206,169.178650 52.162537,169.919006 
	C52.162537,169.919006 51.671509,169.987808 51.208866,169.787170 
	C49.724785,169.714432 48.703346,169.842331 47.681908,169.970215 
z"/>
<path fill="#D69057" opacity="1.000000" stroke="none" 
	d="
M61.968227,152.282471 
	C62.052166,152.985245 62.136108,153.688034 62.115967,154.603790 
	C58.712330,155.560333 55.666748,154.919098 54.782688,151.443985 
	C54.282932,149.479492 54.942795,145.507645 55.920860,145.210968 
	C58.520763,144.422348 61.576775,145.137436 64.292397,145.657745 
	C63.383335,146.356110 62.479691,147.077911 61.909691,146.872742 
	C59.403759,145.970749 57.672256,146.802399 58.061825,149.293762 
	C58.244965,150.464981 60.598324,151.296829 61.968227,152.282471 
z"/>
<path fill="#464B7F" opacity="1.000000" stroke="none" 
	d="
M141.514343,32.194725 
	C139.527893,32.544418 137.089203,32.957027 134.648544,32.969173 
	C121.541115,33.034416 108.433197,33.000004 95.259163,33.000004 
	C94.795853,34.907028 94.440239,36.370781 93.783287,37.929840 
	C93.377708,36.230011 93.273460,34.434875 93.136299,32.072819 
	C109.320984,32.072819 125.191093,32.072819 141.514343,32.194725 
z"/>
<path fill="#E29E68" opacity="1.000000" stroke="none" 
	d="
M75.271286,154.734924 
	C75.000908,152.753464 75.007523,150.982849 75.042656,148.844238 
	C76.199593,144.156509 79.117844,146.645767 81.698456,147.085510 
	C81.973717,148.396286 81.974495,149.427887 81.934334,150.850800 
	C80.310646,149.398727 79.551315,149.516861 78.792519,152.032898 
	C78.433937,153.221878 76.673531,153.988052 75.271286,154.734924 
z"/>
<path fill="#FDEED7" opacity="1.000000" stroke="none" 
	d="
M62.337254,152.174149 
	C60.598324,151.296829 58.244965,150.464981 58.061825,149.293762 
	C57.672256,146.802399 59.403759,145.970749 61.909691,146.872742 
	C62.479691,147.077911 63.383335,146.356110 64.474098,145.994873 
	C65.131912,146.137390 65.449028,146.345993 65.894951,146.812866 
	C66.903740,147.997498 67.783714,148.923843 68.554771,149.735519 
	C66.899300,150.395142 64.802788,151.230484 62.337254,152.174149 
z"/>
<path fill="#FAE1BC" opacity="1.000000" stroke="none" 
	d="
M116.355103,149.066055 
	C116.054489,148.277374 116.034943,147.516525 116.007843,146.374985 
	C118.130028,146.359406 120.259766,146.724518 122.826889,147.331482 
	C123.537216,147.770172 123.810150,147.967026 124.083092,148.163879 
	C123.210602,150.769958 122.338104,153.376053 121.121696,157.009399 
	C119.085762,153.416626 117.860962,151.255249 116.355103,149.066055 
z"/>
<path fill="#434B89" opacity="1.000000" stroke="none" 
	d="
M183.469696,100.307281 
	C185.557480,89.424332 187.003235,78.231506 185.165405,66.470993 
	C185.348923,66.087852 185.687912,66.167175 185.687912,66.167175 
	C185.803772,66.892181 185.919632,67.617180 186.135468,68.978088 
	C186.441360,69.924652 186.647278,70.235313 186.853195,70.545975 
	C186.853195,70.545967 186.715805,70.791428 186.780945,71.322739 
	C187.002319,73.550323 187.158539,75.246590 187.314774,76.942856 
	C187.271545,79.349167 187.228302,81.755470 187.149323,84.994431 
	C187.100204,86.885117 187.086807,87.943169 187.073410,89.001213 
	C185.966263,92.683006 184.859131,96.364799 183.469696,100.307281 
z"/>
<path fill="#CB9D77" opacity="1.000000" stroke="none" 
	d="
M124.386688,148.386932 
	C123.810150,147.967026 123.537216,147.770172 123.191742,147.330688 
	C124.963860,146.830643 126.438835,142.952347 128.642212,146.497482 
	C128.954041,146.999191 128.895935,147.740112 128.976669,148.374435 
	C129.231262,150.374741 129.470444,152.377014 129.741547,154.590317 
	C125.761322,155.749542 125.272346,155.315903 124.386688,148.386932 
z"/>
<path fill="#D3AA87" opacity="1.000000" stroke="none" 
	d="
M156.029114,151.024002 
	C157.228943,149.532318 158.428787,148.040634 159.746094,146.237320 
	C160.173553,145.095978 160.483505,144.266281 160.793457,143.436584 
	C161.362030,143.523163 161.930588,143.609756 162.499146,143.696350 
	C161.930145,147.446564 161.361145,151.196793 160.365753,154.999161 
	C158.832047,153.749283 157.724701,152.447281 156.308411,151.071869 
	C155.999466,150.998474 156.029114,151.024002 156.029114,151.024002 
z"/>
<path fill="#FDE9CD" opacity="1.000000" stroke="none" 
	d="
M45.092140,97.151062 
	C47.742447,97.839394 50.312969,98.868530 52.883492,99.897675 
	C52.686878,100.607307 52.490265,101.316948 52.293652,102.026588 
	C49.063061,101.497902 45.832474,100.969215 42.306129,100.206055 
	C43.011032,99.145012 44.011688,98.318443 45.092140,97.151062 
z"/>
<path fill="#FAE6CB" opacity="1.000000" stroke="none" 
	d="
M89.800842,88.993713 
	C85.542397,85.154877 81.363602,80.908447 77.288773,76.346970 
	C77.603470,76.014717 77.814209,75.997505 78.024948,75.980286 
	C83.729820,78.533539 88.784065,81.698692 89.800842,88.993713 
z"/>
<path fill="#DB9257" opacity="1.000000" stroke="none" 
	d="
M100.635941,152.908478 
	C99.193573,151.714142 97.994286,150.226288 96.721344,148.647064 
	C95.548813,149.558304 94.480904,150.388229 92.978508,151.555817 
	C92.978508,150.156494 92.978508,149.350555 92.965363,148.199463 
	C95.027832,147.558426 97.493835,146.463425 99.052856,147.225037 
	C100.252892,147.811279 100.312378,150.732208 100.635941,152.908478 
z"/>
<path fill="#FDEED9" opacity="1.000000" stroke="none" 
	d="
M84.963242,36.612228 
	C79.194885,35.151447 73.369720,33.338001 67.264580,31.286110 
	C73.729034,30.135529 79.422493,32.837303 84.963242,36.612228 
z"/>
<path fill="#464B7F" opacity="1.000000" stroke="none" 
	d="
M116.391479,75.707352 
	C121.227905,73.110725 121.979744,69.066513 120.261833,63.908257 
	C119.942368,62.949043 120.928406,61.555042 121.634369,60.180649 
	C121.956802,65.084381 121.956802,70.169167 121.956802,75.807274 
	C120.005638,75.807274 118.413437,75.807274 116.391479,75.707352 
z"/>
<path fill="#FAE6CB" opacity="1.000000" stroke="none" 
	d="
M65.230331,130.258179 
	C70.099373,127.703201 75.196289,125.400894 80.641960,123.040504 
	C77.425575,125.295853 73.949715,127.769157 70.247307,129.836777 
	C68.934799,130.569763 67.070572,130.314789 65.230331,130.258179 
z"/>
<path fill="#E5EAF4" opacity="1.000000" stroke="none" 
	d="
M177.305176,42.986946 
	C178.800949,41.053539 176.800186,36.273647 181.885620,36.855171 
	C182.053879,37.088436 182.113693,37.027943 181.882980,37.131958 
	C181.681076,37.788048 181.709885,38.340126 181.851318,39.180515 
	C182.312378,39.653481 182.660843,39.838135 183.009293,40.022789 
	C183.010590,40.463055 183.011887,40.903328 183.012772,41.673874 
	C181.216400,42.325798 179.420456,42.647442 177.305176,42.986946 
z"/>
<path fill="#FAE6CB" opacity="1.000000" stroke="none" 
	d="
M36.192131,129.564514 
	C41.043297,129.823761 46.099594,130.374786 51.578449,131.026337 
	C46.649769,132.545303 41.397625,132.746780 36.192131,129.564514 
z"/>
<path fill="#CA9F79" opacity="1.000000" stroke="none" 
	d="
M151.680267,146.918335 
	C149.658783,149.313034 148.441940,151.679886 151.789795,154.598938 
	C151.551376,154.997833 151.129410,155.084885 150.389359,155.229095 
	C149.230621,153.007721 148.389969,150.729172 147.250031,148.214493 
	C146.938141,147.810623 146.925537,147.642883 147.201508,147.080048 
	C147.660522,146.126556 147.830978,145.568146 148.001419,145.009750 
	C149.119263,145.615997 150.237091,146.222244 151.680267,146.918335 
z"/>
<path fill="#FDEED9" opacity="1.000000" stroke="none" 
	d="
M32.417694,84.943878 
	C32.085194,82.793884 32.085194,80.612701 32.085194,78.431511 
	C32.504032,78.186783 32.922871,77.942055 33.341709,77.697327 
	C34.479916,78.914070 35.618118,80.130806 36.712379,81.702896 
	C35.362354,83.009720 34.056274,83.961197 32.417694,84.943878 
z"/>
<path fill="#FDEED9" opacity="1.000000" stroke="none" 
	d="
M77.977509,75.638824 
	C77.814209,75.997505 77.603470,76.014717 77.078720,76.078705 
	C76.010246,75.836365 75.255768,75.547234 74.047745,74.848221 
	C72.790276,74.272247 71.986359,74.106148 71.182449,73.940048 
	C70.835793,73.822113 70.489136,73.704178 69.973961,73.364960 
	C71.943535,72.766953 74.081627,72.390221 76.597565,72.011703 
	C77.293625,73.105736 77.611847,74.201553 77.977509,75.638824 
z"/>
<path fill="#FDEED9" opacity="1.000000" stroke="none" 
	d="
M36.799572,84.199173 
	C38.407471,87.361832 39.732761,90.749512 41.098625,94.510368 
	C39.598450,91.397095 38.057705,87.910645 36.799572,84.199173 
z"/>
<path fill="#434B89" opacity="1.000000" stroke="none" 
	d="
M152.048798,76.394753 
	C154.504486,77.186157 157.229904,78.107292 159.722839,79.457619 
	C160.278183,79.758438 160.015808,81.568901 159.777176,82.774887 
	C158.684814,81.776001 158.141083,80.442841 157.159805,79.653976 
	C155.678360,78.463058 153.891632,77.651894 152.048798,76.394753 
z"/>
<path fill="#464B7F" opacity="1.000000" stroke="none" 
	d="
M159.168335,36.559937 
	C154.776474,35.714077 150.126144,34.595554 145.253204,33.177498 
	C149.657013,34.014397 154.283447,35.150833 159.168335,36.559937 
z"/>
<path fill="#FAE6CB" opacity="1.000000" stroke="none" 
	d="
M9.043970,117.326324 
	C11.957629,118.750496 14.892961,120.527100 18.023399,122.583199 
	C15.167553,121.134712 12.116596,119.406731 9.043970,117.326324 
z"/>
<path fill="#464B7F" opacity="1.000000" stroke="none" 
	d="
M122.361374,59.890625 
	C126.141083,57.996784 128.627258,60.393745 130.933228,63.683250 
	C128.213699,62.655273 125.468079,61.270370 122.361374,59.890625 
z"/>
<path fill="#FDEED9" opacity="1.000000" stroke="none" 
	d="
M18.969408,77.433075 
	C21.253479,78.821075 23.535013,80.578323 25.987762,82.624481 
	C22.586412,82.863388 19.760479,81.762772 18.969408,77.433075 
z"/>
<path fill="#FDEED9" opacity="1.000000" stroke="none" 
	d="
M86.338287,53.936409 
	C87.066811,51.343369 88.153015,48.700615 89.518906,45.833992 
	C88.764374,48.368977 87.730171,51.127838 86.338287,53.936409 
z"/>
<path fill="#464B7F" opacity="1.000000" stroke="none" 
	d="
M93.348419,62.402969 
	C93.675873,64.238182 93.897202,66.504631 93.790306,68.894646 
	C93.388809,66.956879 93.315544,64.895538 93.348419,62.402969 
z"/>
<path fill="#FCE5C5" opacity="1.000000" stroke="none" 
	d="
M27.685520,109.836411 
	C26.592451,110.499580 25.203848,111.003204 23.815245,111.506828 
	C23.608217,111.084267 23.401188,110.661705 23.194160,110.239143 
	C23.891947,109.197670 24.589733,108.156197 25.578556,106.967896 
	C26.376392,107.772995 26.883190,108.724937 27.685520,109.836411 
z"/>
<path fill="#F8F8FA" opacity="1.000000" stroke="none" 
	d="
M166.886475,39.941330 
	C165.063477,39.373814 163.246338,38.436123 161.218842,37.236244 
	C164.159424,35.144566 165.728592,36.898567 166.886475,39.941330 
z"/>
<path fill="#464B7F" opacity="1.000000" stroke="none" 
	d="
M93.376160,53.420361 
	C93.696960,55.253704 93.904160,57.514370 93.783493,59.899517 
	C93.391266,57.965225 93.326912,55.906456 93.376160,53.420361 
z"/>
<path fill="#E5EAF4" opacity="1.000000" stroke="none" 
	d="
M177.633774,33.981010 
	C176.620682,34.670612 175.201630,35.350861 173.385101,36.047897 
	C172.240860,36.279091 171.494064,36.493488 170.747253,36.707886 
	C170.607620,36.331413 170.467972,35.954937 170.328339,35.578461 
	C172.628159,35.042862 174.927979,34.507259 177.633774,33.981010 
z"/>
<path fill="#434B89" opacity="1.000000" stroke="none" 
	d="
M148.589905,88.937263 
	C146.854782,90.257187 144.773788,91.621445 142.300888,92.960236 
	C144.020676,91.617058 146.132355,90.299332 148.589905,88.937263 
z"/>
<path fill="#434B89" opacity="1.000000" stroke="none" 
	d="
M127.670929,101.040413 
	C127.374504,103.386971 126.509697,105.454193 123.161797,104.160339 
	C124.422676,102.951805 125.881531,102.017090 127.670929,101.040413 
z"/>
<path fill="#FAE6CB" opacity="1.000000" stroke="none" 
	d="
M9.704046,109.059937 
	C9.387350,111.099182 8.719357,113.178741 8.018597,115.625168 
	C6.120589,113.868301 6.149514,113.722473 9.704046,109.059937 
z"/>
<path fill="#434B89" opacity="1.000000" stroke="none" 
	d="
M171.389481,117.012756 
	C172.524445,115.439011 173.975769,113.766205 175.781448,112.085236 
	C174.659164,113.689285 173.182495,115.301483 171.389481,117.012756 
z"/>
<path fill="#EEEFFA" opacity="1.000000" stroke="none" 
	d="
M124.679771,165.276443 
	C125.141350,165.193192 125.602928,165.109940 126.490097,165.422821 
	C127.012955,167.507126 127.110214,169.195297 127.207474,170.883484 
	C126.628609,170.822098 126.049744,170.760712 125.389847,170.088013 
	C125.099136,168.076630 124.889450,166.676529 124.679771,165.276443 
z"/>
<path fill="#F8F8FA" opacity="1.000000" stroke="none" 
	d="
M187.529587,76.713402 
	C187.158539,75.246590 187.002319,73.550323 186.874481,71.427780 
	C192.399551,72.028305 188.388168,74.514595 187.529587,76.713402 
z"/>
<path fill="#FCE5C5" opacity="1.000000" stroke="none" 
	d="
M23.995808,93.550774 
	C22.318548,93.605850 20.592386,93.318886 18.486649,93.079132 
	C20.084425,90.974808 22.047922,89.805367 23.995808,93.550774 
z"/>
<path fill="#FDE9CD" opacity="1.000000" stroke="none" 
	d="
M39.689579,100.033905 
	C38.582397,101.314911 37.099709,102.562111 35.290810,103.834320 
	C36.414425,102.572914 37.864246,101.286499 39.689579,100.033905 
z"/>
<path fill="#FAE6CB" opacity="1.000000" stroke="none" 
	d="
M56.275330,131.362396 
	C58.092117,130.779068 60.186798,130.445740 62.672958,130.197968 
	C60.894035,130.726501 58.723633,131.169449 56.275330,131.362396 
z"/>
<path fill="#DFE1ED" opacity="1.000000" stroke="none" 
	d="
M131.206589,164.962372 
	C131.972305,165.005051 132.738022,165.047729 133.711044,165.404114 
	C134.214981,166.842377 134.511612,167.966888 134.808243,169.091415 
	C134.808243,169.091415 134.551727,169.093475 134.021286,169.058929 
	C132.698853,169.008392 131.906860,168.992432 131.052856,168.577347 
	C131.062744,167.106277 131.134659,166.034332 131.206589,164.962372 
z"/>
<path fill="#9C9EB2" opacity="1.000000" stroke="none" 
	d="
M87.789650,169.482986 
	C87.101494,169.070816 86.413330,168.658646 85.725166,168.246475 
	C85.892670,167.940781 86.060181,167.635101 86.227684,167.329407 
	C87.703423,167.717606 89.179169,168.105789 90.654907,168.493988 
	C90.713928,168.867432 90.772942,169.240891 90.831963,169.614334 
	C89.807091,169.834244 88.782211,170.054153 87.967529,169.952454 
	C88.048355,169.581589 87.919006,169.532288 87.789650,169.482986 
z"/>
<path fill="#FDEED9" opacity="1.000000" stroke="none" 
	d="
M83.627426,59.973892 
	C83.927834,58.373039 84.586456,56.702065 85.513336,54.811417 
	C85.182945,56.362419 84.584297,58.133095 83.627426,59.973892 
z"/>
<path fill="#434B89" opacity="1.000000" stroke="none" 
	d="
M133.420502,97.717316 
	C132.088501,98.770584 130.422485,99.894012 128.376862,101.009109 
	C129.693680,99.929672 131.390091,98.858574 133.420502,97.717316 
z"/>
<path fill="#E6E8F5" opacity="1.000000" stroke="none" 
	d="
M129.832565,169.025070 
	C129.410431,169.282562 128.988281,169.540054 128.300980,169.481949 
	C128.066010,167.439194 128.096207,165.712051 128.126404,163.984894 
	C128.538910,164.235016 128.951416,164.485153 129.601379,165.259949 
	C129.836761,166.864761 129.834656,167.944916 129.832565,169.025070 
z"/>
<path fill="#EAEDFB" opacity="1.000000" stroke="none" 
	d="
M110.194550,169.886551 
	C108.971497,169.810364 107.748451,169.734177 106.525406,169.657990 
	C107.378319,169.101059 108.231232,168.544128 109.516098,168.296875 
	C110.030212,169.033203 110.112381,169.459885 110.194550,169.886551 
z"/>
<path fill="#92919E" opacity="1.000000" stroke="none" 
	d="
M135.135681,169.014526 
	C134.511612,167.966888 134.214981,166.842377 134.088821,165.470917 
	C138.467056,165.227951 135.766403,167.471359 135.135681,169.014526 
z"/>
<path fill="#E2E3F1" opacity="1.000000" stroke="none" 
	d="
M153.020218,169.989075 
	C152.261017,168.855942 151.501816,167.722794 151.132416,166.322601 
	C151.694946,166.033371 151.867676,166.011185 152.040421,165.989014 
	C152.040421,165.989014 151.996506,166.004013 152.015198,166.237091 
	C152.314178,166.648224 152.594437,166.826263 152.938721,167.374893 
	C153.008575,168.493332 153.014389,169.241211 153.020218,169.989075 
z"/>
<path fill="#434B89" opacity="1.000000" stroke="none" 
	d="
M145.080200,72.350159 
	C146.560608,72.821327 148.219055,73.571701 149.926437,74.675461 
	C148.403000,74.229019 146.830612,73.429199 145.080200,72.350159 
z"/>
<path fill="#FAE6CB" opacity="1.000000" stroke="none" 
	d="
M91.543335,95.677200 
	C90.872490,94.244911 90.407303,92.515633 89.956833,90.402237 
	C90.564018,91.805481 91.156502,93.592842 91.543335,95.677200 
z"/>
<path fill="#FCE5C5" opacity="1.000000" stroke="none" 
	d="
M15.637957,97.066315 
	C15.265202,98.652939 14.533781,100.295898 13.537631,102.156433 
	C13.941698,100.623550 14.610495,98.873100 15.637957,97.066315 
z"/>
<path fill="#434B89" opacity="1.000000" stroke="none" 
	d="
M141.613220,92.956810 
	C140.506866,93.927055 139.066818,94.943932 137.248566,95.929077 
	C138.340088,94.932716 139.809799,93.968079 141.613220,92.956810 
z"/>
<path fill="#70707E" opacity="1.000000" stroke="none" 
	d="
M127.945045,163.837738 
	C128.096207,165.712051 128.066010,167.439194 128.081207,169.596466 
	C127.989197,170.283981 127.816895,170.515396 127.408577,170.802155 
	C127.110214,169.195297 127.012955,167.507126 126.841705,165.401352 
	C127.099693,164.552704 127.431686,164.121643 127.945045,163.837738 
z"/>
<path fill="#F8F8FA" opacity="1.000000" stroke="none" 
	d="
M180.981689,54.613014 
	C180.045807,53.757107 179.121262,52.469490 178.139160,50.858925 
	C181.841858,49.522949 180.725754,52.404568 180.981689,54.613014 
z"/>
<path fill="#FAE6CB" opacity="1.000000" stroke="none" 
	d="
M89.473602,112.942490 
	C89.604416,111.222916 90.098373,109.412750 90.810898,107.335327 
	C90.631889,108.996017 90.234322,110.923958 89.473602,112.942490 
z"/>
<path fill="#FCE5C5" opacity="1.000000" stroke="none" 
	d="
M29.732357,95.932617 
	C28.092068,95.670959 26.314053,95.076355 24.332382,94.205917 
	C25.950697,94.486618 27.772663,95.043152 29.732357,95.932617 
z"/>
<path fill="#464B7F" opacity="1.000000" stroke="none" 
	d="
M93.352600,73.326324 
	C94.290489,73.669434 95.119995,74.356285 96.000916,75.325615 
	C95.116295,74.962082 94.180260,74.316078 93.352600,73.326324 
z"/>
<path fill="#434B89" opacity="1.000000" stroke="none" 
	d="
M158.689606,83.081299 
	C157.814896,83.971092 156.619614,84.896950 155.051544,85.699570 
	C155.908859,84.756683 157.138962,83.937019 158.689606,83.081299 
z"/>
<path fill="#8D8EA0" opacity="1.000000" stroke="none" 
	d="
M52.448696,169.932404 
	C52.083206,169.178650 52.003876,168.438293 51.882652,167.326935 
	C52.626907,166.997971 53.413055,167.040009 54.160065,167.802658 
	C54.152168,168.786285 54.183411,169.049286 54.214653,169.312286 
	C53.721386,169.523453 53.228119,169.734634 52.448696,169.932404 
z"/>
<path fill="#434B89" opacity="1.000000" stroke="none" 
	d="
M157.486145,125.246147 
	C158.530289,124.515030 159.923203,123.763290 161.699677,123.039505 
	C160.667130,123.786819 159.251022,124.506165 157.486145,125.246147 
z"/>
<path fill="#F8F8FA" opacity="1.000000" stroke="none" 
	d="
M182.917633,57.987743 
	C182.092270,57.309162 181.556122,56.468685 180.989365,55.326263 
	C181.708130,55.958160 182.457489,56.892002 182.917633,57.987743 
z"/>
<path fill="#FDEED9" opacity="1.000000" stroke="none" 
	d="
M90.406670,44.959850 
	C90.358513,43.908516 90.645470,42.803692 91.007362,41.361610 
	C90.968788,42.318359 90.855286,43.612358 90.406670,44.959850 
z"/>
<path fill="#FDEED9" opacity="1.000000" stroke="none" 
	d="
M88.899277,38.721626 
	C87.745338,38.570873 86.554153,38.055561 85.199409,37.257317 
	C86.311241,37.435276 87.586639,37.896172 88.899277,38.721626 
z"/>
<path fill="#FDEED9" opacity="1.000000" stroke="none" 
	d="
M79.230362,67.938171 
	C78.038139,67.588989 77.071533,67.110085 76.061691,66.280731 
	C77.104881,66.215263 78.191307,66.500229 79.610352,66.852127 
	C79.780647,67.215523 79.618309,67.511978 79.230362,67.938171 
z"/>
<path fill="#9293A2" opacity="1.000000" stroke="none" 
	d="
M119.997040,166.995132 
	C120.491714,166.754440 120.986397,166.513748 121.481079,166.273056 
	C121.562935,167.448471 121.644783,168.623886 121.326904,169.617157 
	C120.711502,168.949432 120.495834,168.463867 120.235733,167.724930 
	C120.126549,167.312744 120.061790,167.153931 119.997040,166.995132 
z"/>
<path fill="#585B69" opacity="1.000000" stroke="none" 
	d="
M129.925598,169.262878 
	C129.834656,167.944916 129.836761,166.864761 129.812561,165.377808 
	C130.150711,164.849655 130.515152,164.728302 131.043091,164.784668 
	C131.134659,166.034332 131.062744,167.106277 130.991837,168.809692 
	C130.992844,169.441147 130.885620,169.909485 130.885620,169.909485 
	C130.596619,169.773224 130.307632,169.636963 129.925598,169.262878 
z"/>
<path fill="#F8F8FA" opacity="1.000000" stroke="none" 
	d="
M185.985687,65.971497 
	C185.687912,66.167175 185.348923,66.087852 185.189362,66.018478 
	C184.952759,65.247925 184.875717,64.546753 184.791321,63.492027 
	C185.283813,64.017601 185.783646,64.896713 185.985687,65.971497 
z"/>
<path fill="#F8F8FA" opacity="1.000000" stroke="none" 
	d="
M187.370575,88.959137 
	C187.086807,87.943169 187.100204,86.885117 187.212723,85.441437 
	C187.430481,86.342888 187.549103,87.629974 187.370575,88.959137 
z"/>
<path fill="#FDE9CD" opacity="1.000000" stroke="none" 
	d="
M41.157021,95.225891 
	C42.352001,95.333328 43.552273,95.819870 44.947479,96.566315 
	C43.815716,96.419136 42.489014,96.012062 41.157021,95.225891 
z"/>
<path fill="#434B89" opacity="1.000000" stroke="none" 
	d="
M162.374802,123.065483 
	C162.877792,122.431282 163.699203,121.778465 164.894333,121.208969 
	C164.409775,121.877144 163.551498,122.462006 162.374802,123.065483 
z"/>
<path fill="#CBCBD7" opacity="1.000000" stroke="none" 
	d="
M131.191437,170.031982 
	C130.885620,169.909485 130.992844,169.441147 131.053864,169.208801 
	C131.906860,168.992432 132.698853,169.008392 133.895874,169.032074 
	C133.366348,169.411331 132.431793,169.782898 131.191437,170.031982 
z"/>
<path fill="#8C8C9D" opacity="1.000000" stroke="none" 
	d="
M124.497215,165.560028 
	C124.889450,166.676529 125.099136,168.076630 125.171097,169.889267 
	C124.793800,168.815750 124.554230,167.329666 124.497215,165.560028 
z"/>
<path fill="#FDEED9" opacity="1.000000" stroke="none" 
	d="
M25.846380,36.088951 
	C25.453253,36.808716 24.673113,37.487396 23.590405,38.234512 
	C24.011681,37.551250 24.735523,36.799557 25.846380,36.088951 
z"/>
<path fill="#FDEED9" opacity="1.000000" stroke="none" 
	d="
M16.013636,73.324722 
	C16.694086,73.748566 17.348135,74.535789 18.050774,75.634018 
	C17.395321,75.192719 16.691277,74.440407 16.013636,73.324722 
z"/>
<path fill="#FAE6CB" opacity="1.000000" stroke="none" 
	d="
M87.274689,116.895050 
	C87.363754,115.979576 87.822304,115.031219 88.549973,113.902283 
	C88.427444,114.768524 88.035805,115.815353 87.274689,116.895050 
z"/>
<path fill="#434B89" opacity="1.000000" stroke="none" 
	d="
M151.700195,87.056786 
	C151.213654,87.674606 150.413864,88.325523 149.254181,88.948898 
	C149.725189,88.310860 150.556061,87.700363 151.700195,87.056786 
z"/>
<path fill="#434B89" opacity="1.000000" stroke="none" 
	d="
M177.289673,110.885658 
	C177.488007,110.070030 177.960892,109.105179 178.792542,108.122711 
	C178.622284,108.982208 178.093246,109.859322 177.289673,110.885658 
z"/>
<path fill="#FAE6CB" opacity="1.000000" stroke="none" 
	d="
M21.056639,124.446060 
	C21.993402,124.444687 23.007425,124.807137 24.242603,125.417770 
	C23.353804,125.380592 22.243853,125.095230 21.056639,124.446060 
z"/>
<path fill="#BFBFCE" opacity="1.000000" stroke="none" 
	d="
M120.280167,167.978317 
	C120.495834,168.463867 120.711502,168.949432 120.972015,169.707092 
	C120.014717,169.499939 119.012566,169.020676 118.376259,168.209503 
	C119.254791,167.911163 119.767471,167.944733 120.280167,167.978317 
z"/>
<path fill="#FDEED9" opacity="1.000000" stroke="none" 
	d="
M80.303040,66.903122 
	C80.388489,65.973839 80.847702,65.015419 81.564209,63.859173 
	C81.439934,64.732231 81.058365,65.803116 80.303040,66.903122 
z"/>
<path fill="#FDEED9" opacity="1.000000" stroke="none" 
	d="
M22.921585,38.236786 
	C22.773901,38.897285 22.260155,39.503193 21.454887,40.206505 
	C21.627420,39.596672 22.091473,38.889431 22.921585,38.236786 
z"/>
<path fill="#96989E" opacity="1.000000" stroke="none" 
	d="
M47.883759,170.264557 
	C48.703346,169.842331 49.724785,169.714432 50.961597,169.805023 
	C50.146519,170.201965 49.116066,170.380417 47.883759,170.264557 
z"/>
<path fill="#66687C" opacity="1.000000" stroke="none" 
	d="
M31.353619,169.245270 
	C30.868977,169.191696 30.384335,169.138107 29.899693,169.084534 
	C30.093330,168.231293 30.286966,167.378052 30.480604,166.524811 
	C30.617155,166.582962 30.788706,166.608505 30.881104,166.707748 
	C30.988497,166.823105 31.026512,167.003036 31.150883,167.834595 
	C31.255955,168.757919 31.304787,169.001602 31.353619,169.245270 
z"/>
<path fill="#FCE5C5" opacity="1.000000" stroke="none" 
	d="
M17.820801,93.117020 
	C17.923405,93.663254 17.728025,94.193581 17.276592,94.863869 
	C17.187963,94.369591 17.355391,93.735359 17.820801,93.117020 
z"/>
<path fill="#FCE5C5" opacity="1.000000" stroke="none" 
	d="
M31.398216,98.991295 
	C31.100307,98.573288 31.090185,98.117363 31.087986,97.318665 
	C31.584007,97.297119 32.072105,97.618347 32.560204,97.939575 
	C32.268799,98.277504 31.977400,98.615440 31.398216,98.991295 
z"/>
<path fill="#A8A9BA" opacity="1.000000" stroke="none" 
	d="
M54.513741,169.285339 
	C54.183411,169.049286 54.152168,168.786285 54.145050,168.125320 
	C55.045166,168.136093 55.921162,168.544815 56.797157,168.953522 
	C56.135715,169.055145 55.474270,169.156784 54.513741,169.285339 
z"/>
<path fill="#FCE5C5" opacity="1.000000" stroke="none" 
	d="
M27.481884,104.979362 
	C27.497053,104.337013 27.844454,103.625381 28.470427,102.775940 
	C28.437372,103.395447 28.125746,104.152763 27.481884,104.979362 
z"/>
<path fill="#FDEED9" opacity="1.000000" stroke="none" 
	d="
M28.058849,84.233650 
	C28.598843,84.076134 29.149811,84.224510 29.870735,84.609924 
	C29.383736,84.744484 28.726780,84.642014 28.058849,84.233650 
z"/>
<path fill="#434B89" opacity="1.000000" stroke="none" 
	d="
M167.332275,120.011246 
	C167.578354,119.451775 168.117722,118.834900 169.005447,118.298836 
	C168.777710,118.904373 168.201645,119.429115 167.332275,120.011246 
z"/>
<path fill="#66687C" opacity="1.000000" stroke="none" 
	d="
M110.449097,169.724945 
	C110.112381,169.459885 110.030212,169.033203 109.867310,168.290588 
	C110.106979,167.786285 110.427391,167.597946 110.747803,167.409607 
	C110.733086,168.127518 110.718361,168.845413 110.449097,169.724945 
z"/>
<path fill="#6A6B7F" opacity="1.000000" stroke="none" 
	d="
M153.343170,169.856079 
	C153.014389,169.241211 153.008575,168.493332 153.209076,167.367752 
	C153.595047,167.002060 153.774704,167.014084 153.954361,167.026108 
	C153.858292,167.925110 153.762207,168.824097 153.343170,169.856079 
z"/>
<path fill="#434B89" opacity="1.000000" stroke="none" 
	d="
M181.304535,104.879440 
	C181.291901,104.194778 181.533249,103.316422 182.131531,102.384872 
	C182.178482,103.116371 181.868500,103.901054 181.304535,104.879440 
z"/>
<path fill="#FAE6CB" opacity="1.000000" stroke="none" 
	d="
M28.194767,127.318527 
	C28.826254,127.222580 29.651798,127.389595 30.691723,127.796928 
	C30.067011,127.885330 29.227919,127.733406 28.194767,127.318527 
z"/>
<path fill="#434B89" opacity="1.000000" stroke="none" 
	d="
M154.504944,126.328400 
	C154.934189,125.921547 155.700638,125.498528 156.835052,125.140221 
	C156.416061,125.574036 155.629105,125.943138 154.504944,126.328400 
z"/>
<path fill="#AEB0C0" opacity="1.000000" stroke="none" 
	d="
M34.726597,166.844666 
	C35.028816,167.152695 35.055473,167.331619 35.115330,167.780090 
	C34.759243,168.179626 34.369953,168.309647 33.504154,168.230225 
	C32.916565,167.890640 32.805489,167.760513 32.694408,167.630371 
	C33.279949,167.325439 33.865490,167.020508 34.726597,166.844666 
z"/>
<path fill="#E2E3F1" opacity="1.000000" stroke="none" 
	d="
M120.235733,167.724930 
	C119.767471,167.944733 119.254791,167.911163 118.357513,167.857544 
	C118.455223,167.566391 118.937531,167.295273 119.708435,167.009644 
	C120.061790,167.153931 120.126549,167.312744 120.235733,167.724930 
z"/>
<path fill="#464B7F" opacity="1.000000" stroke="none" 
	d="
M131.131546,64.290146 
	C131.532059,64.239319 132.100739,64.435532 132.800018,64.915840 
	C132.386993,64.979019 131.843353,64.758110 131.131546,64.290146 
z"/>
<path fill="#AEB0C0" opacity="1.000000" stroke="none" 
	d="
M31.633690,169.216965 
	C31.304787,169.001602 31.255955,168.757919 31.250973,168.143768 
	C31.606955,167.737930 31.919998,167.715057 32.464180,167.667511 
	C32.805489,167.760513 32.916565,167.890640 33.195580,168.218582 
	C32.880260,168.673798 32.397011,168.931229 31.633690,169.216965 
z"/>
<path fill="#9998A7" opacity="1.000000" stroke="none" 
	d="
M153.875702,166.707657 
	C153.774704,167.014084 153.595047,167.002060 153.145050,166.997177 
	C152.594437,166.826263 152.314178,166.648224 152.018280,166.214081 
	C152.600800,166.101746 153.198929,166.245483 153.875702,166.707657 
z"/>
<path fill="#434B89" opacity="1.000000" stroke="none" 
	d="
M165.503738,121.279434 
	C165.616455,120.915367 166.020447,120.490692 166.747009,120.055679 
	C166.644714,120.436493 166.219879,120.827660 165.503738,121.279434 
z"/>
<path fill="#FAE6CB" opacity="1.000000" stroke="none" 
	d="
M91.258041,106.863708 
	C91.032509,106.543251 91.019669,106.087296 91.146606,105.315689 
	C91.347832,105.576088 91.409279,106.152161 91.258041,106.863708 
z"/>
<path fill="#FAE6CB" opacity="1.000000" stroke="none" 
	d="
M91.773514,101.749924 
	C91.555580,101.495033 91.461456,101.086212 91.530396,100.397476 
	C91.761414,100.610374 91.829369,101.103188 91.773514,101.749924 
z"/>
<path fill="#434B89" opacity="1.000000" stroke="none" 
	d="
M139.990982,69.402245 
	C140.430527,69.327774 141.028915,69.511185 141.722137,70.012352 
	C141.261276,70.106781 140.705536,69.883453 139.990982,69.402245 
z"/>
<path fill="#434B89" opacity="1.000000" stroke="none" 
	d="
M138.107269,68.293350 
	C138.511673,68.237854 139.084656,68.430496 139.786728,68.910858 
	C139.369171,68.979546 138.822510,68.760521 138.107269,68.293350 
z"/>
<path fill="#434B89" opacity="1.000000" stroke="none" 
	d="
M135.365921,96.594650 
	C135.237839,96.966362 134.821503,97.393509 134.063385,97.753418 
	C134.173645,97.340820 134.625656,96.995453 135.365921,96.594650 
z"/>
<path fill="#464B7F" opacity="1.000000" stroke="none" 
	d="
M134.340683,66.160202 
	C134.679840,66.126434 135.187546,66.308662 135.839767,66.726242 
	C135.492599,66.766464 135.000916,66.571327 134.340683,66.160202 
z"/>
<path fill="#434B89" opacity="1.000000" stroke="none" 
	d="
M169.591492,118.343620 
	C169.685318,117.973396 170.067108,117.530235 170.778900,117.082123 
	C170.699081,117.475014 170.289276,117.872849 169.591492,118.343620 
z"/>
<path fill="#434B89" opacity="1.000000" stroke="none" 
	d="
M143.167908,71.241699 
	C143.554001,71.190384 144.115158,71.378654 144.820023,71.837296 
	C144.423477,71.898880 143.883240,71.690086 143.167908,71.241699 
z"/>
<path fill="#FAE6CB" opacity="1.000000" stroke="none" 
	d="
M25.198248,126.182281 
	C25.632788,126.041367 26.244959,126.182266 27.058292,126.574219 
	C26.631596,126.704880 26.003736,126.584488 25.198248,126.182281 
z"/>
<path fill="#434B89" opacity="1.000000" stroke="none" 
	d="
M150.140549,75.272217 
	C150.537277,75.217857 151.102615,75.408363 151.803131,75.877869 
	C151.395279,75.943596 150.852203,75.730339 150.140549,75.272217 
z"/>
<path fill="#434B89" opacity="1.000000" stroke="none" 
	d="
M154.378006,85.621887 
	C154.200974,85.988693 153.697678,86.428627 152.815094,86.837738 
	C152.974442,86.436295 153.513092,86.065659 154.378006,85.621887 
z"/>
<path fill="#F8F8FA" opacity="1.000000" stroke="none" 
	d="
M184.876404,62.863766 
	C184.559006,62.660587 184.274567,62.140297 183.993866,61.309883 
	C184.301529,61.515392 184.605438,62.031021 184.876404,62.863766 
z"/>
<path fill="#FBE7CE" opacity="1.000000" stroke="none" 
	d="
M147.749298,145.165375 
	C147.830978,145.568146 147.660522,146.126556 147.228836,146.829208 
	C147.144135,146.422653 147.320663,145.871826 147.749298,145.165375 
z"/>
<path fill="#434B89" opacity="1.000000" stroke="none" 
	d="
M136.665741,95.885437 
	C136.687683,96.125885 136.443832,96.392960 135.916489,96.628616 
	C135.888657,96.368813 136.144318,96.140434 136.665741,95.885437 
z"/>
<path fill="#FDEED9" opacity="1.000000" stroke="none" 
	d="
M27.898724,35.083878 
	C28.043640,35.403648 27.830511,35.632660 27.250259,35.745598 
	C27.132223,35.435593 27.351402,35.223457 27.898724,35.083878 
z"/>
<path fill="#D0D2E3" opacity="1.000000" stroke="none" 
	d="
M87.813446,169.482513 
	C87.919006,169.532288 88.048355,169.581589 87.987480,169.559174 
	C87.797249,169.487473 87.837242,169.482056 87.813446,169.482513 
z"/>
<path fill="#434B89" opacity="1.000000" stroke="none" 
	d="
M141.850281,70.479454 
	C142.051071,70.344131 142.383591,70.445587 142.858032,70.776260 
	C142.660629,70.909073 142.321304,70.812653 141.850281,70.479454 
z"/>
<path fill="#FCE5C5" opacity="1.000000" stroke="none" 
	d="
M30.162310,100.824013 
	C30.036945,100.604797 30.176008,100.276985 30.553360,99.814056 
	C30.670012,100.024437 30.548374,100.369926 30.162310,100.824013 
z"/>
<path fill="#FDEED9" opacity="1.000000" stroke="none" 
	d="
M27.128662,83.480225 
	C27.341293,83.195885 27.630627,83.272400 27.972992,83.737671 
	C27.756804,83.976616 27.483250,83.881500 27.128662,83.480225 
z"/>
<path fill="#E5EAF4" opacity="1.000000" stroke="none" 
	d="
M179.767883,33.988312 
	C179.742981,34.108963 179.454437,34.226105 179.071442,34.168076 
	C179.152740,33.990204 179.328491,33.987503 179.767883,33.988312 
z"/>
<path fill="#AEB0C0" opacity="1.000000" stroke="none" 
	d="
M33.406799,170.504654 
	C33.332272,170.378662 33.632690,170.317429 33.632690,170.317429 
	C33.632690,170.317429 33.481323,170.630646 33.406799,170.504654 
z"/>
<path fill="#F8F8FA" opacity="1.000000" stroke="none" 
	d="
M186.847900,70.263382 
	C186.647278,70.235313 186.441360,69.924652 186.255493,69.325493 
	C186.464569,69.351601 186.653580,69.666199 186.847900,70.263382 
z"/>
<path fill="#434B89" opacity="1.000000" stroke="none" 
	d="
M182.649033,102.182770 
	C182.485916,101.999649 182.529800,101.650490 182.803589,101.145401 
	C182.974350,101.331886 182.915207,101.674301 182.649033,102.182770 
z"/>
<path fill="#434B89" opacity="1.000000" stroke="none" 
	d="
M180.428513,106.343712 
	C180.296997,106.129822 180.426132,105.747002 180.814697,105.194550 
	C180.945801,105.408203 180.817490,105.791489 180.428513,106.343712 
z"/>
<path fill="#FAE6CB" opacity="1.000000" stroke="none" 
	d="
M10.783059,107.174530 
	C10.944323,107.374672 10.856571,107.743629 10.544525,108.298111 
	C10.391502,108.103539 10.462773,107.723434 10.783059,107.174530 
z"/>
<path fill="#434B89" opacity="1.000000" stroke="none" 
	d="
M179.340286,108.047173 
	C179.232635,107.851990 179.367233,107.549423 179.719681,107.114914 
	C179.819199,107.301926 179.700867,107.620857 179.340286,108.047173 
z"/>
<path fill="#9998A7" opacity="1.000000" stroke="none" 
	d="
M152.025635,165.738373 
	C151.867676,166.011185 151.694946,166.033371 151.262894,166.023804 
	C151.339340,165.823959 151.675079,165.655838 152.025635,165.738373 
z"/>
<path fill="#464B7F" opacity="1.000000" stroke="none" 
	d="
M136.624954,67.442680 
	C136.838821,67.303574 137.228149,67.420731 137.790192,67.797020 
	C137.575409,67.937080 137.187927,67.818008 136.624954,67.442680 
z"/>
<path fill="#FAE6CB" opacity="1.000000" stroke="none" 
	d="
M86.280045,117.911133 
	C86.178947,117.708008 86.311661,117.401085 86.687370,117.001221 
	C86.791534,117.207970 86.652687,117.507652 86.280045,117.911133 
z"/>
<path fill="#FAE6CB" opacity="1.000000" stroke="none" 
	d="
M82.346039,121.975220 
	C82.103073,121.692451 82.243385,121.425896 82.791321,121.209152 
	C82.973228,121.478683 82.816689,121.722839 82.346039,121.975220 
z"/>
<path fill="#FAE6CB" opacity="1.000000" stroke="none" 
	d="
M19.134544,123.380585 
	C19.318920,123.235413 19.653389,123.309769 20.139956,123.603020 
	C19.956247,123.747986 19.620443,123.674049 19.134544,123.380585 
z"/>
<path fill="#FAE6CB" opacity="1.000000" stroke="none" 
	d="
M32.143188,128.470032 
	C32.314571,128.316803 32.644459,128.361313 33.124210,128.621033 
	C32.949947,128.780090 32.625820,128.723938 32.143188,128.470032 
z"/>
<path fill="#FDEED9" opacity="1.000000" stroke="none" 
	d="
M89.881500,39.668457 
	C89.694160,39.765362 89.397331,39.647106 89.007721,39.294632 
	C89.260437,39.060997 89.546127,39.191959 89.881500,39.668457 
z"/>
<path fill="#F8F8FA" opacity="1.000000" stroke="none" 
	d="
M183.822784,60.276299 
	C183.597656,60.266052 183.350967,59.950169 183.095825,59.324665 
	C183.325317,59.333588 183.563278,59.652126 183.822784,60.276299 
z"/>
<path fill="#FAE1BC" opacity="1.000000" stroke="none" 
	d="
M115.924118,145.771301 
	C115.661293,145.918610 115.406075,145.721130 115.169266,145.170624 
	C115.414879,145.052231 115.662903,145.255203 115.924118,145.771301 
z"/>
<path fill="#8C8EA4" opacity="1.000000" stroke="none" 
	d="
M183.083801,39.730244 
	C182.660843,39.838135 182.312378,39.653481 181.944977,38.876705 
	C181.988586,37.865700 182.051147,37.446823 182.113693,37.027943 
	C182.113693,37.027943 182.053879,37.088436 182.086304,37.117386 
	C182.465256,37.910126 182.811783,38.673912 183.083801,39.730244 
z"/>
<path fill="#FCE8CA" opacity="1.000000" stroke="none" 
	d="
M58.708042,59.391514 
	C59.056084,61.538483 59.021454,63.511879 58.920330,65.851395 
	C54.877682,63.899231 50.901527,61.580956 46.925373,59.262680 
	C47.088650,58.631153 47.251930,57.999622 47.415207,57.368095 
	C51.051929,57.984711 54.688652,58.601326 58.708042,59.391514 
z"/>
<path fill="#FCE5C8" opacity="1.000000" stroke="none" 
	d="
M73.321526,54.886215 
	C72.250732,54.023903 71.472885,53.019161 70.315170,51.983528 
	C71.760521,50.942604 73.585724,49.932571 75.410934,48.922543 
	C75.820175,49.478142 76.229424,50.033745 76.638672,50.589348 
	C75.630608,51.974159 74.622543,53.358971 73.321526,54.886215 
z"/>
<path fill="#FAE6CB" opacity="1.000000" stroke="none" 
	d="
M61.076584,74.345695 
	C62.632702,75.941925 64.149979,77.916267 65.990601,79.875793 
	C66.104782,80.650070 65.895607,81.439156 65.686432,82.228241 
	C64.853104,81.844353 63.567638,81.672340 63.270096,81.037384 
	C62.327480,79.025871 61.753971,76.841400 61.076584,74.345695 
z"/>
<path fill="#FAE6CB" opacity="1.000000" stroke="none" 
	d="
M66.482208,77.707680 
	C66.124245,76.061913 65.950104,74.039284 65.775970,72.016647 
	C66.812141,72.091316 67.848320,72.165993 68.951965,72.583801 
	C68.234962,74.394897 67.450500,75.862854 66.482208,77.707680 
z"/>
<path fill="#FCE5C8" opacity="1.000000" stroke="none" 
	d="
M68.596146,52.920513 
	C67.847832,53.906467 66.780502,54.955238 65.342621,55.989510 
	C66.073753,54.977783 67.175438,53.980556 68.596146,52.920513 
z"/>
<path fill="#FDEED9" opacity="1.000000" stroke="none" 
	d="
M75.290298,65.480042 
	C74.064201,65.453827 72.608910,65.173508 71.280830,64.486115 
	C71.584114,64.056442 71.760185,64.033844 71.936256,64.011246 
	C72.977867,64.416145 74.019478,64.821037 75.290298,65.480042 
z"/>
<path fill="#FCE5C8" opacity="1.000000" stroke="none" 
	d="
M71.517845,57.237831 
	C71.600723,56.620579 71.966354,55.868286 72.681648,55.070721 
	C72.621071,55.717892 72.210831,56.410343 71.517845,57.237831 
z"/>
<path fill="#FCE5C8" opacity="1.000000" stroke="none" 
	d="
M69.037392,62.568993 
	C68.758102,62.287178 68.441948,61.673672 68.400314,61.000881 
	C68.783401,61.373493 68.891968,61.805397 69.037392,62.568993 
z"/>
<path fill="#FCE5C8" opacity="1.000000" stroke="none" 
	d="
M64.668961,56.016270 
	C64.455658,56.602970 63.934147,57.235863 63.064896,57.846848 
	C63.265022,57.237450 63.812889,56.649956 64.668961,56.016270 
z"/>
<path fill="#FCE5C8" opacity="1.000000" stroke="none" 
	d="
M71.714012,63.781677 
	C71.760185,64.033844 71.584114,64.056442 71.145050,64.126526 
	C70.361679,63.930328 69.841309,63.686642 69.199654,63.177292 
	C69.882828,63.125126 70.687302,63.338619 71.714012,63.781677 
z"/>
<path fill="#FAE6CB" opacity="1.000000" stroke="none" 
	d="
M71.392044,74.166321 
	C71.986359,74.106148 72.790276,74.272247 73.789368,74.681877 
	C73.190254,74.747810 72.395950,74.570198 71.392044,74.166321 
z"/>
<path fill="#FCE8CA" opacity="1.000000" stroke="none" 
	d="
M61.785629,58.267227 
	C61.932327,58.561016 61.749325,58.777737 61.256943,58.959122 
	C61.062592,58.656055 61.232048,58.411514 61.785629,58.267227 
z"/>
<path fill="#FCE5C8" opacity="1.000000" stroke="none" 
	d="
M69.343414,60.062569 
	C69.237427,59.853813 69.376244,59.538895 69.760620,59.118706 
	C69.866859,59.327759 69.727539,59.642086 69.343414,60.062569 
z"/>
<path fill="#FCE0C3" opacity="1.000000" stroke="none" 
	d="
M42.813732,147.067307 
	C44.322250,147.346481 45.951004,147.622162 46.747276,148.585770 
	C47.185608,149.116211 46.464626,150.976944 45.798603,151.900696 
	C45.430035,152.411880 44.096874,152.227570 43.198517,152.356750 
	C42.994526,150.688141 42.790531,149.019531 42.813732,147.067307 
z"/>
<path fill="#D3AA87" opacity="1.000000" stroke="none" 
	d="
M155.986023,150.984283 
	C155.473831,151.662064 154.975113,152.354050 154.476395,153.046036 
	C154.204483,152.788055 153.932587,152.530090 153.660690,152.272110 
	C154.251282,151.896362 154.841888,151.520615 155.730804,151.084442 
	C156.029114,151.024002 155.999466,150.998474 155.986023,150.984283 
z"/>
<path fill="#F8F8FA" opacity="1.000000" stroke="none" 
	d="
M181.882980,37.131958 
	C182.051147,37.446823 181.988586,37.865700 181.832367,38.588390 
	C181.709885,38.340126 181.681076,37.788048 181.882980,37.131958 
z"/>
</svg>